<svg width="977" height="278" viewBox="0 0 977 278" fill="none" xmlns="http://www.w3.org/2000/svg">
<rect y="192" width="977" height="4" fill="#565656"/>
<path d="M722.84 138.024V208.747H953.196V173.385V157.344V138.024H932.461H924.401H908.504L919.583 146.818L913.489 153.466L913.489 163.5L915.996 178.5L907.103 160L908.504 149.034L894.5 138.024H838.018H722.84Z" fill="black" stroke="#999999" stroke-width="2.21584"/>
<path d="M87.707 134.7V205.423H318.063V134.7H87.707Z" fill="black" stroke="#999999" stroke-width="2.21584"/>
<path d="M771.346 191.142C771.346 190.694 771.346 189.801 771.346 188.464C771.794 188.464 772.687 188.464 774.024 188.464C774.645 183.297 775.879 172.971 777.725 157.487C778.958 157.487 781.426 157.487 785.126 157.487C785.739 162.654 786.977 172.975 788.84 188.451C789.288 188.451 790.186 188.451 791.531 188.451C791.531 188.899 791.531 189.796 791.531 191.142C788.167 191.142 781.438 191.142 771.346 191.142ZM777.375 188.464C778.721 188.464 781.408 188.464 785.437 188.464C784.876 183.745 783.768 174.317 782.111 160.178C781.999 160.178 781.775 160.178 781.438 160.178C781.326 160.178 781.102 160.178 780.766 160.178C780.205 164.897 779.075 174.325 777.375 188.464ZM806.386 191.142C806.946 191.142 808.059 191.142 809.724 191.142C809.724 185.535 809.715 174.321 809.698 157.5C809.146 157.5 808.033 157.5 806.36 157.5C805.238 158.63 802.996 160.89 799.631 164.28C799.631 163.15 799.631 160.89 799.631 157.5C799.071 157.5 797.949 157.5 796.267 157.5C796.276 163.107 796.284 174.321 796.293 191.142C796.854 191.142 797.975 191.142 799.657 191.142C799.657 187.329 799.649 179.704 799.631 168.265C800.753 167.144 802.996 164.901 806.36 161.537C806.368 166.471 806.377 176.339 806.386 191.142ZM814.408 191.142C814.408 190.694 814.408 189.801 814.408 188.464C814.857 188.464 815.75 188.464 817.087 188.464C817.708 183.297 818.941 172.971 820.787 157.487C822.021 157.487 824.488 157.487 828.189 157.487C828.801 162.654 830.039 172.975 831.902 188.451C832.351 188.451 833.248 188.451 834.594 188.451C834.594 188.899 834.594 189.796 834.594 191.142C831.229 191.142 824.501 191.142 814.408 191.142ZM820.438 188.464C821.784 188.464 824.471 188.464 828.499 188.464C827.939 183.745 826.83 174.317 825.174 160.178C825.062 160.178 824.837 160.178 824.501 160.178C824.389 160.178 824.165 160.178 823.828 160.178C823.267 164.897 822.137 174.325 820.438 188.464ZM849.396 191.142C849.957 191.142 851.079 191.142 852.761 191.142C852.761 187.441 852.761 180.04 852.761 168.938C853.882 168.938 856.125 168.938 859.489 168.938C859.498 172.639 859.507 180.04 859.515 191.142C860.076 191.142 861.189 191.142 862.854 191.142C862.845 185.535 862.836 174.321 862.828 157.5C862.267 157.5 861.154 157.5 859.489 157.5C859.489 158.957 859.489 161.873 859.489 166.247C858.368 166.247 856.125 166.247 852.761 166.247C852.761 164.789 852.761 161.873 852.761 157.5C852.2 157.5 851.079 157.5 849.396 157.5C849.396 158.957 849.396 161.873 849.396 166.247C848.275 166.247 846.032 166.247 842.668 166.247C842.677 164.789 842.685 161.873 842.694 157.5C842.133 157.5 841.003 157.5 839.304 157.5C839.304 163.107 839.304 174.321 839.304 191.142C839.864 191.142 840.986 191.142 842.668 191.142C842.668 187.441 842.668 180.04 842.668 168.938C843.789 168.938 846.032 168.938 849.396 168.938C849.396 172.639 849.396 180.04 849.396 191.142ZM869.582 191.142C871.601 191.142 875.638 191.142 881.693 191.142C881.693 190.694 881.693 189.796 881.693 188.451C880.236 188.451 877.32 188.451 872.946 188.451C872.946 185.199 872.946 178.694 872.946 168.938C874.068 168.938 876.311 168.938 879.675 168.938C879.675 168.49 879.675 167.592 879.675 166.247C878.553 166.247 876.311 166.247 872.946 166.247C872.946 165.237 872.946 163.219 872.946 160.191C874.404 160.191 877.32 160.191 881.693 160.191C881.693 159.622 881.693 159.315 881.693 159.272C881.693 159.221 881.693 158.63 881.693 157.5C879.002 157.5 874.965 157.5 869.582 157.5C869.582 163.107 869.582 174.321 869.582 191.142ZM897.868 191.142C898.428 191.142 899.541 191.142 901.206 191.142C901.197 185.535 901.189 174.321 901.18 157.5C900.619 157.5 899.507 157.5 897.842 157.5C896.72 158.63 894.478 160.89 891.113 164.28C891.113 163.15 891.113 160.89 891.113 157.5C890.553 157.5 889.431 157.5 887.749 157.5C887.758 163.107 887.766 174.321 887.775 191.142C888.336 191.142 889.457 191.142 891.139 191.142C891.139 187.329 891.131 179.704 891.113 168.265C892.235 167.144 894.478 164.901 897.842 161.537C897.85 166.471 897.859 176.339 897.868 191.142ZM891.165 154.821C892.278 154.821 894.503 154.817 897.842 154.808C897.842 154.36 897.842 153.462 897.842 152.117C896.72 152.117 894.478 152.117 891.113 152.117C891.122 152.565 891.139 153.467 891.165 154.821Z" fill="#999999"/>
<path d="M176.416 189C176.705 189 177.288 189 178.164 189C182.465 189 185.413 188.198 187.007 186.595C188.593 185.001 189.39 182.921 189.398 180.354C189.398 177.919 188.601 175.904 187.007 174.31C185.413 172.715 183.153 171.918 180.227 171.918C180.139 171.918 180.003 171.918 179.82 171.918C179.82 165.033 179.82 161.407 179.82 161.039C179.828 160.679 179.833 159.523 179.833 157.57C181.348 157.57 183.626 157.565 186.665 157.557C186.665 157.101 186.665 156.194 186.665 154.837C184.957 154.837 181.541 154.837 176.416 154.837C176.416 160.531 176.416 171.918 176.416 189ZM179.82 174.665C179.881 174.656 180.017 174.651 180.227 174.651C182.242 174.651 183.705 175.221 184.616 176.36C185.527 177.498 185.982 178.83 185.982 180.354C185.973 182.018 185.417 183.42 184.313 184.559C183.21 185.698 181.716 186.267 179.833 186.267C179.833 183.692 179.828 179.824 179.82 174.665ZM205.219 175.348C204.746 175.348 203.8 175.348 202.381 175.348C201.907 175.348 200.961 175.348 199.542 175.348C199.218 177.625 198.566 182.176 197.584 189C197.015 189 195.881 189 194.181 189C194.926 183.306 196.419 171.914 198.662 154.823C199.906 154.823 202.394 154.823 206.125 154.823C206.852 160.517 208.32 171.91 210.527 189C209.958 189 208.823 189 207.124 189C206.809 186.722 206.174 182.172 205.219 175.348ZM200.015 172.628C200.804 172.628 202.372 172.628 204.719 172.628C204.439 170.114 203.878 165.09 203.037 157.557C202.924 157.557 202.696 157.557 202.354 157.557C202.24 157.557 202.013 157.557 201.671 157.557C201.391 160.071 200.839 165.094 200.015 172.628ZM216.046 189C216.466 189 217.036 189 217.754 189C218.472 189 219.042 189 219.462 189C219.462 185.207 219.462 179.513 219.462 171.918C219.532 171.918 219.664 171.918 219.856 171.918C222.747 171.918 225.003 171.082 226.623 169.409C228.235 167.735 229.041 165.747 229.041 163.443C229.041 160.885 228.24 158.814 226.636 157.228C225.033 155.634 222.651 154.837 219.488 154.837C218.726 154.837 217.579 154.837 216.046 154.837C216.046 160.531 216.046 171.918 216.046 189ZM219.462 157.57C221.757 157.605 223.356 158.227 224.258 159.436C225.152 160.644 225.598 161.98 225.598 163.443C225.598 164.687 225.147 165.957 224.245 167.254C223.352 168.541 221.889 169.185 219.856 169.185C219.769 169.185 219.637 169.185 219.462 169.185C219.462 167.249 219.462 163.377 219.462 157.57Z" fill="#999999"/>
<path d="M515.012 7.78722L528.778 78.0352" stroke="#999999" stroke-width="2.02066"/>
<circle cx="536.085" cy="113.881" r="35.8668" transform="rotate(-11.0872 536.085 113.881)" stroke="#999999" stroke-width="2.02066"/>
<path d="M552.438 81.8828L508.81 90.4321L504.172 96.8058L502.095 102.197L562.544 90.3517L565.78 94.4592L567.949 98.9955L500.289 112.254L500.185 114.992L500.47 117.751L501.222 121.588L570.73 107.967L571.35 112.436L571.153 116.654L504.233 129.768L506.932 134.401L510.918 138.72L568.283 127.479L566.573 131.16L564.269 134.423L517.291 143.505L521.64 146.108L527.297 148.199L557.414 142.298" stroke="#999999" stroke-width="2.02066"/>
<path d="M518.884 82.4055L520.019 88.1979L524.702 87.2802M541.463 83.9957L537.889 84.6961L536.561 77.9177L528.504 78.6007L530.001 86.2417L524.702 87.2802M541.463 83.9957L545.16 83.2712L544.315 78.9577L551.815 81.967L548.611 82.595L550.591 92.7008L543.443 94.1015L541.463 83.9957ZM533.699 85.5172L535.679 95.623L531.181 96.5045M524.702 87.2802L526.682 97.386L531.181 96.5045M511.638 89.8401L513.619 99.946L507.087 101.226L508.922 110.592L515.516 109.3M531.181 96.5045L520.274 98.6419L522.109 108.008L515.516 109.3M531.181 96.5045L533.016 105.871L538.47 104.802M559.636 100.654L554.892 101.584L553.056 92.2178L542.088 94.3672L543.923 103.734L538.47 104.802M559.636 100.654L564.381 99.7246L562.546 90.3582L565.561 93.9905L567.835 98.408L567.955 99.0242L559.636 100.654ZM559.636 100.654L561.424 109.774L556.093 110.819M538.47 104.802L548.976 102.743L550.763 111.863L556.093 110.819M538.47 104.802L540.257 113.922M527.162 107.018L528.949 116.138L523.157 117.273M515.516 109.3L517.241 118.432L523.157 117.273M504.116 111.534L505.903 120.654L510.709 119.712L512.376 128.216L520.88 126.55M523.157 117.273L524.823 125.777L520.88 126.55M534.865 114.979L536.531 123.482L543.926 122.033M556.093 110.819L546.326 112.733L547.993 121.236L543.926 122.033M556.093 110.819L557.76 119.323M565.552 108.965L567.219 117.469L562.289 118.435L564.221 128.294L560.77 128.971M543.926 122.033L552.799 120.295L554.731 130.154L560.77 128.971M543.926 122.033L545.858 131.893M531.478 124.473L533.41 134.332L526.755 135.636M520.88 126.55L522.812 136.409L526.755 135.636M510.281 128.627L512.213 138.486L517.882 137.375L519.041 143.291L526.929 141.745M526.755 135.636L527.915 141.552L526.929 141.745M542.777 132.497L543.936 138.412L548.496 137.519M560.77 128.971L551.157 130.854L552.317 136.77L548.496 137.519M560.77 128.971L561.929 134.886L557.246 135.804L558.285 141.103L556.013 142.572L549.728 143.804L548.496 137.519M539.499 139.282L540.731 145.567L528.407 147.982L526.929 141.745" stroke="#999999" stroke-width="2.02066"/>
<path d="M512.006 90.408L524.577 87.9446L526.34 96.9413L513.769 99.4047L512.006 90.408Z" fill="#999999"/>
<path d="M534.189 86.0608L541.337 84.6601L543.076 93.5335L535.928 94.9342L534.189 86.0608Z" fill="#999999"/>
<path d="M538.742 105.388L548.848 103.408L550.418 111.419L540.312 113.399L538.742 105.388Z" fill="#999999"/>
<path d="M504.213 112.027L515.305 109.853L516.874 117.864L505.783 120.038L504.213 112.027Z" fill="#999999"/>
<path d="M523.523 117.841L534.615 115.667L536.04 122.939L524.948 125.112L523.523 117.841Z" fill="#999999"/>
<path d="M544.416 122.577L552.55 120.983L554.241 129.61L546.107 131.204L544.416 122.577Z" fill="#999999"/>
<path d="M527.123 136.204L542.652 133.161L543.569 137.844L528.041 140.887L527.123 136.204Z" fill="#999999"/>
<path d="M369.881 183.57L357.31 201.822L360.925 204.493L364.873 207.199L368.686 209.656L380.773 191.072L379.936 185.569L385.944 176.431L382.743 172.648L375.804 182.723L369.881 183.57Z" fill="#999999"/>
<path d="M839.639 250.045L827.068 268.297L830.683 270.968L834.631 273.674L838.443 276.131L850.531 257.547L849.693 252.044L855.702 242.906L852.501 239.123L845.562 249.198L839.639 250.045Z" fill="#999999"/>
<path d="M151.29 255.541L166.101 277.004L169.898 274.597L173.83 271.868L177.469 269.159L162.175 248.029L156.327 246.265L148.826 235.81L144.022 237.267L152.198 249.114L151.29 255.541Z" fill="#999999"/>
<path d="M293.732 251.416L294.772 271.236L302.994 270.938L311.747 270.469L320.03 269.909L317.917 250.146L310.757 246.883L309.814 237.128L301.009 236.424L301.583 247.365L293.732 251.416Z" fill="#999999"/>
<path d="M644.178 269.711L646.312 259.304V255.568L655.385 251.032H660.989L662.857 257.97L668.46 261.438L666.592 269.711L660.989 270.511L653.25 276.115L649.248 270.511L644.178 269.711Z" fill="#C1C1C1"/>
<path d="M646.312 259.304L644.178 269.711L649.248 270.511L653.25 276.115L660.989 270.511M646.312 259.304V255.568L655.385 251.032M646.312 259.304H653.25L655.385 265.708M660.989 270.511L666.592 269.711L668.46 261.438L662.857 257.97M660.989 270.511L655.385 265.708M662.857 257.97L660.989 251.032H655.385M662.857 257.97L659.388 261.438M655.385 251.032L657.52 255.568L659.388 261.438M655.385 265.708L659.388 261.438" stroke="#4C4C4C" stroke-width="1.60104"/>
<path d="M544.871 207.504L539.663 203.519L537.587 202.514L537.506 196.253L539.013 193.14L543.37 193.967L546.805 191.786L550.899 195.049L549.837 198.378L550.869 204.184L546.679 204.902L544.871 207.504Z" fill="#C1C1C1"/>
<path d="M539.663 203.519L544.871 207.504L546.679 204.902L550.869 204.184L549.837 198.378M539.663 203.519L537.587 202.514L537.506 196.253M539.663 203.519L541.528 199.664L545.661 200.2M549.837 198.378L550.899 195.049L546.805 191.786L543.37 193.967M549.837 198.378L545.661 200.2M543.37 193.967L539.013 193.14L537.506 196.253M543.37 193.967L544.365 196.828M537.506 196.253L540.601 196.287L544.365 196.828M545.661 200.2L544.365 196.828" stroke="#4C4C4C" stroke-width="0.988328"/>
<path d="M55.1719 271.763L49.9634 267.778L47.8876 266.774L47.8067 260.513L49.3136 257.399L53.6709 258.227L57.1053 256.046L61.1994 259.308L60.1374 262.637L61.1701 268.444L56.9801 269.161L55.1719 271.763Z" fill="#C1C1C1"/>
<path d="M49.9634 267.778L55.1719 271.763L56.9801 269.161L61.1701 268.444L60.1374 262.637M49.9634 267.778L47.8876 266.774L47.8067 260.513M49.9634 267.778L51.8291 263.923L55.9616 264.459M60.1374 262.637L61.1994 259.308L57.1053 256.046L53.6709 258.227M60.1374 262.637L55.9616 264.459M53.6709 258.227L49.3136 257.399L47.8067 260.513M53.6709 258.227L54.6656 261.087M47.8067 260.513L50.9014 260.546L54.6656 261.087M55.9616 264.459L54.6656 261.087" stroke="#4C4C4C" stroke-width="0.988328"/>
<path d="M474.666 259.739L476.801 249.332V245.597L485.873 241.06H491.477L493.345 247.998L498.948 251.467L497.081 259.739L491.477 260.54L483.739 266.143L479.736 260.54L474.666 259.739Z" fill="#C1C1C1"/>
<path d="M476.801 249.332L474.666 259.739L479.736 260.54L483.739 266.143L491.477 260.54M476.801 249.332V245.597L485.873 241.06M476.801 249.332H483.739L485.873 255.737M491.477 260.54L497.081 259.739L498.949 251.467L493.345 247.998M491.477 260.54L485.873 255.737M493.345 247.998L491.477 241.06H485.873M493.345 247.998L489.876 251.467M485.873 241.06L488.008 245.597L489.876 251.467M485.873 255.737L489.876 251.467" stroke="#4C4C4C" stroke-width="1.60104"/>
<path d="M755.585 230.551L766.085 220.771L769.03 216.669L782.366 218.693L788.395 223.021L784.936 232.082L788.231 240.219L779.7 247.861L773.041 244.413L760.298 244.59L760.409 235.346L755.585 230.551Z" fill="#C1C1C1"/>
<path d="M766.085 220.771L755.585 230.551L760.409 235.346L760.298 244.59L773.041 244.413M766.085 220.771L769.03 216.669L782.366 218.693M766.085 220.771L773.549 226.129L770.798 234.81M773.041 244.413L779.7 247.861L788.231 240.219L784.936 232.082M773.041 244.413L770.798 234.81M784.936 232.082L788.395 223.021L782.366 218.693M784.936 232.082L778.47 233.213M782.366 218.693L781.087 225.324L778.47 233.213M770.798 234.81L778.47 233.213" stroke="#4C4C4C" stroke-width="1.60104"/>
<path d="M30.3889 6.73515H53.1013H70.828L55.8711 18.9942L59.7488 32.5303L41.4681 40.5267L40.3602 64.6582L15.986 55.4837L3.79883 72.6564V52.1599V35.5411V6.73515H30.3889Z" fill="#D9D9D9" fill-opacity="0.2"/>
<path d="M3.79883 52.1599V35.5411L7.67655 22.8L19.184 31.1094L17.6478 18.9942H30.3889V6.73515M3.79883 52.1599V72.6564L15.986 55.4837L40.3602 64.6582L41.4681 40.5267L59.7488 32.5303L55.8711 18.9942L70.828 6.73515H30.3889M3.79883 52.1599L12.6622 40.5267L29.6739 47.7282V29.4475L43.684 25.1238L40.3602 13.3827L53.1013 6.73515H30.3889M3.79883 6.73515H97.9721M3.79883 6.73515L89.1087 46.0663M3.79883 6.73515L53.1013 84.8436M3.79883 6.73515V97.5847" stroke="black" stroke-width="2.21584"/>
<path d="M635.249 166.83H629.773L631.958 179.819M635.249 166.83L640.725 208.472M635.249 166.83H640.725M640.725 208.472H636.778L635.514 200.959M640.725 208.472H644.928M640.725 166.83L644.928 208.472M640.725 166.83H647.347M644.928 208.472H649.003M647.347 166.83L649.003 208.472M647.347 166.83H652.696M649.003 208.472H652.696M652.696 166.83V208.472M652.696 166.83H659.827M652.696 208.472H656.771M659.827 166.83L656.771 208.472M659.827 166.83H665.558M656.771 208.472H659.827M665.558 166.83L659.827 208.472M665.558 166.83H670.525M659.827 208.472H663.648M670.525 166.83H674.09L672.025 179.819M670.525 166.83L663.648 208.472M663.648 208.472H667.468L668.663 200.959M635.514 200.959H668.663M635.514 200.959L633.693 190.134M668.663 200.959L670.384 190.134M670.384 190.134H633.693M670.384 190.134L672.025 179.819M633.693 190.134L631.958 179.819M631.958 179.819H672.025" stroke="#999999" stroke-width="1.65361"/>
<path d="M722.84 73.7643V138.024H771.588V73.7643H722.84Z" fill="black" stroke="#999999" stroke-width="2.21584"/>
<path d="M906.754 73.7643V138.024H952.733V73.7643H906.754Z" fill="black" stroke="#999999" stroke-width="2.21584"/>
<circle cx="747.214" cy="91.4911" r="6.64752" fill="#999999"/>
<circle cx="747.214" cy="91.4911" r="10.5252" stroke="#999999" stroke-width="1.10792"/>
<circle cx="747.212" cy="120.297" r="8.64178" fill="#999999"/>
<circle cx="747.214" cy="120.297" r="13.6828" stroke="#999999" stroke-width="1.4403"/>
<circle cx="930.021" cy="91.4911" r="6.64752" fill="#999999"/>
<circle cx="930.021" cy="91.4911" r="10.5252" stroke="#999999" stroke-width="1.10792"/>
<circle cx="930.021" cy="120.297" r="8.64178" fill="#999999"/>
<circle cx="930.02" cy="120.297" r="13.6828" stroke="#999999" stroke-width="1.4403"/>
</svg>
