<svg width="982" height="291" viewBox="0 0 982 291" fill="none" xmlns="http://www.w3.org/2000/svg">
<rect y="186" width="520" height="4" fill="#565656"/>
<rect x="443" y="186" width="539" height="4" fill="#565656"/>
<rect x="5" width="977" height="5" fill="#565656"/>
<path d="M95.7125 166.895L92 162.745H104.244V127.018L113.662 115.385L127.511 119.817L130.281 129.234L124.187 130.896L120.863 124.802L114.77 125.91L111.446 130.896V162.745H295.582C282.262 175.399 271.773 190.731 264.806 207.731L262.746 212.757L261.717 215.432C257.716 225.835 248.094 233.013 236.983 233.885L211.895 235.852C189.277 237.626 166.537 237.073 144.032 234.2C135.407 233.099 127.743 228.153 123.186 220.748L120.909 217.047C119.156 214.2 117.789 211.132 116.843 207.925L114.89 201.307C111.128 188.557 104.577 176.802 95.7125 166.895Z" fill="black"/>
<path d="M144.032 234.2V234.2C135.407 233.099 127.743 228.153 123.186 220.748L120.909 217.047C119.156 214.2 117.789 211.132 116.843 207.925L114.89 201.307C111.128 188.557 104.577 176.802 95.7125 166.895L92 162.745H104.244M144.032 234.2V234.2C166.537 237.073 189.277 237.626 211.895 235.852L236.983 233.885M144.032 234.2V248.624L137.465 256.201M236.983 233.885V233.885C248.094 233.013 257.716 225.835 261.717 215.432L262.746 212.757L264.806 207.731C271.773 190.731 282.262 175.399 295.582 162.745V162.745H111.446M236.983 233.885V248.624L244.56 256.201M104.244 162.745V127.018L113.662 115.385L127.511 119.817L130.281 129.234L124.187 130.896L120.863 124.802L114.77 125.91L111.446 130.896V162.745M104.244 162.745H111.446" stroke="#999999" stroke-width="3.32376"/>
<path d="M726.84 247.228V193.42H735.604V144.191H920.362V193.42H927.374V247.228H726.84Z" fill="black"/>
<path d="M735.604 193.42H726.84V247.228H927.374V193.42H920.362M735.604 193.42H744.369V221.469H911.247V193.42H920.362M735.604 193.42V144.191H920.362V193.42M773.822 167.404L788.146 170.839L785.281 154.238L816.221 162.825V176.563L823.096 196.598L803.616 202.894L772.103 200.605L792.729 186.294L773.822 167.404Z" stroke="#999999" stroke-width="2.21584"/>
<path d="M630.377 113.949L630.308 114.576L631.868 114.602L639.429 115.582L640.373 115.881L640.612 113.709M630.377 113.949L631.063 113.487L630.795 113.043M630.377 113.949L640.612 113.709M631.218 112.088L630.526 112.598L630.795 113.043M631.218 112.088L630.691 111.102M631.218 112.088L640.777 112.213M630.691 111.102L631.393 110.495L631.125 110.051M630.691 111.102L640.942 110.717M631.553 109.048L630.856 109.606L631.125 110.051M631.553 109.048L631.166 108.126M631.553 109.048L641.107 109.222M631.166 108.126L633.572 106.682L636.139 105.548L638.515 107.031L641.107 109.222M631.166 108.126L641.107 109.222M641.107 109.222L640.383 110.021M640.383 110.021L640.942 110.717M640.383 110.021L631.125 110.051M640.942 110.717L640.224 111.469L640.777 112.213M640.777 112.213L640.278 112.793M640.612 113.709L640.048 113.061L640.278 112.793M630.795 113.043L640.278 112.793" stroke="#999999" stroke-width="0.957253"/>
<path d="M622.537 138.092L622.963 140.874L623.207 143.539L622.498 142.435L621.258 140.393L620.511 137.869L620.23 135.542L620.918 131.515L621.774 129.51L623.509 127.063L626.577 122.713L627.733 120.202L628.08 118.385L628.603 116.293L629.24 115.387L630.199 114.662L640.414 115.934L640.897 116.427L641.557 117.526L641.59 118.115L641.506 120.206L641.599 122.024L641.868 123.567L642.771 126.011L644.345 129.457L645.355 132.255L645.732 134.153L645.686 136.785L643.203 135.388L641.805 131.229L639.082 131.564L638.213 131.028M622.537 138.092L626.063 135.795L627.992 140.012L631.951 137.323L633.492 133.536L637.849 132.112L638.213 131.028M622.537 138.092L623.467 134.532L624.614 134.316L626.592 133.215L628.964 130.302L633.312 130.293L636.059 126.2L637.288 127.898L637.317 130.734L638.213 131.028" stroke="#999999" stroke-width="1.43588"/>
<path d="M636.259 105.422L646.561 1.44923" stroke="#999999" stroke-width="1.90153"/>
<path d="M627.815 135.293L629.272 130.808L633.67 130.83L635.145 128.679L636.138 127.155L637.12 128.231L636.929 129.964L636.946 131.055L637.746 131.279L639.031 132.102L639.936 133.876L639.931 137.661L639.594 140.721L637.879 143.802L634.468 144.802L630.059 143.628L627.773 139.418L627.815 135.293Z" fill="#999999"/>
<path d="M225.942 89.9996L226.057 90.4691L227.186 90.0778L232.883 88.7981L233.64 88.7657L233.242 87.1406M225.942 89.9996L226.315 89.4874L226.005 89.238M225.942 89.9996L233.242 87.1406M226.058 88.4402L225.695 88.9885L226.005 89.238M226.058 88.4402L225.421 87.8689M226.058 88.4402L232.968 86.0211M225.421 87.8689L225.766 87.2484L225.456 86.9989M225.421 87.8689L232.694 84.9015M225.501 86.165L225.147 86.7494L225.456 86.9989M225.501 86.165L224.981 85.6034M225.501 86.165L232.42 83.782M224.981 85.6034L226.333 83.9327L227.882 82.4433L229.981 82.8864L232.42 83.782M224.981 85.6034L232.42 83.782M232.42 83.782L232.11 84.547M232.11 84.547L232.694 84.9015M232.11 84.547L225.456 86.9989M232.694 84.9015L232.375 85.6304L232.968 86.0211M232.968 86.0211L232.762 86.5692M233.242 87.1406L232.667 86.8222L232.762 86.5692M226.005 89.238L232.762 86.5692" stroke="#999999" stroke-width="0.957253"/>
<path d="M226.638 109.427L227.675 111.317L228.55 113.169L227.75 112.561L226.322 111.418L225.122 109.798L224.309 108.198L223.747 105.12L223.836 103.453L224.442 101.237L225.507 97.3017L225.68 95.1924L225.452 93.7936L225.28 92.1516L225.5 91.332L226 90.559L233.682 88.7929L234.159 89.0207L234.923 89.6376L235.101 90.0533L235.59 91.5796L236.133 92.8627L236.733 93.9027L238.024 95.4239L240.061 97.4899L241.522 99.2374L242.291 100.504L242.949 102.41L240.796 102.056L238.698 99.431L236.827 100.387L236.061 100.23M226.638 109.427L228.572 106.848L231.066 109.376L233.209 106.402L233.323 103.273L236.084 101.105L236.061 100.23M226.638 109.427L226.372 106.621L227.141 106.165L228.275 104.854L229.217 102.135L232.343 100.987L233.244 97.3214L234.574 98.2206L235.34 100.253L236.061 100.23" stroke="#999999" stroke-width="1.43588"/>
<path d="M227.935 82.3218L208.053 4.81621" stroke="#999999" stroke-width="1.90153"/>
<path d="M229.702 106.028L229.573 102.419L232.743 101.28L233.239 99.3452L233.553 97.9882L234.542 98.5049L234.86 99.8019L235.158 100.582L235.793 100.533L236.933 100.788L238.05 101.827L239.04 104.551L239.601 106.841L239.176 109.507L236.985 111.123L233.505 111.435L230.754 109.007L229.702 106.028Z" fill="#999999"/>
<path d="M431.86 259.613L431.733 259.942C430.573 262.959 430.703 266.32 432.093 269.238L433.875 272.981C434.553 274.404 434.432 276.079 433.557 277.391C431.807 280.017 433.247 283.58 436.33 284.253L455.796 288.5C457.062 288.776 458.354 288.915 459.649 288.915H491.041L549.454 281.438C552.39 281.063 554.913 279.173 556.099 276.462L557.831 272.502C559.448 268.807 556.741 264.667 552.707 264.667C549.619 264.667 547.115 262.163 547.115 259.074V252.84C547.115 249.886 549.509 247.492 552.462 247.492C556.472 247.492 559.056 243.242 557.21 239.682L555.902 237.159C554.828 235.089 552.804 233.681 550.49 233.395L513.265 228.786C505.233 227.791 497.096 228.048 489.142 229.546L467.076 233.704C466.552 233.803 466.037 233.947 465.537 234.134L452.117 239.167C449.786 240.04 449.59 243.26 451.796 244.411C454.031 245.578 453.792 248.851 451.41 249.68L446.872 251.258C446.348 251.44 445.798 251.533 445.244 251.533H443.624C438.409 251.533 433.732 254.745 431.86 259.613Z" fill="#999999" stroke="#999999" stroke-width="4.04133"/>
<path d="M120.833 245.303L120.902 245.485C121.548 247.166 121.476 249.038 120.702 250.665L119.71 252.751C119.333 253.544 119.4 254.477 119.887 255.208C120.861 256.672 120.059 258.658 118.341 259.033L107.508 261.399C106.802 261.553 106.081 261.631 105.359 261.631H87.8839L55.3668 257.464C53.7303 257.255 52.3242 256.201 51.6635 254.689L50.6977 252.48C49.7984 250.422 51.306 248.118 53.5515 248.118C55.2716 248.118 56.6661 246.723 56.6661 245.003V241.524C56.6661 239.879 55.3327 238.546 53.6879 238.546C51.4554 238.546 50.0167 236.18 51.0435 234.198L51.7734 232.789C52.3713 231.635 53.4997 230.849 54.7898 230.689L75.5077 228.122C79.9815 227.567 84.5142 227.71 88.9442 228.546L101.225 230.862C101.518 230.917 101.805 230.998 102.084 231.102L109.554 233.906C110.852 234.394 110.962 236.187 109.733 236.829C108.488 237.48 108.621 239.303 109.948 239.765L112.474 240.645C112.765 240.746 113.072 240.798 113.381 240.798H114.275C117.183 240.798 119.79 242.589 120.833 245.303Z" fill="#999999" stroke="#999999" stroke-width="4.04133"/>
<path d="M413.537 17H361V71.5579M413.537 17V126.116M413.537 17H422.125H444.1H466.075V71.5579M413.537 126.116H361V71.5579M413.537 126.116H466.075V71.5579M361 71.5579H466.075M434.123 50.2376L435.231 44.698L431.907 41.9282L428.583 39.7124M434.123 50.2376L427.475 59.2118M434.123 50.2376L439.111 47.4678M444.1 44.698L450.188 48.5757M444.1 44.698L439.111 47.4678M444.1 44.698L460.713 55.2233L450.188 48.5757M444.1 44.698L445.301 50.5146M450.188 48.5757L446.503 56.3312M450.188 48.5757L447.972 43.3131M445.756 38.0505L452.957 31.9569L447.695 32.7879M445.756 38.0505L454.619 39.9894M445.756 38.0505L447.972 43.3131M442.432 33.6188V39.7124M442.432 33.6188L437.17 26.9713M442.432 33.6188L447.695 32.7879M442.432 39.7124L434.123 38.0505M442.432 39.7124L440.77 38.0505L430.245 32.7879L423.044 25.8634L434.123 38.0505M434.123 38.0505L428.583 39.7124M428.583 39.7124H419.72M423.044 65.1946L427.475 59.2118M427.475 59.2118L438 53.5614M438 53.5614L439.111 47.4678M438 53.5614V67.9644M438 53.5614L445.301 50.5146M447.418 60.7629L446.503 56.3312M446.503 56.3312L445.301 50.5146M463.483 41.9282L454.619 39.9894M454.619 39.9894L447.972 43.3131M431.907 20.3238L437.17 26.9713M437.17 26.9713H444.1L447.695 32.7879" stroke="#999999" stroke-width="2.21584"/>
<path d="M950.64 6.8089H927.928H910.201L925.158 19.068L921.28 32.604L939.561 40.6005L940.669 64.732L965.043 55.5574L977.23 72.7302V52.2337V35.6148V6.8089H950.64Z" fill="#D9D9D9" fill-opacity="0.2"/>
<path d="M977.23 52.2337V35.6148L973.353 22.8738L961.845 31.1832L963.381 19.068H950.64V6.8089M977.23 52.2337V72.7302L965.043 55.5574L940.669 64.732L939.561 40.6005L921.28 32.604L925.158 19.068L910.201 6.8089H950.64M977.23 52.2337L968.367 40.6005L951.355 47.802V29.5213L937.345 25.1975L940.669 13.4564L927.928 6.8089H950.64M977.23 6.8089H883.057M977.23 6.8089L891.921 46.1401M977.23 6.8089L927.928 84.9173M977.23 6.8089V97.6584" stroke="black" stroke-width="2.21584"/>
</svg>
