<svg width="98" height="92" viewBox="0 0 98 92" fill="none" xmlns="http://www.w3.org/2000/svg">
<path d="M13.5371 1.99997H2L6.60301 29.367M13.5371 1.99997L25.0741 89.7354M13.5371 1.99997H25.0741M25.0741 89.7354H16.7567L14.0942 73.9054M25.0741 89.7354H33.9282M25.0741 1.99997L33.9282 89.7354M25.0741 1.99997H39.0259M33.9282 89.7354H42.5139M39.0259 1.99997L42.5139 89.7354M39.0259 1.99997H50.2947M42.5139 89.7354H50.2947M50.2947 1.99997V89.7354M50.2947 1.99997H65.3197M50.2947 89.7354H58.8804M65.3197 1.99997L58.8804 89.7354M65.3197 1.99997H77.3934M58.8804 89.7354H65.3197M77.3934 1.99997L65.3197 89.7354M77.3934 1.99997H87.8572M65.3197 89.7354H73.3688M87.8572 1.99997H95.3697L91.0178 29.367M87.8572 1.99997L73.3688 89.7354M73.3688 89.7354H81.4179L83.9352 73.9054M14.0942 73.9054H83.9352M14.0942 73.9054L10.2583 51.0996M83.9352 73.9054L87.5619 51.0996M87.5619 51.0996H10.2583M87.5619 51.0996L91.0178 29.367M10.2583 51.0996L6.60301 29.367M6.60301 29.367H91.0178" stroke="#999999" stroke-width="3"/>
</svg>
