<svg width="56" height="179" viewBox="0 0 56 179" fill="none" xmlns="http://www.w3.org/2000/svg">
<path d="M2 43.3636V177H54V43.3636L33.7073 12.8182V7.09091H35.6098V2H17.8537V7.09091H20.3902V12.8182L2 43.3636Z" fill="#999999" stroke="black" stroke-width="3"/>
<path d="M39 154.889C39 154.71 39 154.35 39 153.809C39 151.151 38.5047 149.33 37.5141 148.344C36.5289 147.365 35.2433 146.872 33.6572 146.867C32.1523 146.867 30.9073 147.359 29.9221 148.344C28.9369 149.33 28.4443 150.726 28.4443 152.534C28.4443 152.588 28.4443 152.672 28.4443 152.786C24.1896 152.786 21.9485 152.786 21.7212 152.786C21.4992 152.78 20.7847 152.778 19.5775 152.778C19.5775 151.841 19.5748 150.434 19.5694 148.555C19.2879 148.555 18.7277 148.555 17.8886 148.555C17.8886 149.611 17.8886 151.722 17.8886 154.889C21.4072 154.889 28.4443 154.889 39 154.889ZM30.1413 152.786C30.1359 152.748 30.1332 152.664 30.1332 152.534C30.1332 151.289 30.4851 150.385 31.1888 149.822C31.8925 149.259 32.7153 148.978 33.6572 148.978C34.6857 148.983 35.5518 149.327 36.2555 150.009C36.9592 150.691 37.3111 151.614 37.3111 152.778C35.7196 152.778 33.3297 152.78 30.1413 152.786ZM19.5775 138.422C19.5775 138.563 19.5775 138.844 19.5775 139.266C22.8146 139.683 29.2888 140.522 39 141.784C39 142.135 39 142.845 39 143.911C35.4814 143.451 28.4443 142.531 17.8886 141.15C17.8886 140.382 17.8886 138.85 17.8886 136.554C21.4072 136.089 28.4443 135.163 39 133.778C39 134.129 39 134.833 39 135.889C35.7629 136.311 29.2888 137.155 19.5775 138.422ZM39 130.4C39 129.133 39 126.6 39 122.8C38.7185 122.8 38.1555 122.8 37.3111 122.8C37.3111 123.714 37.3111 125.544 37.3111 128.289C35.2703 128.289 31.1888 128.289 25.0665 128.289C25.0665 127.585 25.0665 126.177 25.0665 124.066C24.785 124.066 24.222 124.066 23.3776 124.066C23.3776 124.77 23.3776 126.177 23.3776 128.289C22.7443 128.289 21.4776 128.289 19.5775 128.289C19.5775 127.374 19.5775 125.544 19.5775 122.8C19.2203 122.8 19.0281 122.8 19.001 122.8C18.9686 122.8 18.5978 122.8 17.8886 122.8C17.8886 124.489 17.8886 127.022 17.8886 130.4C21.4072 130.4 28.4443 130.4 39 130.4ZM16.1997 116.888C16.1997 115.129 16.1997 111.611 16.1997 106.333C15.9182 106.333 15.3553 106.333 14.5108 106.333C14.5108 108.097 14.5081 111.627 14.5027 116.921C14.7842 116.915 15.3499 116.905 16.1997 116.888ZM39 106.316C39 105.965 39 105.266 39 104.222C35.4814 104.227 28.4443 104.232 17.8886 104.238C17.8886 104.59 17.8886 105.288 17.8886 106.333C19.5775 108.087 22.9554 111.6 28.0221 116.872C26.3332 116.872 22.9554 116.878 17.8886 116.888C17.8886 117.24 17.8886 117.944 17.8886 119C21.4072 118.994 28.4443 118.989 39 118.983C39 118.631 39 117.928 39 116.872C37.5872 116.872 34.7615 116.872 30.523 116.872C28.8395 115.113 25.4725 111.6 20.422 106.333C23.5183 106.327 29.711 106.322 39 106.316ZM26.7554 99.9993C26.5335 99.9993 26.0896 99.9993 25.4238 99.9993C24.8013 99.1278 24.2166 98.4836 23.6699 98.0668C23.1232 97.65 22.4059 97.4416 21.5182 97.4416C20.9714 97.447 20.5113 97.6419 20.1378 98.0262C19.7643 98.416 19.5775 99.0899 19.5775 100.048C19.5775 100.313 19.5775 100.446 19.5775 100.446C19.5775 100.446 19.5775 100.579 19.5775 100.844C19.204 100.844 18.6411 100.844 17.8886 100.844C17.8886 100.633 17.8886 100.454 17.8886 100.308C17.8886 100.156 17.8886 99.9479 17.8886 99.6827C17.8886 97.9559 18.2513 96.8028 18.9767 96.2236C19.7075 95.6444 20.4707 95.3548 21.2665 95.3548C22.4628 95.3548 23.4561 95.6769 24.2464 96.3211C25.0367 96.9707 25.5835 97.5688 25.8866 98.1155C25.9137 98.1155 25.957 98.1155 26.0165 98.1155C26.4604 97.0275 27.2101 96.156 28.2657 95.501C29.3213 94.8406 30.6475 94.5104 32.2444 94.5104C33.4515 94.5104 34.6992 94.8352 35.9876 95.4847C37.2759 96.1397 38.28 96.9409 39 97.8882C39 98.4512 39 99.2956 39 100.422C37.9228 99.1982 36.8374 98.259 35.744 97.604C34.6505 96.949 33.484 96.6215 32.2444 96.6215C31.021 96.6215 29.9708 96.8867 29.0939 97.4172C28.217 97.9477 27.4375 98.8084 26.7554 99.9993ZM39 91.1326C39 89.8659 39 87.3325 39 83.5325C38.7185 83.5325 38.1555 83.5325 37.3111 83.5325C37.3111 84.4473 37.3111 86.2769 37.3111 89.0214C35.2703 89.0214 31.1888 89.0214 25.0665 89.0214C25.0665 88.3177 25.0665 86.9103 25.0665 84.7991C24.785 84.7991 24.222 84.7991 23.3776 84.7991C23.3776 85.5029 23.3776 86.9103 23.3776 89.0214C22.7443 89.0214 21.4776 89.0214 19.5775 89.0214C19.5775 88.1066 19.5775 86.2769 19.5775 83.5325C19.2203 83.5325 19.0281 83.5325 19.001 83.5325C18.9686 83.5325 18.5978 83.5325 17.8886 83.5325C17.8886 85.2214 17.8886 87.7547 17.8886 91.1326C21.4072 91.1326 28.4443 91.1326 39 91.1326ZM39 79.7324C39 79.4726 39 79.1207 39 78.6768C39 78.233 39 77.8811 39 77.6213C36.6561 77.6213 33.1375 77.6213 28.4443 77.6213C28.4443 77.578 28.4443 77.4968 28.4443 77.3777C28.4443 75.5913 27.9274 74.1974 26.8934 73.196C25.8595 72.2 24.6307 71.702 23.2071 71.702C21.6264 71.702 20.3462 72.1973 19.3664 73.1879C18.3812 74.1785 17.8886 75.6509 17.8886 77.605C17.8886 78.076 17.8886 78.7851 17.8886 79.7324C21.4072 79.7324 28.4443 79.7324 39 79.7324ZM19.5775 77.6132C19.5992 76.1895 19.9835 75.2016 20.7306 74.6494C21.4776 74.0973 22.3031 73.8212 23.2071 73.8212C23.9757 73.8212 24.7607 74.0973 25.5618 74.6494C26.3575 75.2016 26.7554 76.1056 26.7554 77.3614C26.7554 77.4156 26.7554 77.4995 26.7554 77.6132C25.5591 77.6132 23.1665 77.6132 19.5775 77.6132Z" fill="black"/>
</svg>
