<svg width="149" height="139" viewBox="0 0 149 139" fill="none" xmlns="http://www.w3.org/2000/svg">
<path d="M28.2967 11.0725L26.754 7.37655L25.964 11.3028L25.1904 15.147L21.1873 30.3273L18.1954 39.5794L18.1822 39.6203L18.1719 39.662L15.508 50.4203L15.5008 50.4494L15.495 50.4788L13.6789 59.7294L13.6745 59.7515L13.671 59.7738L12.1597 69.3126L12.1547 69.3445L12.1513 69.3767L11.222 78.2516L8.89856 90.1342L8.88629 90.197L8.88062 90.2606L7.97911 100.376L7.97681 100.402L7.9756 100.427L7.42095 112.311L7.42084 112.313L6.85781 123.9L6.85552 123.947L6.85685 123.994L6.91473 126.045C6.98954 128.695 8.40682 131.125 10.6766 132.495C11.5829 133.043 12.5912 133.399 13.6399 133.544L21.2377 134.591L21.2842 134.597L21.331 134.6L34.7078 135.409L34.7151 135.41L34.7224 135.41L50.1748 136.161L50.2085 136.163L50.2422 136.162L77.5117 135.986L100.062 136.831L100.102 136.833L100.142 136.832L125.24 136.123C127.394 136.062 129.527 135.696 131.578 135.034C134.461 134.104 137.13 132.607 139.427 130.631L140.77 129.475L140.834 129.42L140.89 129.357L142.839 127.146C144.32 125.467 145.438 123.5 146.124 121.368C146.609 119.86 146.871 118.289 146.901 116.706L146.921 115.68C146.962 113.577 146.717 111.479 146.193 109.442L146.127 109.183C145.532 106.872 144.613 104.657 143.395 102.604L143.18 102.241L142.126 102.866L143.18 102.241C142.377 100.887 141.461 99.6021 140.443 98.4009L139.85 97.7002C138.716 96.3626 137.456 95.1381 136.086 94.0438L134.949 93.1354C134.326 92.6376 133.655 92.2018 132.948 91.8343L132.753 91.7334C131.594 91.1314 130.336 90.7402 129.04 90.578C127.462 90.3807 125.859 90.5269 124.343 91.0068L123.269 91.3469C122.475 91.5981 121.73 91.9835 121.067 92.4863L121.807 93.4632L121.067 92.4863L120.805 92.6842C120.03 93.272 119.41 94.0407 118.999 94.9232C118.714 95.5365 118.535 96.194 118.47 96.8674L118.446 97.1155C118.345 98.1608 118.467 99.2156 118.804 100.21L119.217 101.427C119.489 102.231 119.667 103.063 119.747 103.907L120.028 106.863L119.947 110.606C119.922 111.737 119.55 112.833 118.881 113.744C118.479 114.293 117.979 114.762 117.406 115.128L116.757 115.543C116.047 115.997 115.28 116.356 114.476 116.61L112.797 117.141C112.193 117.332 111.566 117.439 110.932 117.456C107.362 117.557 104.319 114.885 103.958 111.331L103.481 106.636L103.478 106.614L103.475 106.591L102.731 101.27L102.722 101.204L102.706 101.14L101.374 95.8569L98.6494 83.2061L95.8777 69.0512L95.8616 68.969L95.8345 68.8897L91.3109 55.6762L83.1739 30.1011L83.1595 30.0558L83.1416 30.0118L74.2114 8.0073L72.7475 4.40031L71.8807 8.1953L70.8531 12.6951L70.8501 12.7077L68.3538 23.1278L32.9025 24.3938L29.9255 14.9877L29.909 14.9357L29.8881 14.8854L28.2967 11.0725Z" fill="#1A1A1A" stroke="black" stroke-width="2.45135"/>
<path d="M28.2967 11.0725L26.754 7.37655L25.964 11.3028L25.1904 15.147L21.1873 30.3273L18.1954 39.5794L18.1822 39.6203L18.1719 39.662L15.508 50.4203L15.5008 50.4494L15.495 50.4788L13.6789 59.7294L13.6745 59.7515L13.671 59.7738L12.1597 69.3126L12.1547 69.3445L12.1513 69.3767L11.222 78.2516L8.89856 90.1342L8.88629 90.197L8.88062 90.2606L7.97911 100.376L7.97681 100.402L7.9756 100.427L7.42095 112.311L7.42084 112.313L6.85781 123.9L6.85552 123.947L6.85685 123.994L6.91473 126.045C6.98954 128.695 8.40682 131.125 10.6766 132.495C11.5829 133.043 12.5912 133.399 13.6399 133.544L21.2377 134.591L21.2842 134.597L21.331 134.6L34.7078 135.409L34.7151 135.41L34.7224 135.41L50.1748 136.161L50.2085 136.163L50.2422 136.162L77.5117 135.986L100.062 136.831L100.102 136.833L100.142 136.832L125.24 136.123C127.394 136.062 129.527 135.696 131.578 135.034C134.461 134.104 137.13 132.607 139.427 130.631L140.77 129.475L140.834 129.42L140.89 129.357L142.839 127.146C144.32 125.467 145.438 123.5 146.124 121.368C146.609 119.86 146.871 118.289 146.901 116.706L146.921 115.68C146.962 113.577 146.717 111.479 146.193 109.442L146.127 109.183C145.532 106.872 144.613 104.657 143.395 102.604L143.18 102.241L142.126 102.866L143.18 102.241C142.377 100.887 141.461 99.6021 140.443 98.4009L139.85 97.7002C138.716 96.3626 137.456 95.1381 136.086 94.0438L134.949 93.1354C134.326 92.6376 133.655 92.2018 132.948 91.8343L132.753 91.7334C131.594 91.1314 130.336 90.7402 129.04 90.578C127.462 90.3807 125.859 90.5269 124.343 91.0068L123.269 91.3469C122.475 91.5981 121.73 91.9835 121.067 92.4863L121.807 93.4632L121.067 92.4863L120.805 92.6842C120.03 93.272 119.41 94.0407 118.999 94.9232C118.714 95.5365 118.535 96.194 118.47 96.8674L118.446 97.1155C118.345 98.1608 118.467 99.2156 118.804 100.21L119.217 101.427C119.489 102.231 119.667 103.063 119.747 103.907L120.028 106.863L119.947 110.606C119.922 111.737 119.55 112.833 118.881 113.744C118.479 114.293 117.979 114.762 117.406 115.128L116.757 115.543C116.047 115.997 115.28 116.356 114.476 116.61L112.797 117.141C112.193 117.332 111.566 117.439 110.932 117.456C107.362 117.557 104.319 114.885 103.958 111.331L103.481 106.636L103.478 106.614L103.475 106.591L102.731 101.27L102.722 101.204L102.706 101.14L101.374 95.8569L98.6494 83.2061L95.8777 69.0512L95.8616 68.969L95.8345 68.8897L91.3109 55.6762L83.1739 30.1011L83.1595 30.0558L83.1416 30.0118L74.2114 8.0073L72.7475 4.40031L71.8807 8.1953L70.8531 12.6951L70.8501 12.7077L68.3538 23.1278L32.9025 24.3938L29.9255 14.9877L29.909 14.9357L29.8881 14.8854L28.2967 11.0725Z" fill="#2B2B2B" stroke="black" stroke-width="2.45135"/>
<path d="M7.43896 41.0576L16.0185 45.7721L14.2597 52.6579M14.2597 52.6579L4.72768 49.2317M14.2597 52.6579L13.4113 57.1986L3.85514 58.6206" stroke="black" stroke-width="2.53768"/>
<path d="M96.749 36.1781L92.2496 37.4395C91.9086 37.5351 91.5825 37.6778 91.2809 37.8636L87.0918 40.4437L89.3108 46.8781M89.3108 46.8781L90.5696 51.2102L101.264 52.0284M89.3108 46.8781L94.1449 44.9657C94.4384 44.8496 94.7451 44.7705 95.0581 44.7301L99.9411 44.1001" stroke="black" stroke-width="2.53768"/>
<path d="M25.7805 44.6486L28.2116 41.9562C28.5254 41.6086 28.9006 41.322 29.3185 41.1106L31.5405 39.9864C31.8055 39.8524 32.0853 39.7498 32.3742 39.6807L35.2432 38.9952C35.498 38.9343 35.7585 38.8999 36.0204 38.8925L39.535 38.7933C40.2138 38.7741 40.8854 38.9369 41.4801 39.2648L43.4189 40.3337C43.7534 40.518 44.0582 40.7517 44.3231 41.0268L46.4728 43.2592L47.8081 44.9205C48.3284 45.5678 48.6227 46.3676 48.6462 47.1978L48.6883 48.6909C48.7088 49.4152 48.5221 50.1302 48.1502 50.752L46.6473 53.2652C46.4545 53.5876 46.2151 53.8796 45.9368 54.1319L42.4806 57.2646C42.1188 57.5925 41.6974 57.8477 41.2392 58.0164L36.6601 59.7021C36.3666 59.8101 36.0609 59.8816 35.7499 59.9148L32.6512 60.2462C31.7675 60.3408 30.8787 60.1231 30.1386 59.6311L27.1413 57.638C26.552 57.2461 26.0836 56.6978 25.7887 56.0544L24.8047 53.9077C24.5916 53.4429 24.4744 52.94 24.46 52.4289L24.3738 49.3763C24.3655 49.0821 24.3914 48.788 24.4508 48.4997L24.8778 46.4304C25.0147 45.7667 25.3264 45.1516 25.7805 44.6486Z" fill="white"/>
<path d="M26.2574 48.8168L26.7428 46.2334C26.8311 45.7632 27.0159 45.3164 27.2854 44.9211C27.5423 44.5444 27.8711 44.2221 28.2528 43.9727L30.1222 42.7515L33.0001 41.1755C33.5287 40.886 34.1185 40.7262 34.721 40.7092L38.0375 40.6156C38.5317 40.6017 39.0238 40.6841 39.4865 40.8583L41.8014 41.7301C42.3048 41.9197 42.7624 42.2139 43.1439 42.5932L44.9925 44.4314C45.365 44.8019 45.6568 45.2455 45.8496 45.7342L46.3942 47.1155C46.7209 47.9439 46.7468 48.8607 46.4673 49.7062L45.7092 52.0004C45.4867 52.6738 45.0804 53.2717 44.5363 53.7265L42.8748 55.1155C42.6441 55.3083 42.3915 55.4731 42.122 55.6065L39.0298 57.1371C38.6332 57.3334 38.2053 57.459 37.7655 57.5084L34.5493 57.8692C34.1031 57.9193 33.6515 57.89 33.2155 57.7827L30.4376 57.0992C29.9449 56.978 29.4814 56.7594 29.0743 56.4565L28.0573 55.6994C27.2051 55.0652 26.6568 54.1037 26.5447 53.0473L26.2132 49.921C26.1742 49.5528 26.1891 49.1808 26.2574 48.8168Z" fill="black"/>
<path d="M78.3583 52.396L75.401 55.178C74.7934 55.7496 73.9985 56.0745 73.1482 56.0987L69.9688 56.1892L66.4399 56.1105C66.1742 56.1046 65.9079 56.0695 65.6452 56.0057L61.5364 55.0087C61.1664 54.9189 60.8074 54.7732 60.4715 54.5765L58.2105 53.2524C57.5691 52.8768 57.0319 52.3271 56.6624 51.6683L55.4904 49.5787C55.3009 49.2409 55.1586 48.88 55.0681 48.5073L54.4097 45.7984C54.2831 45.2775 54.2598 44.7433 54.3413 44.2288L54.709 41.9073C54.8195 41.2099 55.1186 40.5726 55.5729 40.0665L57.8923 37.4835C58.01 37.3524 58.1375 37.2309 58.2736 37.12L61.8828 34.1803C62.2519 33.8796 62.6801 33.6609 63.1431 33.5365L65.172 32.9914C65.7365 32.8398 66.3381 32.8322 66.9268 32.9694L69.6053 33.5933L73.3468 34.1854C74.2413 34.3269 75.0808 34.7921 75.7126 35.4963L78.4562 38.5542C78.9433 39.0971 79.2849 39.7577 79.4431 40.4628L80.1474 43.6015C80.2012 43.8414 80.2333 44.0844 80.2433 44.3271L80.3626 47.2326C80.3842 47.7586 80.3015 48.2756 80.1195 48.7518L79.2235 51.0973C79.033 51.596 78.738 52.0388 78.3583 52.396Z" fill="white"/>
<path d="M78.4485 47.4886L76.3293 50.8812C76.2042 51.0816 76.0596 51.2677 75.8976 51.4369L75.6265 51.7202C75.2924 52.0691 74.8893 52.3412 74.4404 52.5206L72.347 53.3574L68.7329 54.454C68.4088 54.5524 68.0696 54.603 67.7249 54.6045L64.2427 54.6194C63.5379 54.6224 62.8314 54.4199 62.2047 54.0352L60.4157 52.937C59.6583 52.472 59.0586 51.7664 58.7159 50.9368L57.2383 47.3604C57.1271 47.0911 57.0443 46.8122 56.9916 46.5288L56.5633 44.2254C56.4049 43.3734 56.5236 42.5128 56.9009 41.7795L58.2313 39.1933C58.5421 38.5893 59.015 38.0974 59.5986 37.7714L61.631 36.6359C61.8887 36.4919 62.165 36.382 62.4536 36.3086L65.8878 35.4354C66.3225 35.3248 66.7793 35.2986 67.2357 35.3581L71.2647 35.8834L74.0705 36.5328C74.709 36.6805 75.312 36.9928 75.8213 37.4395L77.6046 39.0032C78.534 39.8182 79.0695 41.007 79.0507 42.2136L78.9982 45.5867C78.9875 46.2729 78.7977 46.9296 78.4485 47.4886Z" fill="black"/>
</svg>
