<svg width="186" height="165" viewBox="0 0 186 165" fill="none" xmlns="http://www.w3.org/2000/svg">
<path d="M12.7593 106.184L14.5179 109.144C15.9225 111.508 19.4664 111.078 20.2654 108.447V108.447M20.2654 108.447L14.4259 96.6984M20.2654 108.447L22.3681 102.917C22.8224 101.722 22.9209 100.422 22.6518 99.172L21.5441 94.029" stroke="black" stroke-width="3"/>
<path d="M19.0233 142.574L24.1715 158.617C24.3109 159.052 24.495 159.471 24.7206 159.868L24.9901 160.341C25.9883 162.096 27.7904 163.242 29.8026 163.403L31.7094 158.999C31.9848 158.363 32.1586 157.687 32.2243 156.997L32.7199 151.797L34.2659 131.574L40.3355 131.304C40.7559 131.286 41.1735 131.227 41.5826 131.129L50.5281 128.987L46.0802 142.967C45.8711 143.624 45.766 144.31 45.7688 145L45.7955 151.638L45.9923 154.703C46.1749 157.547 48.7646 159.617 51.5791 159.169C52.6927 158.992 53.7095 158.431 54.4535 157.584L55.202 156.731C55.5031 156.388 55.7679 156.015 55.9923 155.618L58.7518 150.728L70.1866 132.774L78.9715 120.619L88.54 108.3C88.9679 107.749 89.4801 107.269 90.0578 106.878L97.2313 102.025C98.4522 101.199 100.123 101.684 100.712 103.036C100.791 103.218 100.847 103.409 100.878 103.606L102.381 113.052L103.778 121.83C103.88 122.469 103.887 123.119 103.8 123.76L102.746 131.526C102.684 131.986 102.67 132.451 102.705 132.914L103.226 139.828C103.29 140.669 104.235 141.13 104.937 140.663L110.052 137.256C110.143 137.196 110.238 137.143 110.337 137.097L111.031 136.781C111.91 136.381 112.93 136.928 113.081 137.882C113.118 138.112 113.099 138.348 113.026 138.57L111.83 142.19C111.571 142.974 112.234 143.755 113.05 143.625L116.728 143.04C117.466 142.922 118.18 142.68 118.838 142.324L120.174 141.601C121.278 141.003 122.189 140.104 122.802 139.007L126.808 131.831L137.974 109.693L146.817 87.9249L151.112 72.844C151.304 72.1711 151.601 71.533 151.992 70.9532L157.506 62.7893L162.062 54.1787C162.28 53.7676 162.453 53.3347 162.58 52.8872L165.694 41.8934L168.105 33.6511C168.38 32.7109 168.442 31.7213 168.288 30.7539L166.427 19.0552C166.353 18.5928 166.231 18.1396 166.062 17.7031L163.711 11.6404C163.215 10.362 162.335 9.26905 161.191 8.5128L155.799 4.94749C154.957 4.39088 153.999 4.03421 152.998 3.90476L146.143 3.01815C145.515 2.93698 144.879 2.94627 144.254 3.04571L141.061 3.55385C139.483 3.80489 138.05 4.61821 137.025 5.84366L136.94 5.94544C135.872 7.22234 135.325 8.85481 135.407 10.5173L135.578 13.9672C135.617 14.765 135.801 15.5491 136.12 16.2814L137.807 20.1573C138.028 20.6653 138.312 21.1436 138.653 21.5808L141.674 25.4621C141.978 25.8526 142.238 26.2761 142.447 26.7245L144.88 31.9274C145.054 32.2991 145.192 32.6861 145.295 33.0834L147.776 42.7408C148.098 43.9965 148.045 45.3194 147.622 46.545L144.387 55.9221C144.152 56.6034 143.338 56.8799 142.737 56.4824L136.383 52.2818C135.794 51.892 135.146 51.5992 134.464 51.4145L124.393 48.6874C124.05 48.5943 123.699 48.5291 123.345 48.4925L113.035 47.4261C112.462 47.3668 111.883 47.3826 111.314 47.4732L97.8451 49.6164L86.6792 52.8517C86.281 52.9671 85.8946 53.1196 85.5249 53.3073L75.5036 58.3957C75.2089 58.5453 74.9259 58.7168 74.6569 58.9087L62.5824 67.5212L46.5004 81.2214L49.0011 71.9874L34.0211 85.128L25.9858 94.0986C25.7247 94.3901 25.4899 94.7042 25.2843 95.0373L19.689 104.1C19.4175 104.539 19.1985 105.009 19.0364 105.5L16.969 111.757C16.7255 112.494 16.6136 113.268 16.6383 114.044L17.1992 131.601L18.7891 141.592C18.842 141.925 18.9203 142.253 19.0233 142.574Z" fill="#1A1A1A" stroke="black" stroke-width="3"/>
<path d="M19.0233 142.574L24.1715 158.617C24.3109 159.052 24.495 159.471 24.7206 159.868L24.9901 160.341C25.9883 162.096 27.7904 163.242 29.8026 163.403L31.7094 158.999C31.9848 158.363 32.1586 157.687 32.2243 156.997L32.7199 151.797L34.2659 131.574L40.3355 131.304C40.7559 131.286 41.1735 131.227 41.5826 131.129L50.5281 128.987L46.0802 142.967C45.8711 143.624 45.766 144.31 45.7688 145L45.7955 151.638L45.9923 154.703C46.1749 157.547 48.7646 159.617 51.5791 159.169C52.6927 158.992 53.7095 158.431 54.4535 157.584L55.202 156.731C55.5031 156.388 55.7679 156.015 55.9923 155.618L58.7518 150.728L70.1866 132.774L78.9715 120.619L88.54 108.3C88.9679 107.749 89.4801 107.269 90.0578 106.878L97.2313 102.025C98.4522 101.199 100.123 101.684 100.712 103.036C100.791 103.218 100.847 103.409 100.878 103.606L102.381 113.052L103.778 121.83C103.88 122.469 103.887 123.119 103.8 123.76L102.746 131.526C102.684 131.986 102.67 132.451 102.705 132.914L103.226 139.828C103.29 140.669 104.235 141.13 104.937 140.663L110.052 137.256C110.143 137.196 110.238 137.143 110.337 137.097L111.031 136.781C111.91 136.381 112.93 136.928 113.081 137.882C113.118 138.112 113.099 138.348 113.026 138.57L111.83 142.19C111.571 142.974 112.234 143.755 113.05 143.625L116.728 143.04C117.466 142.922 118.18 142.68 118.838 142.324L120.174 141.601C121.278 141.003 122.189 140.104 122.802 139.007L126.808 131.831L137.974 109.693L146.817 87.9249L151.112 72.844C151.304 72.1711 151.601 71.533 151.992 70.9532L157.506 62.7893L162.062 54.1787C162.28 53.7676 162.453 53.3347 162.58 52.8872L165.694 41.8934L168.105 33.6511C168.38 32.7109 168.442 31.7213 168.288 30.7539L166.427 19.0552C166.353 18.5928 166.231 18.1396 166.062 17.7031L163.711 11.6404C163.215 10.362 162.335 9.26905 161.191 8.5128L155.799 4.94749C154.957 4.39088 153.999 4.03421 152.998 3.90476L146.143 3.01815C145.515 2.93698 144.879 2.94627 144.254 3.04571L141.061 3.55385C139.483 3.80489 138.05 4.61821 137.025 5.84366L136.94 5.94544C135.872 7.22234 135.325 8.85481 135.407 10.5173L135.578 13.9672C135.617 14.765 135.801 15.5491 136.12 16.2814L137.807 20.1573C138.028 20.6653 138.312 21.1436 138.653 21.5808L141.674 25.4621C141.978 25.8526 142.238 26.2761 142.447 26.7245L144.88 31.9274C145.054 32.2991 145.192 32.6861 145.295 33.0834L147.776 42.7408C148.098 43.9965 148.045 45.3194 147.622 46.545L144.387 55.9221C144.152 56.6034 143.338 56.8799 142.737 56.4824L136.383 52.2818C135.794 51.892 135.146 51.5992 134.464 51.4145L124.393 48.6874C124.05 48.5943 123.699 48.5291 123.345 48.4925L113.035 47.4261C112.462 47.3668 111.883 47.3826 111.314 47.4732L97.8451 49.6164L86.6792 52.8517C86.281 52.9671 85.8946 53.1196 85.5249 53.3073L75.5036 58.3957C75.2089 58.5453 74.9259 58.7168 74.6569 58.9087L62.5824 67.5212L46.5004 81.2214L49.0011 71.9874L34.0211 85.128L25.9858 94.0986C25.7247 94.3901 25.4899 94.7042 25.2843 95.0373L19.689 104.1C19.4175 104.539 19.1985 105.009 19.0364 105.5L16.969 111.757C16.7255 112.494 16.6136 113.268 16.6383 114.044L17.1992 131.601L18.7891 141.592C18.842 141.925 18.9203 142.253 19.0233 142.574Z" fill="#2B2B2B" stroke="black" stroke-width="3"/>
<path d="M57.5833 99.4536L53.5005 103.538C52.8937 104.145 52.4107 104.865 52.0787 105.656L50.7203 108.894C50.2437 110.03 50.0937 111.277 50.2873 112.494L50.4909 113.773C50.6326 114.664 50.9857 115.508 51.5205 116.234L51.5562 116.282C51.9978 116.882 52.5596 117.383 53.2056 117.754C54.2679 118.363 55.5067 118.591 56.7162 118.398L62.7862 117.432C63.427 117.33 64.0494 117.135 64.6332 116.852L68.4734 114.99C69.2501 114.613 69.9456 114.088 70.5207 113.445L75.3846 108.001C75.8273 107.506 76.1928 106.946 76.4689 106.342L77.8723 103.27C78.4137 102.086 78.5933 100.767 78.3885 99.4808L78.3062 98.9636C78.0626 97.4323 77.253 96.0483 76.0377 95.0854C74.91 94.192 73.5064 93.7194 72.0681 93.7488L69.6678 93.7978C69.061 93.8102 68.4588 93.9061 67.8781 94.0826L64.3659 95.1505C63.7596 95.3349 63.183 95.6053 62.6536 95.9536L58.626 98.6038C58.2504 98.8509 57.9011 99.1357 57.5833 99.4536Z" fill="white"/>
<path d="M28.1151 98.7673L24.5396 102.507C24.0548 103.014 23.6536 103.596 23.3513 104.229L22.3126 106.404C21.7349 107.614 21.5384 108.971 21.7491 110.295L21.9881 111.797C22.0886 112.429 22.339 113.027 22.7182 113.542C23.3234 114.364 24.2195 114.924 25.2235 115.107L27.0461 115.44C27.7821 115.574 28.5354 115.583 29.2742 115.465L34.2941 114.666C35.1009 114.538 35.8769 114.261 36.5829 113.85L40.1094 111.798C40.6766 111.468 41.1915 111.055 41.6372 110.573L45.5624 106.332C46.1062 105.744 46.5389 105.063 46.8393 104.321L47.6893 102.221C48.1411 101.105 48.2798 99.8871 48.0906 98.6982L47.6363 95.843C47.4989 94.9797 47.1153 94.1743 46.5315 93.5235C45.5756 92.4582 44.1736 91.9057 42.7479 92.0326L40.4394 92.2381C39.8377 92.2917 39.2461 92.4274 38.6812 92.6415L35.0562 94.0154C34.5478 94.208 34.0651 94.4626 33.619 94.7734L29.1158 97.9104C28.7545 98.162 28.4193 98.4491 28.1151 98.7673Z" fill="white"/>
<path d="M28.7299 99.5944L25.7555 102.65C25.2658 103.154 24.8593 103.732 24.5512 104.363L23.8416 105.816C23.2448 107.039 23.0393 108.415 23.2531 109.759L23.4046 110.711C23.4921 111.261 23.7121 111.781 24.0456 112.227C24.568 112.925 25.3368 113.398 26.1955 113.55L27.6888 113.814C28.4129 113.941 29.1531 113.948 29.8792 113.832L34.0071 113.175C34.8001 113.049 35.5636 112.78 36.2602 112.38L39.1214 110.738C39.6852 110.415 40.1983 110.01 40.644 109.537L43.8849 106.098C44.4352 105.514 44.8746 104.835 45.1818 104.094L45.7548 102.711C46.2229 101.582 46.369 100.345 46.1769 99.1377L45.8372 97.0032C45.7171 96.2479 45.3783 95.5444 44.8628 94.9795C44.038 94.0758 42.838 93.6098 41.6195 93.7198L39.6591 93.8968C39.0683 93.9502 38.4874 94.0827 37.9319 94.2909L34.9439 95.4109C34.4423 95.5989 33.9653 95.8471 33.5235 96.1502L29.729 98.7528C29.369 98.9997 29.0343 99.2816 28.7299 99.5944Z" fill="black"/>
<path d="M57.5524 101.446L54.1714 104.876C53.6782 105.376 53.2679 105.952 52.9558 106.581L52.0631 108.38C51.4522 109.612 51.24 111.003 51.456 112.361L51.6417 113.528C51.7375 114.129 51.9799 114.698 52.3475 115.184C52.9157 115.934 53.7481 116.441 54.6759 116.601L56.4516 116.907C57.1672 117.03 57.8981 117.035 58.6152 116.921L63.3935 116.161C64.1769 116.036 64.9314 115.771 65.6211 115.38L68.9623 113.482C69.5236 113.164 70.0353 112.764 70.481 112.298L74.1841 108.418C74.7389 107.837 75.1832 107.16 75.4953 106.42L76.2209 104.699C76.701 103.56 76.8525 102.309 76.6583 101.088L76.273 98.6673C76.141 97.8379 75.7664 97.0662 75.1965 96.4494C74.2997 95.4789 73.0027 94.9804 71.6868 95.1004L69.4054 95.3085C68.8224 95.3617 68.249 95.492 67.7003 95.696L64.2491 96.9793C63.7524 97.164 63.2796 97.4078 62.8409 97.7053L58.5501 100.616C58.1911 100.859 57.857 101.137 57.5524 101.446Z" fill="black"/>
</svg>
