<svg width="514" height="526" viewBox="0 0 514 526" fill="none" xmlns="http://www.w3.org/2000/svg">
<path d="M113.47 105L94 138.917H125.302H176.169C203.958 138.917 231.71 140.909 259.214 144.876L307.9 151.9L250.512 138.917L307.9 111.653H230.948L279.206 84.3889H210.08L250.512 40.247L187.907 63.6162L240.078 0L197.476 23.0631C176.463 34.4393 157.495 49.2428 141.355 66.8636C130.686 78.5116 121.334 91.3011 113.47 105Z" fill="#8F01B4"/>
<path d="M74.4346 101.532L77.1316 88.13L82.6287 101.301L93.8832 136.861L232.158 132.958L235.718 77.5032L266.566 153.513L294.688 241.901L310.328 287.588L319.91 336.521L329.347 380.333L333.965 398.654L336.534 417.033L340.792 458.94L376.331 450.862L376.331 428.13L390.555 423.628L387.69 409.219L407.534 407.773L389.357 386.71L406.522 371.924L390.555 357.532L402.842 350.501L400.624 334.444L412.766 338.945L427.706 319.183L440.364 336.116L464.388 333.355L463.36 351.868L495.233 365.869L486.848 385.033L511.073 407.773L492.188 428.96L505.238 450.069L463.36 488.378L443.546 502.55L411.867 510.887L329.095 516.675L251.107 513.751L156.818 514.362L103.44 511.768L57.2331 508.972L26.3608 504.718L11.761 495.905L11.2117 476.444L13.1569 436.411L15.0732 395.354L18.1873 360.414L26.2492 319.183L29.4789 288.34L34.6993 255.39L40.9728 223.435L50.1746 186.273L60.5452 154.203L74.4346 101.532Z" fill="#9001B4"/>
<path d="M70.8399 215.912L82.4721 205.8C82.6802 205.619 82.9169 205.474 83.1727 205.372L93.836 201.087C93.9823 201.028 94.1339 200.983 94.2888 200.953L106.61 198.571C106.742 198.546 106.876 198.531 107.01 198.527L123.348 198.066C123.706 198.056 124.062 198.124 124.391 198.265L135.109 202.852C135.32 202.942 135.518 203.062 135.697 203.208L144.177 210.11L150.787 216.572C151.246 217.021 151.513 217.63 151.531 218.271L151.775 226.912C151.791 227.48 151.611 228.036 151.265 228.486L143.78 238.255C143.631 238.45 143.453 238.621 143.254 238.764L128.532 249.267C128.307 249.427 128.058 249.548 127.794 249.626L108.646 255.261C108.49 255.307 108.33 255.338 108.169 255.352L92.0773 256.8C91.6081 256.842 91.1366 256.749 90.7183 256.533L74.6509 248.213C74.2318 247.996 73.8835 247.663 73.6472 247.255L68.3317 238.065C68.1258 237.709 68.0119 237.308 68.0003 236.897L67.7017 226.317C67.6949 226.076 67.7234 225.835 67.7864 225.602L70.0748 217.134C70.2029 216.66 70.4692 216.235 70.8399 215.912Z" fill="#BABABA"/>
<path d="M73.9839 226.139L76.2952 217.331C76.3979 216.94 76.5951 216.579 76.8695 216.282L78.9226 214.056C79.1301 213.831 79.3777 213.646 79.6526 213.512L87.7298 209.555L100.078 204.466C100.355 204.352 100.651 204.289 100.951 204.28L117.338 203.818C117.581 203.811 117.824 203.84 118.059 203.904L130.277 207.24C130.57 207.32 130.847 207.453 131.092 207.634L140.52 214.575C140.823 214.798 141.071 215.087 141.245 215.42L144.971 222.538C145.324 223.213 145.347 224.013 145.032 224.707L140.435 234.842C140.234 235.286 139.906 235.661 139.492 235.919L130.466 241.552C130.325 241.639 130.177 241.713 130.022 241.771L116.365 246.87C116.158 246.947 115.942 246.996 115.722 247.016L100.635 248.381C100.417 248.401 100.199 248.391 99.9838 248.354L86.2875 245.948C86.0209 245.901 85.7638 245.81 85.5264 245.68L76.7788 240.885C76.0888 240.507 75.6199 239.822 75.516 239.042L73.9245 227.094C73.8821 226.775 73.9022 226.451 73.9839 226.139Z" fill="black"/>
<path d="M254.236 235.19L240.767 243.644C240.379 243.888 239.922 244.005 239.451 243.981L224.847 243.224L211.598 242.059C211.477 242.048 211.356 242.028 211.236 241.999L194.185 237.862C194.016 237.821 193.85 237.761 193.689 237.685L181.321 231.782C180.959 231.609 180.636 231.352 180.379 231.033L173.544 222.547C173.368 222.33 173.227 222.087 173.124 221.828L169.526 212.751C169.349 212.306 169.294 211.827 169.367 211.37L170.694 202.991C170.788 202.393 171.096 201.868 171.557 201.516L181.025 194.288C181.12 194.215 181.222 194.15 181.328 194.093L195.167 186.758C195.407 186.63 195.67 186.548 195.944 186.515L207.218 185.147C207.493 185.114 207.774 185.13 208.051 185.195L219.974 188.008L236.967 191.131C237.394 191.209 237.801 191.401 238.148 191.687L253.104 204.026C253.478 204.335 253.768 204.742 253.938 205.199L257.81 215.621C257.884 215.82 257.934 216.025 257.96 216.233L259.054 225.14C259.114 225.626 259.036 226.109 258.831 226.53L255.052 234.277C254.868 234.656 254.586 234.97 254.236 235.19Z" fill="#BABABA"/>
<path d="M253.746 222.68L245.529 231.799C245.411 231.93 245.278 232.046 245.132 232.145L242.383 234.013C242.144 234.175 241.875 234.289 241.589 234.349L232.703 236.194L219.097 238.092C218.938 238.114 218.776 238.12 218.614 238.109L201.956 236.971C201.644 236.949 201.333 236.867 201.042 236.727L188.409 230.653C187.956 230.435 187.567 230.088 187.291 229.655L179.665 217.689C179.54 217.493 179.441 217.283 179.369 217.065L176.697 208.924C176.442 208.147 176.556 207.319 177.005 206.697L183.33 197.927C183.606 197.544 183.993 197.262 184.442 197.118L194.582 193.859C194.73 193.812 194.883 193.78 195.039 193.763L209.803 192.213C210.009 192.192 210.218 192.197 210.426 192.231L226.349 194.78L238.968 197.66C239.261 197.726 239.544 197.847 239.802 198.015L252.564 206.306C253.304 206.786 253.777 207.609 253.813 208.48L254.337 220.984C254.363 221.623 254.152 222.23 253.746 222.68Z" fill="black"/>
</svg>
