<svg width="552" height="560" viewBox="0 0 552 560" fill="none" xmlns="http://www.w3.org/2000/svg">
<path d="M13.8018 360.03L22.642 374.972C26.2453 381.062 35.3369 379.955 37.3867 373.177L39.0503 367.675M39.0503 367.675L19.4078 327.989M39.0503 367.675L47.6107 345.066C48.168 343.595 48.2889 341.992 47.9587 340.453L43.3517 318.971" stroke="black" stroke-width="3"/>
<path d="M10.7933 488.381L2 525.061C2.17113 525.596 4.02922 535.929 11.0573 551.345L19.5866 556.987C20.916 559.333 34.4931 556.772 37.1732 556.987L44.6136 551.345L47.9957 546.798C52.0541 533.912 51.9735 531.344 52.0541 530.495L57.46 512.143L86.151 445.797L107.917 444.826C108.434 444.803 108.946 444.731 109.447 444.61L140.853 437.057L153.898 482.362C154.868 484.984 157.571 493.644 157.574 494.494L160.956 514.193L164.338 533.912C164.644 538.705 167.043 542.722 173.131 548.156L181.924 549.515C183.793 549.216 190.822 548.226 192.071 546.798L200.187 541.438C203.57 533.912 203.295 526.91 203.57 526.42L202.217 506.042L206.979 449.849L236.528 408.791L270.095 365.392C270.619 364.714 271.248 364.124 271.957 363.641L297.95 345.98C302.057 343.19 307.678 344.83 309.657 349.396C309.924 350.011 310.112 350.658 310.217 351.321L315.273 383.23L309.657 411.623C309.782 412.411 306.383 424.529 306.383 431.322L305.03 444.228C305.03 445.587 307.016 455.207 307.06 455.776L311.118 472.078C311.195 473.113 323.109 474.692 323.97 474.116L336.821 461.889C337.127 461.685 347.986 446.419 348.32 446.266L368.504 393.962C371.462 392.609 380.953 366.285 381.464 369.509C381.587 370.287 386.199 381.056 375.377 439.473L369.965 459.851C369.647 460.819 370.317 480.388 371.318 480.229L375.377 489.739C380.788 500.607 386.744 501.045 387.552 500.607L403.109 498.57C414.608 493.815 419.269 484.616 420.02 483.266L424.754 452.379L434.997 371.885L440.312 355.923L469.024 331.47L464.742 298.351L500.699 283.242L479.809 245.23C480.044 244.401 480.408 243.615 480.888 242.9L509.305 233.655L500.699 213.444L522.157 201.729L516.723 183.032C516.991 182.525 517.203 181.991 517.359 181.44L535.009 165.51L528.241 142.859L547.184 131.086L537.241 111.953C537.578 110.794 537.655 109.575 537.467 108.384L549.89 88.6161L530.469 64.2201C530.378 63.6506 530.228 63.0922 530.021 62.5545L535.009 51.1151L519.943 36.4484C519.334 34.8736 518.254 33.5272 516.851 32.5956L515.393 2.02477C514.361 1.33912 490.013 15.1168 488.786 14.9573L478.191 2.02477C477.421 1.92478 458.902 11.189 458.137 11.3115L445.047 3.38308C443.112 3.69234 436.459 15.4964 435.201 17.006H415.285C413.975 18.579 425.988 29.2747 426.088 31.3228L405.815 43.4599L427.064 51.1151C427.112 52.0978 416.247 67.0114 416.638 67.9136L435.147 71.0774C435.419 71.7033 427.329 81.6395 427.746 82.1782L448.422 88.6161C448.795 89.0973 444.79 102.683 445.047 103.236L458.786 110.394C458.998 110.851 436.059 123.124 436.184 123.614L469.024 149.854C469.42 151.4 469.354 153.03 468.836 154.539L448.422 170.483L455.578 193.134C455.29 193.974 454.292 194.315 453.553 193.824L427.746 176.688C427.022 176.208 426.228 175.847 425.39 175.62L416.638 142.859L388.212 165.51C387.79 165.394 387.36 165.314 386.926 165.269L378.082 114.104L349.263 161.357C348.56 161.283 326.021 161.304 325.323 161.415L297.95 137.199L286.091 175.62L261.176 180.248C260.688 180.391 227.697 161.184 227.244 161.415L223.917 199.086C223.556 199.271 223.21 199.481 222.88 199.718L182.601 193.134L169.749 242.9L156.897 235.014L145.398 260.147L127.305 275.707L135.716 244.515L110.522 266.71L87.9038 272.373L85.3275 288.904L54.7599 286.638L57.4601 320.146C57.1398 320.506 56.8519 320.892 56.5996 321.303L36.2449 354.41C35.9118 354.952 35.6432 355.531 35.4443 356.135L27.182 381.248C26.8833 382.155 26.746 383.109 26.7764 384.065L28.743 445.887L18.2338 470.04C18.2988 470.451 13.4989 482.267 10.7933 488.381Z" fill="#393939" stroke="black" stroke-width="3"/>
<path d="M181.903 325.457L160.682 340.314C159.738 340.975 158.912 341.845 158.253 342.872L146.59 361.048C145.643 362.523 145.07 364.275 144.932 366.11L143.937 379.491C143.82 381.066 144.029 382.647 144.546 384.107L146.515 389.665C146.964 390.934 147.637 392.081 148.488 393.031L152.711 397.743C154.112 399.306 155.93 400.264 157.866 400.457L185.269 403.198C186.099 403.281 186.936 403.221 187.752 403.021L207.468 398.184C208.554 397.919 209.583 397.409 210.5 396.682L236.032 376.464C236.737 375.904 237.367 375.226 237.898 374.449L249.493 357.516C250.536 355.993 251.167 354.146 251.313 352.207L252.303 338.887C252.486 336.419 251.866 333.963 250.566 332.001L244.483 322.827C243.277 321.008 241.563 319.735 239.637 319.226L224.73 315.292C223.97 315.091 223.19 315.013 222.411 315.06L205.318 316.087C204.504 316.135 203.702 316.319 202.934 316.634L183.467 324.6C182.922 324.822 182.398 325.111 181.903 325.457Z" fill="#A5A5A5"/>
<path d="M68.6857 339.113L52.283 352.89C51.6133 353.452 51.0594 354.095 50.6419 354.798L43.4758 366.849C42.678 368.191 42.4066 369.695 42.6975 371.163L44.6113 380.82C44.8407 381.976 45.412 383.073 46.2776 384.018L48.5639 386.51C49.9451 388.016 51.9903 389.041 54.2817 389.378L66.2119 391.126C67.2282 391.275 68.2688 391.284 69.2892 391.154L93.9229 388.007C95.037 387.865 96.1088 387.558 97.0839 387.102L115.067 378.698C115.852 378.331 116.563 377.874 117.178 377.34L135.64 361.323C136.391 360.671 136.988 359.915 137.404 359.092L143.377 347.245C144.002 346.007 144.192 344.657 143.932 343.339L141.141 329.26C140.866 327.866 140.094 326.565 138.919 325.513L134.635 321.681C132.713 319.959 129.892 319.067 127.022 319.272L112.077 320.341C111.246 320.399 110.429 320.55 109.649 320.787L92.0303 326.149C91.3281 326.362 90.6614 326.645 90.0453 326.989L70.0678 338.163C69.5688 338.442 69.1059 338.76 68.6857 339.113Z" fill="#A5A5A5"/>
<path d="M71.9385 342.052L57.8909 353.848C57.2192 354.412 56.6616 355.061 56.2391 355.768L50.2678 365.765C49.4491 367.134 49.1672 368.679 49.4605 370.184L50.9639 377.906C51.1955 379.095 51.7775 380.22 52.66 381.184L54.1331 382.793C55.5153 384.304 57.5495 385.326 59.8218 385.655L69.5423 387.057C70.5354 387.2 71.5508 387.208 72.5468 387.078L93.5593 384.346C94.6473 384.203 95.6945 383.902 96.6499 383.453L111.961 376.274C112.734 375.912 113.438 375.458 114.049 374.928L129.834 361.238C130.589 360.582 131.191 359.821 131.613 358.99L136.588 349.179C137.231 347.913 137.431 346.526 137.168 345.172L134.923 333.641C134.645 332.21 133.858 330.876 132.663 329.806L129.635 327.095C127.723 325.382 124.94 324.499 122.115 324.707L109.824 325.615C109.014 325.674 108.217 325.823 107.455 326.056L92.4118 330.664C91.7239 330.875 91.0697 331.153 90.4637 331.493L73.3088 341.109C72.8151 341.386 72.356 341.702 71.9385 342.052Z" fill="black"/>
<path d="M180.592 333.494L162.929 346.004C162.163 346.548 161.476 347.229 160.895 348.022L151.758 360.489C150.62 362.042 149.928 363.967 149.779 365.998L148.926 377.539C148.808 379.144 149.032 380.759 149.578 382.242L150.734 385.371C151.58 387.662 153.145 389.494 155.111 390.497L164.781 395.436C165.632 395.87 166.537 396.139 167.463 396.231L189.472 398.448C190.483 398.549 191.501 398.439 192.479 398.124L210.119 392.416C210.914 392.159 211.673 391.768 212.371 391.257L232.374 376.572C233.242 375.935 234.003 375.12 234.618 374.166L242.689 361.668C243.635 360.201 244.209 358.456 244.343 356.63L245.603 339.573C245.746 337.643 245.393 335.706 244.588 334.007L242.113 328.788C240.846 326.113 238.579 324.273 235.98 323.808L222.95 321.471C222.21 321.338 221.458 321.321 220.713 321.418L204.16 323.567C203.486 323.655 202.823 323.836 202.188 324.107L182.087 332.658C181.566 332.879 181.065 333.159 180.592 333.494Z" fill="black"/>
</svg>
