<svg width="511" height="436" viewBox="0 0 511 436" fill="none" xmlns="http://www.w3.org/2000/svg">
<path d="M77.5438 32.1704L80.3587 18.1825L86.0961 31.929L97.8426 69.0435L242.162 64.9699L245.878 7.09113L278.074 86.4238L307.425 178.675L323.75 226.36L333.75 277.432L343.6 323.159L348.419 342.281L351.101 361.463L355.235 402.157C355.41 403.874 356.88 405.165 358.606 405.117L386.086 404.341C386.392 404.332 386.695 404.281 386.987 404.189L400.979 399.76C401.253 399.673 401.516 399.551 401.759 399.396L411.383 393.245C411.726 393.026 412.025 392.745 412.266 392.417L418.499 383.919C418.899 383.373 419.121 382.718 419.136 382.042L419.579 361.67L418.094 346.047C418.07 345.793 418.016 345.543 417.934 345.301L413.616 332.558C413.466 332.116 413.412 331.648 413.457 331.184L414.162 323.867C414.198 323.495 414.297 323.132 414.455 322.794L416.898 317.543C417.124 317.055 417.467 316.631 417.895 316.307L424.122 311.588C424.422 311.361 424.759 311.186 425.117 311.073L438.733 306.763C439.186 306.62 439.665 306.576 440.136 306.635L452.793 308.218C453.18 308.267 453.556 308.384 453.902 308.563L462.865 313.217C463.055 313.315 463.235 313.433 463.403 313.566L477.13 324.532C477.296 324.665 477.45 324.814 477.587 324.977L490.482 340.194C490.601 340.335 490.708 340.485 490.802 340.644L501.655 358.942C501.814 359.21 501.934 359.5 502.012 359.802L507.792 382.279C507.866 382.568 507.901 382.865 507.895 383.164L507.478 404.71C507.472 405.031 507.419 405.35 507.32 405.655L501.778 422.894C501.639 423.326 501.412 423.725 501.112 424.065L487.053 440.007L470.845 453.953C470.513 454.24 470.126 454.457 469.708 454.591L445.343 462.45C445.046 462.546 444.737 462.599 444.425 462.608L343.337 465.461L261.94 462.409L163.528 463.047L107.818 460.34L59.5903 457.422L28.0405 453.075C27.5971 453.014 27.1708 452.863 26.7876 452.632L13.6701 444.713C12.7105 444.134 12.1112 443.106 12.0796 441.985L11.557 423.472L13.5873 381.689L15.5874 338.837L18.8376 302.369L24.8599 257.5L29.8599 223L36.0714 192.754L42.6192 159.403L52.2233 120.616L63.0472 87.1438L77.5438 32.1704Z" fill="#393939" stroke="black" stroke-width="3"/>
</svg>
