<svg width="521" height="522" viewBox="0 0 521 522" fill="none" xmlns="http://www.w3.org/2000/svg">
<path d="M115.47 105L96 138.917H127.302H178.169C205.958 138.917 233.71 140.909 261.214 144.876L309.9 151.9L252.512 138.917L309.9 111.653H232.948L281.206 84.3889H212.08L252.512 40.247L189.907 63.6162L242.078 0L199.476 23.0631C178.463 34.4393 159.495 49.2428 143.355 66.8636C132.686 78.5116 123.334 91.3011 115.47 105Z" fill="#9001B4"/>
<path d="M81.4346 97.5321L84.1316 84.13L89.6287 97.3008L100.883 132.861L239.158 128.958L242.718 73.5032L273.566 149.513L301.688 237.901L317.328 283.588L326.91 332.521L336.347 376.333L340.965 394.654L343.534 413.033L347.509 452.159C347.659 453.637 349.069 454.65 350.518 454.321L381.406 447.3C382.532 447.044 383.331 446.043 383.331 444.888L383.331 425.942C383.331 424.863 384.03 423.909 385.058 423.584L395.443 420.297C396.645 419.916 397.369 418.693 397.123 417.456L395.236 407.965C394.946 406.507 395.999 405.124 397.482 405.016L409.626 404.131C411.654 403.983 412.647 401.587 411.319 400.048L397.975 384.585C397.082 383.55 397.197 381.987 398.233 381.094L411.395 369.756C412.524 368.784 412.543 367.042 411.437 366.045L400.093 355.819C398.842 354.692 399.059 352.671 400.52 351.835L408.391 347.331C409.268 346.83 409.751 345.846 409.613 344.846L408.19 334.538C407.934 332.686 409.747 331.23 411.5 331.88L418.042 334.306C419.066 334.686 420.217 334.349 420.875 333.479L432.722 317.808C433.715 316.494 435.69 316.5 436.676 317.819L446.512 330.977C447.039 331.683 447.902 332.054 448.776 331.954L468.473 329.69C469.996 329.515 471.31 330.754 471.225 332.285L470.455 346.156C470.398 347.186 470.986 348.143 471.93 348.558L499.972 360.875C501.221 361.424 501.79 362.881 501.243 364.131L494.548 379.433C494.128 380.392 494.358 381.512 495.121 382.228L516.316 402.123C517.294 403.041 517.362 404.571 516.469 405.573L500.415 423.583C499.687 424.4 499.582 425.599 500.158 426.53L511.16 444.326C511.785 445.337 511.603 446.65 510.726 447.452L470.36 484.378L450.916 498.285C450.671 498.46 450.397 498.589 450.106 498.666L419.091 506.827C418.942 506.867 418.789 506.892 418.635 506.903L336.095 512.675L258.107 509.751L163.818 510.362L110.44 507.768L64.2331 504.972L33.8654 500.788C33.5325 500.742 33.2124 500.629 32.9247 500.455L19.9171 492.603C19.1965 492.168 18.7466 491.396 18.7229 490.555L18.2117 472.444L20.1569 432.411L22.0732 391.354L25.1873 356.414L33.2492 315.183L36.4789 284.34L41.6993 251.39L47.9728 219.435L57.1746 182.273L67.5452 150.203L81.4346 97.5321Z" fill="black" stroke="black" stroke-width="0.41226"/>
<path d="M24.3037 184.412L27.6778 192.467C28.1186 193.52 29.2222 194.134 30.3489 193.954L36.9675 192.898C38.1986 192.702 39.3834 193.452 39.732 194.649L41.4372 200.502C41.7859 201.699 42.971 202.45 44.2022 202.253L53.94 200.697L47.8645 224.483M47.8645 224.483L44.9338 240.168L38.27 245.755C37.5246 246.38 36.4819 246.51 35.6058 246.087L29.9439 243.355C29.0296 242.914 27.9386 243.076 27.1922 243.764L22.4103 248.172C21.6801 248.845 20.6181 249.017 19.7133 248.607L11.9241 245.08M47.8645 224.483L38.6604 226.432C37.6826 226.639 36.6762 226.237 36.1098 225.413L32.4373 220.072C31.8216 219.177 30.6937 218.788 29.6571 219.114L22.9506 221.223C21.9136 221.549 20.7853 221.16 20.1697 220.264L14.9382 212.648" stroke="black" stroke-width="3"/>
<path d="M317.552 168.498L311.085 174.925C310.464 175.541 309.564 175.784 308.717 175.564L302.075 173.833C300.99 173.55 299.85 174.033 299.298 175.009L295.36 181.977C294.921 182.753 294.098 183.233 293.206 183.233L284.194 183.233L291.859 205.459M291.859 205.459L296.207 220.423L304.245 225.924C305.008 226.446 305.999 226.499 306.813 226.061L313.314 222.569C314.148 222.121 315.164 222.188 315.932 222.742L322.552 227.52C323.33 228.082 324.364 228.142 325.203 227.675L333.147 223.25M291.859 205.459L300.895 206.606C301.684 206.706 302.474 206.42 303.016 205.838L308.825 199.601C309.571 198.799 310.756 198.584 311.737 199.072L318.955 202.665C319.88 203.126 320.993 202.963 321.748 202.257L328.579 195.863" stroke="black" stroke-width="3"/>
<path d="M77.8399 211.912L89.4721 201.8C89.6802 201.619 89.9169 201.474 90.1727 201.372L100.836 197.087C100.982 197.028 101.134 196.983 101.289 196.953L113.61 194.571C113.742 194.546 113.876 194.531 114.01 194.527L130.348 194.066C130.706 194.056 131.062 194.124 131.391 194.265L142.109 198.852C142.32 198.942 142.518 199.062 142.697 199.208L151.177 206.11L157.787 212.572C158.246 213.021 158.513 213.63 158.531 214.271L158.775 222.912C158.791 223.48 158.611 224.036 158.265 224.486L150.78 234.255C150.631 234.45 150.453 234.621 150.254 234.764L135.532 245.267C135.307 245.427 135.058 245.548 134.794 245.626L115.646 251.261C115.49 251.307 115.33 251.338 115.169 251.352L99.0773 252.8C98.6081 252.842 98.1366 252.749 97.7183 252.533L81.6509 244.213C81.2318 243.996 80.8835 243.663 80.6472 243.255L75.3317 234.065C75.1258 233.709 75.0119 233.308 75.0003 232.897L74.7017 222.317C74.6949 222.076 74.7234 221.835 74.7864 221.602L77.0748 213.134C77.2029 212.66 77.4692 212.235 77.8399 211.912Z" fill="#999999"/>
<path d="M80.9829 222.139L83.2942 213.331C83.397 212.94 83.5942 212.579 83.8686 212.282L85.9216 210.056C86.1292 209.831 86.3767 209.646 86.6516 209.512L94.7288 205.555L107.077 200.466C107.354 200.352 107.65 200.289 107.95 200.28L124.337 199.818C124.58 199.811 124.823 199.84 125.058 199.904L137.276 203.24C137.569 203.32 137.846 203.453 138.091 203.634L147.519 210.575C147.822 210.798 148.07 211.087 148.244 211.42L151.97 218.538C152.323 219.213 152.346 220.013 152.031 220.707L147.434 230.842C147.233 231.286 146.905 231.661 146.491 231.919L137.465 237.552C137.325 237.639 137.176 237.713 137.021 237.771L123.364 242.87C123.157 242.947 122.941 242.996 122.721 243.016L107.634 244.381C107.416 244.401 107.198 244.391 106.983 244.354L93.2865 241.948C93.0199 241.901 92.7628 241.81 92.5254 241.68L83.7778 236.885C83.0878 236.507 82.6189 235.822 82.515 235.042L80.9236 223.094C80.8811 222.775 80.9012 222.451 80.9829 222.139Z" fill="black"/>
<path d="M261.237 231.19L247.768 239.644C247.38 239.888 246.923 240.005 246.452 239.981L231.848 239.224L218.599 238.059C218.478 238.048 218.357 238.028 218.237 237.999L201.186 233.862C201.017 233.821 200.85 233.761 200.69 233.685L188.322 227.782C187.96 227.609 187.637 227.352 187.38 227.033L180.545 218.547C180.369 218.33 180.228 218.087 180.125 217.828L176.527 208.751C176.35 208.306 176.295 207.827 176.368 207.37L177.695 198.991C177.789 198.393 178.097 197.868 178.558 197.516L188.026 190.288C188.121 190.215 188.223 190.15 188.329 190.093L202.168 182.758C202.408 182.63 202.671 182.548 202.945 182.515L214.219 181.147C214.494 181.114 214.775 181.13 215.052 181.195L226.975 184.008L243.968 187.131C244.395 187.209 244.802 187.401 245.149 187.687L260.105 200.026C260.479 200.335 260.769 200.742 260.938 201.199L264.811 211.621C264.885 211.82 264.935 212.025 264.961 212.233L266.055 221.14C266.115 221.626 266.037 222.109 265.832 222.53L262.053 230.277C261.869 230.656 261.587 230.97 261.237 231.19Z" fill="#999999"/>
<path d="M260.746 218.68L252.529 227.799C252.411 227.93 252.278 228.046 252.132 228.145L249.383 230.013C249.144 230.175 248.875 230.289 248.589 230.349L239.703 232.194L226.097 234.092C225.938 234.114 225.776 234.12 225.614 234.109L208.956 232.971C208.644 232.949 208.333 232.867 208.042 232.727L195.409 226.653C194.956 226.435 194.567 226.088 194.291 225.655L186.665 213.689C186.54 213.493 186.441 213.283 186.369 213.065L183.697 204.924C183.442 204.147 183.556 203.319 184.005 202.697L190.33 193.927C190.606 193.544 190.993 193.262 191.442 193.118L201.582 189.859C201.73 189.812 201.883 189.78 202.039 189.763L216.803 188.213C217.009 188.192 217.218 188.197 217.426 188.231L233.349 190.78L245.968 193.66C246.261 193.726 246.544 193.847 246.802 194.015L259.564 202.306C260.304 202.786 260.777 203.609 260.813 204.48L261.337 216.984C261.363 217.623 261.152 218.23 260.746 218.68Z" fill="black"/>
</svg>
