<svg width="592" height="526" viewBox="0 0 592 526" fill="none" xmlns="http://www.w3.org/2000/svg">
<path d="M40.7024 338.728L50.4831 355.189C53.3648 360.039 60.6353 359.158 62.2746 353.76L64.647 345.947M64.647 345.947L46.019 308.469M64.647 345.947L72.8922 324.263C73.3379 323.091 73.4345 321.815 73.1705 320.589L68.7262 299.954" stroke="black" stroke-width="3"/>
<path d="M60.3447 453.748L77.5725 507.436C77.7093 507.862 77.8898 508.273 78.1112 508.662L83.1113 517.451C84.1745 519.32 86.0941 520.541 88.2374 520.712L95.0727 521.257L102.074 505.088C102.344 504.464 102.514 503.801 102.579 503.124L104.379 484.236L109.311 419.724L130.069 418.8C130.481 418.782 130.891 418.724 131.292 418.628L161.187 411.469L146.301 458.258C146.096 458.903 145.993 459.576 145.996 460.252L146.09 483.726L147.347 503.3C147.592 507.117 151.068 509.895 154.845 509.294L167.724 507.245C169.219 507.007 170.583 506.254 171.582 505.117L177.097 498.836C177.393 498.499 177.653 498.133 177.873 497.743L187.421 480.826L223.898 423.549L251.922 384.775L283.872 343.64C284.292 343.1 284.795 342.629 285.361 342.246L311.192 324.769C314.556 322.493 319.16 323.83 320.781 327.554L321.325 328.804C321.544 329.306 321.698 329.834 321.784 330.375L326.6 360.637L331.394 390.769C331.494 391.395 331.501 392.033 331.416 392.662L327.555 421.097C327.494 421.548 327.481 422.005 327.515 422.459L329.609 450.206C329.671 451.031 330.599 451.484 331.287 451.025L351.071 437.847C351.359 437.655 351.662 437.487 351.978 437.343L354.193 436.333C356.998 435.055 360.248 436.801 360.733 439.844C360.85 440.58 360.789 441.333 360.555 442.04L355.485 457.386C355.231 458.156 355.882 458.922 356.682 458.794L374.83 455.906C375.555 455.791 376.255 455.554 376.9 455.204L387.093 449.687C388.176 449.1 389.07 448.218 389.67 447.143L404.52 420.544L440.14 349.923L468.349 280.481L482.691 230.13C482.879 229.47 483.17 228.844 483.554 228.275L502.448 200.299L517.705 171.465C517.919 171.061 518.089 170.637 518.214 170.198L528.568 133.641L537.18 104.193C537.45 103.271 537.511 102.3 537.36 101.351L530.661 59.2499C530.589 58.7964 530.469 58.3518 530.303 57.9236L520.56 32.792C520.073 31.5379 519.209 30.4657 518.087 29.7238L494.176 13.9138C493.35 13.3677 492.41 13.0178 491.428 12.8909L464.109 9.35762C463.493 9.27799 462.869 9.2871 462.256 9.38465L444.583 12.1969C443.036 12.4431 441.629 13.241 440.624 14.4432L433.173 23.3533C432.125 24.6059 431.588 26.2074 431.669 27.8383L432.628 47.2209C432.667 48.0036 432.847 48.7727 433.16 49.4912L440.344 65.992C440.561 66.4904 440.839 66.9596 441.173 67.3885L452.956 82.5226C453.254 82.9057 453.508 83.3211 453.714 83.761L462.748 103.083C462.918 103.448 463.054 103.827 463.154 104.217L472.501 140.596C472.817 141.828 472.765 143.126 472.35 144.328L459.575 181.363C459.344 182.032 458.545 182.303 457.955 181.913L433.101 165.48C432.523 165.097 431.887 164.81 431.218 164.629L395.678 155.004C395.34 154.913 394.996 154.849 394.649 154.813L358.677 151.093C358.115 151.034 357.547 151.05 356.989 151.139L312.129 158.277L275.187 168.981C274.797 169.094 274.418 169.244 274.055 169.428L239.882 186.779C239.592 186.926 239.315 187.094 239.051 187.283L199.64 215.394L148.339 259.097L156.316 229.641L108.53 271.559L82.03 301.144C81.7738 301.43 81.5435 301.738 81.3418 302.064L61.9074 333.541C61.6411 333.973 61.4262 334.434 61.2672 334.915L53.32 358.968C53.0811 359.691 52.9713 360.451 52.9956 361.212L54.8675 419.808L60.1149 452.785C60.1669 453.111 60.2437 453.433 60.3447 453.748Z" fill="#9001B4" stroke="black" stroke-width="1.08186"/>
<path d="M60.3447 453.748L77.5725 507.436C77.7093 507.862 77.8898 508.273 78.1112 508.662L83.1113 517.451C84.1745 519.32 86.0941 520.541 88.2374 520.712L95.0727 521.257L102.074 505.088C102.344 504.464 102.514 503.801 102.579 503.124L104.379 484.236L109.311 419.724L130.069 418.8C130.481 418.782 130.891 418.724 131.292 418.628L161.187 411.469L146.301 458.258C146.096 458.903 145.993 459.576 145.996 460.252L146.09 483.726L147.347 503.3C147.592 507.117 151.068 509.895 154.845 509.294L167.724 507.245C169.219 507.007 170.583 506.254 171.582 505.117L177.097 498.836C177.393 498.499 177.653 498.133 177.873 497.743L187.421 480.826L223.898 423.549L251.922 384.775L283.872 343.64C284.292 343.1 284.795 342.629 285.361 342.246L311.192 324.769C314.556 322.493 319.16 323.83 320.781 327.554L321.325 328.804C321.544 329.306 321.698 329.834 321.784 330.375L326.6 360.637L331.394 390.769C331.494 391.395 331.501 392.033 331.416 392.662L327.555 421.097C327.494 421.548 327.481 422.005 327.515 422.459L329.609 450.206C329.671 451.031 330.599 451.484 331.287 451.025L351.071 437.847C351.359 437.655 351.662 437.487 351.978 437.343L354.193 436.333C356.998 435.055 360.248 436.801 360.733 439.844C360.85 440.58 360.789 441.333 360.555 442.04L355.485 457.386C355.231 458.156 355.882 458.922 356.682 458.794L374.83 455.906C375.555 455.791 376.255 455.554 376.9 455.204L387.093 449.687C388.176 449.1 389.07 448.218 389.67 447.143L404.52 420.544L440.14 349.923L468.349 280.481L482.691 230.13C482.879 229.47 483.17 228.844 483.554 228.275L502.448 200.299L517.705 171.465C517.919 171.061 518.089 170.637 518.214 170.198L528.568 133.641L537.18 104.193C537.45 103.271 537.511 102.3 537.36 101.351L530.661 59.2499C530.589 58.7964 530.469 58.3518 530.303 57.9236L520.56 32.792C520.073 31.5379 519.209 30.4657 518.087 29.7238L494.176 13.9138C493.35 13.3677 492.41 13.0178 491.428 12.8909L464.109 9.35762C463.493 9.27799 462.869 9.2871 462.256 9.38465L444.583 12.1969C443.036 12.4431 441.629 13.241 440.624 14.4432L433.173 23.3533C432.125 24.6059 431.588 26.2074 431.669 27.8383L432.628 47.2209C432.667 48.0036 432.847 48.7727 433.16 49.4912L440.344 65.992C440.561 66.4904 440.839 66.9596 441.173 67.3885L452.956 82.5226C453.254 82.9057 453.508 83.3211 453.714 83.761L462.748 103.083C462.918 103.448 463.054 103.827 463.154 104.217L472.501 140.596C472.817 141.828 472.765 143.126 472.35 144.328L459.575 181.363C459.344 182.032 458.545 182.303 457.955 181.913L433.101 165.48C432.523 165.097 431.887 164.81 431.218 164.629L395.678 155.004C395.34 154.913 394.996 154.849 394.649 154.813L358.677 151.093C358.115 151.034 357.547 151.05 356.989 151.139L312.129 158.277L275.187 168.981C274.797 169.094 274.418 169.244 274.055 169.428L239.882 186.779C239.592 186.926 239.315 187.094 239.051 187.283L199.64 215.394L148.339 259.097L156.316 229.641L108.53 271.559L82.03 301.144C81.7738 301.43 81.5435 301.738 81.3418 302.064L61.9074 333.541C61.6411 333.973 61.4262 334.434 61.2672 334.915L53.32 358.968C53.0811 359.691 52.9713 360.451 52.9956 361.212L54.8675 419.808L60.1149 452.785C60.1669 453.111 60.2437 453.433 60.3447 453.748Z" fill="#9001B4" stroke="black" stroke-width="3"/>
<path d="M184.749 316.202L168.639 332.319C168.044 332.915 167.57 333.62 167.244 334.397L160.189 351.214C159.722 352.328 159.575 353.551 159.765 354.745L161.508 365.704C161.671 366.727 162.077 367.697 162.692 368.532L165.792 372.743C166.327 373.469 167.007 374.075 167.789 374.524L172.977 377.501C174.264 378.238 175.763 378.514 177.228 378.281L202.425 374.271C203.054 374.171 203.665 373.979 204.237 373.701L221.031 365.559C221.793 365.189 222.475 364.674 223.039 364.043L241.955 342.874C242.389 342.388 242.748 341.839 243.018 341.246L250.249 325.421C250.78 324.258 250.956 322.965 250.756 321.703L248.988 310.597C248.733 308.991 247.884 307.539 246.609 306.529L238.828 300.365C237.645 299.427 236.173 298.932 234.664 298.963L220.223 299.258C219.627 299.27 219.036 299.364 218.467 299.537L203.31 304.145C202.716 304.326 202.15 304.592 201.631 304.933L185.772 315.368C185.403 315.611 185.061 315.89 184.749 316.202Z" fill="#A5A5A5"/>
<path d="M90.6977 314.012L76.6644 328.691C76.1888 329.188 75.7953 329.758 75.4987 330.38L69.2176 343.535C68.6509 344.722 68.4582 346.053 68.6649 347.352L70.3819 358.142C70.5448 359.166 70.9507 360.136 71.5654 360.971L73.9492 364.208C74.9302 365.541 76.3829 366.448 78.0104 366.745L88.7332 368.702C89.4552 368.834 90.1942 368.843 90.919 368.727L112.095 365.358C112.886 365.232 113.647 364.96 114.34 364.557L129.839 355.536C130.395 355.212 130.9 354.807 131.338 354.335L147.161 337.236C147.695 336.66 148.119 335.991 148.414 335.263L153.654 322.319C154.098 321.224 154.234 320.029 154.048 318.863L151.589 303.411C151.393 302.178 150.845 301.027 150.011 300.097L145.762 295.361C144.396 293.838 142.392 293.049 140.354 293.23L126.999 294.419C126.408 294.472 125.828 294.605 125.274 294.815L110.138 300.551C109.64 300.74 109.166 300.99 108.728 301.295L91.6793 313.171C91.325 313.418 90.9961 313.7 90.6977 314.012Z" fill="#A5A5A5"/>
<path d="M92.659 316.668L80.5264 329.134C80.046 329.628 79.6472 330.195 79.345 330.814L74.0284 341.704C73.4429 342.903 73.2413 344.254 73.451 345.572L74.833 354.256C74.9986 355.297 75.4149 356.282 76.046 357.125L77.76 359.416C78.7487 360.737 80.2036 361.633 81.8287 361.92L90.7427 363.494C91.4529 363.619 92.1791 363.625 92.8914 363.512L111.132 360.609C111.91 360.485 112.659 360.221 113.342 359.829L126.675 352.179C127.228 351.862 127.732 351.465 128.169 351.001L141.831 336.502C142.371 335.929 142.802 335.263 143.103 334.536L147.539 323.835C147.998 322.727 148.141 321.513 147.953 320.329L145.938 307.668C145.739 306.416 145.177 305.249 144.322 304.312L141.107 300.789C139.739 299.29 137.749 298.517 135.728 298.7L124.546 299.71C123.966 299.762 123.396 299.892 122.851 300.096L109.802 304.987C109.31 305.172 108.842 305.415 108.409 305.712L93.6391 315.843C93.286 316.085 92.9577 316.362 92.659 316.668Z" fill="black"/>
<path d="M184.605 322.589L171.163 336.224C170.679 336.714 170.277 337.279 169.97 337.896L164.007 349.917C163.408 351.125 163.2 352.49 163.412 353.822L164.948 363.475C165.115 364.527 165.539 365.522 166.183 366.372L168.263 369.121C169.257 370.434 170.713 371.321 172.337 371.6L182.469 373.346C183.17 373.467 183.888 373.472 184.591 373.36L204.843 370.137C205.611 370.015 206.352 369.756 207.028 369.371L221.861 360.949C222.411 360.636 222.913 360.244 223.35 359.786L238.502 343.915C239.046 343.345 239.482 342.68 239.788 341.954L244.768 330.141C245.239 329.023 245.388 327.796 245.197 326.599L242.975 312.634C242.774 311.368 242.202 310.19 241.332 309.249L237.511 305.114C236.142 303.633 234.163 302.872 232.154 303.055L219.464 304.213C218.892 304.265 218.329 304.393 217.791 304.593L203.304 309.98C202.816 310.161 202.352 310.4 201.922 310.692L185.583 321.775C185.231 322.013 184.903 322.286 184.605 322.589Z" fill="black"/>
<path d="M135.5 389.5L145 379.5H128.5L135.5 389.5ZM135.5 389.5L130.5 398.5H145L168 396.5L190 392.5L208.5 385.5L222 376.5" stroke="black" stroke-width="3"/>
</svg>
