<svg width="3758" height="438" viewBox="0 0 3758 438" fill="none" xmlns="http://www.w3.org/2000/svg">
<path d="M420.521 306.346L393.618 312.231M393.618 312.231L389.415 309.709M393.618 312.231L390.468 313.177C387.492 314.069 384.327 312.543 383.173 309.658L380.167 302.143M389.415 309.709L412.114 290.373M389.415 309.709L380.167 302.143M380.167 302.143L389.415 287.851" stroke="#9001B4" stroke-width="5"/>
<path d="M513 382.512V396.718C513 397.002 512.98 397.285 512.94 397.566L511.536 407.393C511.393 408.391 511.001 409.337 510.396 410.144L507.31 414.26C506.633 415.162 505.716 415.855 504.664 416.26L496.327 419.466C495.677 419.716 494.989 419.851 494.293 419.865L453.309 420.684L379.759 419.05C378.39 419.02 377.052 419.458 375.967 420.293L356.976 434.902C356.194 435.503 355.276 435.902 354.304 436.064L346.458 437.372C345.952 437.456 345.438 437.475 344.928 437.429L338.994 436.89C337.368 436.742 335.872 435.937 334.852 434.662L334.4 434.098C333.549 433.034 333.086 431.712 333.086 430.35V424.881C333.086 421.615 330.474 418.949 327.209 418.882L257.814 417.451C254.476 417.382 251.83 420.266 252.162 423.589C252.3 424.961 251.917 426.341 251.09 427.444C250.293 428.507 249.139 429.245 247.841 429.523L239.299 431.353C238.498 431.525 237.669 431.531 236.866 431.37L226.056 429.208C225.669 429.131 225.29 429.015 224.925 428.863L216.344 425.288C215.709 425.023 215.125 424.652 214.616 424.189L208.011 418.185C206.813 417.095 205.225 416.537 203.608 416.636L164.941 419.003L102.532 418.424L22.9755 416.421C22.4088 416.407 21.8469 416.312 21.3067 416.14L15.0231 414.14C14.6437 414.019 14.2772 413.861 13.9291 413.668L7.62061 410.163C7.13328 409.892 6.68604 409.555 6.29185 409.161L2.75834 405.627C1.63313 404.502 1.00098 402.976 1.00098 401.385V393.843C1.00098 393.245 1.0904 392.65 1.2663 392.078L4.00272 383.185C4.24104 382.411 4.6337 381.692 5.15708 381.074L13.3212 371.425C13.5147 371.197 13.725 370.983 13.9505 370.786L26.674 359.652C26.9331 359.426 27.2113 359.222 27.5054 359.043L46.3999 347.542L64.0551 339.134L105.25 324.842L125.751 315.821C126.095 315.67 126.424 315.487 126.734 315.274L139.341 306.606C139.593 306.433 139.832 306.241 140.054 306.031L153.309 293.556C153.775 293.118 154.167 292.608 154.472 292.045L164.346 273.817C164.739 273.091 164.978 272.293 165.048 271.471L167.464 243.292C168.182 239.698 172.616 238.356 175.208 240.947L175.871 241.61L196.819 267.213C197.93 268.572 199.581 269.375 201.336 269.412L278.439 271.036H336.302C338.47 271.036 340.469 269.866 341.532 267.977L347.052 258.164C347.269 257.779 347.442 257.37 347.569 256.947L349.744 249.698C349.848 249.351 349.92 248.996 349.96 248.636L351.442 235.297C351.533 234.48 351.862 233.707 352.389 233.075C354.123 230.995 357.343 231.077 358.968 233.244L360.219 234.911C360.623 235.45 360.931 236.055 361.129 236.698L367.555 257.584L374.899 279.615C375.047 280.059 375.246 280.484 375.493 280.882L389.064 302.746C389.832 303.983 391.022 304.898 392.415 305.322L409.591 310.549L435.654 322.32L465.453 335.564C465.764 335.702 466.062 335.866 466.344 336.055L488.25 350.659C488.496 350.822 488.729 351.004 488.948 351.202L505.383 366.072C505.971 366.604 506.448 367.248 506.786 367.966L512.429 379.957C512.805 380.756 513 381.628 513 382.512Z" fill="#9001B4" stroke="#9001B4"/>
<path d="M261.68 315.701L263.789 319.92C264.028 320.397 264.201 320.903 264.306 321.426L264.359 321.693C264.753 323.66 264.137 325.694 262.719 327.112L262.109 327.722C261.788 328.043 261.432 328.326 261.047 328.567L255.389 332.103C255.064 332.307 254.721 332.478 254.363 332.616L245.011 336.212C244.324 336.477 243.594 336.612 242.857 336.612H220.061C219.748 336.612 219.435 336.588 219.125 336.539L204.422 334.217C203.887 334.133 203.367 333.977 202.875 333.753L196.015 330.635C194.941 330.147 194.035 329.353 193.41 328.352L191.579 325.423C190.679 323.983 190.431 322.228 190.898 320.595L191.225 319.451C191.626 318.049 192.523 316.84 193.75 316.052L202.469 310.446C203.225 309.961 204.079 309.651 204.97 309.54L217.068 308.027H236.405L251.296 309.595C252.012 309.67 252.708 309.874 253.352 310.195L258.997 313.018C260.158 313.599 261.099 314.54 261.68 315.701Z" fill="#B7B7B7"/>
<path d="M244.019 312.946L255.281 316.608C255.98 316.835 256.62 317.216 257.153 317.722L257.21 317.777C258.91 319.393 259.205 321.996 257.91 323.951C257.476 324.606 256.89 325.145 256.201 325.522L250.566 328.607C250.051 328.889 249.497 329.094 248.923 329.216L233.881 332.39C233.433 332.484 232.976 332.527 232.519 332.518L215.623 332.172C215.245 332.164 214.869 332.121 214.499 332.042L201.158 329.208C199.001 328.749 197.27 327.145 196.648 325.03L196.346 324.004C196 322.826 196.024 321.57 196.414 320.406L196.474 320.225C197.118 318.303 198.689 316.836 200.65 316.325L213.584 312.954C213.859 312.882 214.139 312.83 214.422 312.798L227.877 311.273C228.308 311.224 228.743 311.222 229.174 311.267L242.785 312.684C243.205 312.728 243.618 312.816 244.019 312.946Z" fill="black"/>
<path d="M359.937 318.195L363.547 322.406C363.975 322.906 364.318 323.472 364.562 324.083L364.983 325.136C365.555 326.566 365.555 328.162 364.983 329.593L364.781 330.099C364.396 331.062 363.768 331.908 362.958 332.556L360.383 334.616C360.121 334.826 359.842 335.013 359.549 335.176L352.91 338.864C352.586 339.044 352.246 339.194 351.894 339.311L343.431 342.132C342.706 342.373 341.943 342.474 341.181 342.43L328.56 341.687C328.215 341.667 327.873 341.617 327.538 341.538L314.298 338.423C313.933 338.337 313.578 338.217 313.235 338.065L299.635 332.02C298.962 331.721 298.35 331.301 297.829 330.78L293.127 326.077C292.32 325.27 291.76 324.25 291.512 323.136L290.849 320.153C290.446 318.338 290.907 316.439 292.097 315.011L293.376 313.475C294.056 312.66 294.938 312.04 295.935 311.678L302.848 309.164C303.387 308.968 303.952 308.85 304.524 308.814L317.113 308.027L335.009 308.841C335.408 308.859 335.804 308.917 336.191 309.014L348.421 312.071C348.846 312.177 349.258 312.33 349.649 312.526L358.065 316.733C358.78 317.091 359.417 317.588 359.937 318.195Z" fill="#B7B7B7"/>
<path d="M344.173 315.245L353.676 320.871C354.478 321.346 355.157 322 355.662 322.782L355.903 323.155C357.18 325.135 357.18 327.679 355.903 329.659L355.741 329.91C355.186 330.77 354.42 331.475 353.515 331.955L348.627 334.554C347.981 334.898 347.276 335.12 346.55 335.21L333.011 336.89C332.422 336.963 331.826 336.948 331.241 336.846L316.265 334.234C315.798 334.152 315.342 334.016 314.906 333.827L303.141 328.719C301.213 327.882 299.864 326.097 299.584 324.014L299.195 321.114C299.067 320.163 299.169 319.195 299.493 318.292L299.908 317.133C300.628 315.124 302.36 313.649 304.459 313.258L316.052 311.101C316.414 311.034 316.782 311 317.15 311H329.211C329.769 311 330.325 311.078 330.862 311.232L342.767 314.64C343.26 314.781 343.732 314.984 344.173 315.245Z" fill="black"/>
<path d="M139.72 289.532L157.965 303.374C161.079 305.736 161.139 310.397 158.087 312.839L151.49 318.117M151.49 318.117L133.871 299.698C133.293 299.093 132.594 298.616 131.82 298.297L118.702 292.895M151.49 318.117L142.187 323.35C139.757 324.717 136.706 324.23 134.822 322.175L129.215 316.058C128.933 315.75 128.619 315.472 128.279 315.23L124.12 312.259C123.322 311.689 122.397 311.323 121.426 311.194L110.294 309.71" stroke="#9001B4" stroke-width="5"/>
<g clip-path="url(#clip0_284_143)">
<path d="M974.521 287.449L947.618 294.178M947.618 294.178L943.415 291.294M947.618 294.178L944.468 295.259C941.492 296.28 938.327 294.534 937.173 291.235L934.167 282.642M943.415 291.294L966.114 269.182M943.415 291.294L934.167 282.642M934.167 282.642L943.415 266.298" stroke="#9001B4" stroke-width="5"/>
<path d="M1067 373.384V389.796C1067 390.124 1066.98 390.451 1066.94 390.776L1065.54 402.128C1065.39 403.281 1065 404.374 1064.4 405.307L1061.31 410.062C1060.63 411.104 1059.72 411.904 1058.66 412.372L1050.33 416.076C1049.68 416.365 1048.99 416.521 1048.29 416.537L1007.31 417.483L933.759 415.595C932.39 415.561 931.052 416.067 929.967 417.031L910.976 433.909C910.194 434.603 909.276 435.064 908.304 435.251L900.458 436.762C899.952 436.859 899.438 436.881 898.928 436.828L892.994 436.206C891.368 436.035 889.872 435.105 888.852 433.632L888.4 432.98C887.549 431.751 887.086 430.224 887.086 428.65V422.332C887.086 418.559 884.474 415.479 881.209 415.401L811.814 413.748C808.476 413.668 805.83 417 806.162 420.839C806.3 422.424 805.917 424.019 805.09 425.293C804.293 426.521 803.139 427.373 801.841 427.695L793.299 429.809C792.498 430.008 791.669 430.014 790.866 429.828L780.056 427.331C779.669 427.242 779.29 427.108 778.925 426.932L770.344 422.802C769.709 422.496 769.125 422.067 768.616 421.532L762.011 414.596C760.813 413.337 759.225 412.692 757.608 412.807L718.94 415.541L656.531 414.872L576.975 412.558C576.408 412.542 575.846 412.432 575.306 412.234L569.022 409.923C568.643 409.783 568.276 409.601 567.928 409.378L561.62 405.329C561.132 405.015 560.685 404.626 560.291 404.171L556.757 400.088C555.632 398.789 555 397.026 555 395.188V386.474C555 385.784 555.089 385.096 555.265 384.435L558.002 374.162C558.24 373.267 558.633 372.437 559.156 371.723L567.32 360.576C567.514 360.312 567.724 360.065 567.95 359.837L580.673 346.975C580.932 346.713 581.21 346.478 581.504 346.271L600.399 332.984L618.054 323.271L659.249 306.76L679.75 296.339C680.094 296.164 680.423 295.952 680.733 295.706L693.34 285.693C693.592 285.492 693.831 285.27 694.053 285.028L707.308 270.617C707.774 270.11 708.166 269.52 708.471 268.87L718.345 247.812C718.738 246.974 718.977 246.051 719.047 245.102L721.463 212.547C722.181 208.396 726.615 206.845 729.207 209.838L729.87 210.605L750.819 240.183C751.93 241.752 753.581 242.681 755.336 242.724L832.439 244.599H890.302C892.47 244.599 894.469 243.248 895.532 241.066L901.052 229.729C901.269 229.283 901.442 228.812 901.569 228.322L903.744 219.948C903.848 219.548 903.92 219.137 903.96 218.722L905.442 203.312C905.533 202.367 905.862 201.474 906.389 200.744C908.123 198.341 911.343 198.436 912.968 200.939L914.219 202.865C914.623 203.487 914.931 204.186 915.129 204.93L921.555 229.059L928.899 254.511C929.047 255.024 929.246 255.515 929.493 255.974L943.064 281.233C943.832 282.662 945.022 283.719 946.415 284.209L963.591 290.248L989.654 303.846L1019.45 319.146C1019.76 319.306 1020.06 319.495 1020.34 319.714L1042.25 336.585C1042.5 336.773 1042.73 336.984 1042.95 337.212L1059.38 354.391C1059.97 355.006 1060.45 355.75 1060.79 356.579L1066.43 370.432C1066.81 371.355 1067 372.363 1067 373.384Z" fill="#9001B4" stroke="#9001B4"/>
<path d="M815.68 298.147L817.789 302.97C818.028 303.516 818.201 304.095 818.306 304.693L818.359 304.998C818.753 307.248 818.137 309.573 816.719 311.196L816.109 311.892C815.788 312.259 815.432 312.584 815.047 312.859L809.389 316.902C809.064 317.135 808.721 317.331 808.363 317.489L799.011 321.601C798.324 321.904 797.594 322.058 796.857 322.058H774.061C773.748 322.058 773.435 322.031 773.125 321.975L758.422 319.32C757.887 319.223 757.367 319.045 756.875 318.789L750.015 315.223C748.941 314.665 748.035 313.757 747.41 312.614L745.579 309.264C744.679 307.617 744.431 305.61 744.898 303.742L745.225 302.434C745.626 300.831 746.523 299.449 747.75 298.548L756.469 292.137C757.225 291.582 758.079 291.228 758.97 291.1L771.068 289.371H790.405L805.296 291.164C806.012 291.25 806.708 291.482 807.352 291.85L812.997 295.078C814.158 295.742 815.099 296.819 815.68 298.147Z" fill="#B7B7B7"/>
<path d="M798.019 294.997L809.281 299.184C809.98 299.444 810.62 299.879 811.153 300.458L811.21 300.52C812.91 302.368 813.205 305.345 811.91 307.581C811.476 308.33 810.89 308.946 810.201 309.377L804.566 312.906C804.051 313.228 803.497 313.462 802.923 313.601L787.881 317.231C787.433 317.338 786.976 317.387 786.519 317.377L769.623 316.982C769.245 316.972 768.869 316.923 768.499 316.833L755.158 313.592C753.001 313.068 751.27 311.234 750.648 308.815L750.346 307.641C750 306.295 750.024 304.859 750.414 303.528L750.474 303.321C751.118 301.123 752.689 299.445 754.65 298.86L767.584 295.005C767.859 294.923 768.139 294.863 768.422 294.827L781.877 293.083C782.308 293.027 782.743 293.025 783.174 293.076L796.785 294.697C797.205 294.747 797.618 294.848 798.019 294.997Z" fill="black"/>
<path d="M913.937 300.999L917.547 305.814C917.975 306.385 918.318 307.033 918.562 307.731L918.983 308.935C919.555 310.571 919.555 312.396 918.983 314.032L918.781 314.61C918.396 315.712 917.768 316.679 916.958 317.42L914.383 319.776C914.121 320.016 913.842 320.23 913.549 320.416L906.91 324.634C906.586 324.839 906.246 325.011 905.894 325.145L897.431 328.371C896.706 328.646 895.943 328.762 895.181 328.711L882.56 327.862C882.215 327.839 881.873 327.782 881.538 327.691L868.298 324.129C867.933 324.031 867.578 323.894 867.235 323.72L853.635 316.807C852.962 316.465 852.35 315.985 851.829 315.389L847.127 310.012C846.32 309.089 845.76 307.923 845.512 306.649L844.849 303.238C844.446 301.162 844.907 298.99 846.097 297.357L847.376 295.601C848.056 294.669 848.938 293.96 849.935 293.545L856.848 290.671C857.387 290.446 857.952 290.312 858.524 290.271L871.113 289.371L889.009 290.301C889.408 290.322 889.804 290.388 890.191 290.499L902.421 293.995C902.846 294.117 903.258 294.291 903.649 294.515L912.065 299.327C912.78 299.736 913.417 300.304 913.937 300.999Z" fill="#B7B7B7"/>
<path d="M898.173 297.625L907.676 304.059C908.478 304.601 909.157 305.349 909.662 306.244L909.903 306.671C911.18 308.935 911.18 311.844 909.903 314.108L909.741 314.395C909.186 315.378 908.42 316.185 907.515 316.733L902.627 319.705C901.981 320.099 901.276 320.353 900.55 320.456L887.011 322.377C886.422 322.46 885.826 322.443 885.241 322.326L870.265 319.34C869.798 319.246 869.342 319.09 868.906 318.874L857.141 313.033C855.213 312.076 853.864 310.035 853.584 307.653L853.195 304.337C853.067 303.249 853.169 302.142 853.493 301.109L853.908 299.784C854.628 297.487 856.36 295.8 858.459 295.353L870.052 292.886C870.414 292.809 870.782 292.771 871.15 292.771H883.211C883.769 292.771 884.325 292.86 884.862 293.035L896.767 296.933C897.26 297.094 897.732 297.326 898.173 297.625Z" fill="black"/>
<path d="M693.72 268.221L711.965 284.049C715.079 286.75 715.139 292.081 712.087 294.873L705.49 300.908M705.49 300.908L687.871 279.845C687.293 279.153 686.594 278.608 685.82 278.243L672.702 272.066M705.49 300.908L696.187 306.893C693.757 308.455 690.706 307.899 688.822 305.549L683.215 298.554C682.933 298.202 682.619 297.884 682.279 297.607L678.12 294.209C677.322 293.558 676.397 293.14 675.426 292.992L664.294 291.294" stroke="#9001B4" stroke-width="5"/>
</g>
<g clip-path="url(#clip1_284_143)">
<path d="M1517.7 274.22L1492.58 281.541M1492.58 281.541L1488.66 278.404M1492.58 281.541L1489.64 282.717C1486.86 283.828 1483.9 281.928 1482.83 278.34L1480.02 268.991M1488.66 278.404L1509.85 254.348M1488.66 278.404L1480.02 268.991M1480.02 268.991L1488.66 251.211" stroke="#9001B4" stroke-width="5"/>
<path d="M1604.07 367.707V385.56C1604.07 385.917 1604.05 386.273 1604.01 386.626L1602.7 398.977C1602.57 400.231 1602.2 401.42 1601.63 402.434L1598.75 407.607C1598.12 408.741 1597.26 409.611 1596.28 410.12L1588.5 414.15C1587.89 414.464 1587.25 414.634 1586.6 414.651L1548.32 415.68L1479.64 413.627C1478.36 413.589 1477.11 414.14 1476.1 415.189L1458.36 433.549C1457.63 434.305 1456.78 434.806 1455.87 435.01L1448.54 436.654C1448.07 436.759 1447.59 436.783 1447.11 436.725L1441.57 436.048C1440.05 435.862 1438.65 434.85 1437.7 433.248L1437.28 432.539C1436.49 431.202 1436.05 429.54 1436.05 427.829V420.955C1436.05 416.851 1433.61 413.5 1430.56 413.416L1365.76 411.617C1362.64 411.531 1360.17 415.155 1360.48 419.331C1360.61 421.056 1360.25 422.79 1359.48 424.176C1358.74 425.512 1357.66 426.44 1356.45 426.789L1348.47 429.089C1347.72 429.305 1346.95 429.313 1346.2 429.11L1336.1 426.393C1335.74 426.297 1335.39 426.151 1335.05 425.96L1327.03 421.467C1326.44 421.134 1325.89 420.667 1325.42 420.085L1319.25 412.54C1318.13 411.17 1316.65 410.469 1315.14 410.593L1279.03 413.568L1220.75 412.84L1146.46 410.323C1145.93 410.305 1145.4 410.186 1144.9 409.97L1139.03 407.456C1138.67 407.304 1138.33 407.105 1138.01 406.863L1132.12 402.458C1131.66 402.117 1131.24 401.694 1130.87 401.199L1127.58 396.757C1126.52 395.343 1125.93 393.425 1125.93 391.426V381.947C1125.93 381.196 1126.02 380.448 1126.18 379.729L1128.74 368.552C1128.96 367.58 1129.33 366.676 1129.82 365.899L1137.44 353.773C1137.62 353.486 1137.82 353.217 1138.03 352.97L1149.91 338.976C1150.15 338.692 1150.41 338.436 1150.69 338.211L1168.33 323.757L1184.82 313.19L1223.29 295.228L1242.43 283.891C1242.75 283.701 1243.06 283.471 1243.35 283.203L1255.12 272.31C1255.36 272.092 1255.58 271.851 1255.79 271.587L1268.17 255.909C1268.6 255.358 1268.97 254.717 1269.25 254.01L1278.47 231.101C1278.84 230.189 1279.06 229.186 1279.13 228.153L1281.39 192.738C1282.06 188.221 1286.2 186.534 1288.62 189.791L1289.24 190.624L1308.8 222.801C1309.84 224.509 1311.38 225.519 1313.02 225.565L1385.02 227.606H1439.06C1441.08 227.606 1442.95 226.136 1443.94 223.762L1449.1 211.429C1449.3 210.944 1449.46 210.431 1449.58 209.899L1451.61 200.789C1451.71 200.353 1451.77 199.906 1451.81 199.454L1453.19 182.69C1453.28 181.663 1453.59 180.691 1454.08 179.897C1455.7 177.283 1458.71 177.386 1460.22 180.109L1461.39 182.204C1461.77 182.882 1462.06 183.642 1462.24 184.451L1468.24 210.7L1475.1 238.388C1475.24 238.946 1475.42 239.481 1475.65 239.98L1488.33 267.459C1489.05 269.013 1490.16 270.163 1491.46 270.696L1507.5 277.266L1531.84 292.058L1559.66 308.703C1559.95 308.877 1560.23 309.083 1560.5 309.32L1580.95 327.674C1581.18 327.879 1581.4 328.108 1581.61 328.357L1596.95 347.045C1597.5 347.714 1597.95 348.523 1598.26 349.425L1603.53 364.495C1603.88 365.5 1604.07 366.596 1604.07 367.707Z" fill="#9001B4" stroke="#9001B4"/>
<path d="M1369.37 285.859L1371.34 291.107C1371.56 291.7 1371.72 292.33 1371.82 292.981L1371.87 293.313C1372.24 295.76 1371.66 298.29 1370.34 300.055L1369.77 300.812C1369.47 301.212 1369.14 301.565 1368.78 301.864L1363.5 306.263C1363.19 306.516 1362.87 306.729 1362.54 306.901L1353.8 311.374C1353.16 311.704 1352.48 311.872 1351.79 311.872H1330.5C1330.21 311.872 1329.92 311.842 1329.63 311.781L1315.9 308.892C1315.4 308.788 1314.91 308.594 1314.46 308.315L1308.05 304.436C1307.05 303.829 1306.2 302.841 1305.62 301.597L1303.91 297.953C1303.07 296.161 1302.83 293.978 1303.27 291.947L1303.58 290.523C1303.95 288.779 1304.79 287.276 1305.93 286.295L1314.08 279.322C1314.78 278.718 1315.58 278.332 1316.41 278.194L1327.71 276.312H1345.77L1359.67 278.263C1360.34 278.356 1360.99 278.609 1361.59 279.01L1366.86 282.521C1367.95 283.243 1368.83 284.415 1369.37 285.859Z" fill="#B7B7B7"/>
<path d="M1352.88 282.431L1363.39 286.986C1364.05 287.269 1364.65 287.743 1365.14 288.373L1365.2 288.44C1366.78 290.451 1367.06 293.689 1365.85 296.122C1365.44 296.936 1364.9 297.607 1364.25 298.076L1358.99 301.914C1358.51 302.265 1357.99 302.519 1357.46 302.671L1343.41 306.619C1342.99 306.736 1342.57 306.79 1342.14 306.778L1326.36 306.348C1326.01 306.338 1325.66 306.285 1325.31 306.186L1312.85 302.661C1310.84 302.091 1309.22 300.095 1308.64 297.464L1308.36 296.187C1308.04 294.722 1308.06 293.16 1308.42 291.712L1308.48 291.487C1309.08 289.096 1310.55 287.27 1312.38 286.634L1324.46 282.44C1324.71 282.351 1324.97 282.286 1325.24 282.247L1337.8 280.349C1338.21 280.289 1338.61 280.286 1339.01 280.342L1351.73 282.106C1352.12 282.16 1352.5 282.269 1352.88 282.431Z" fill="black"/>
<path d="M1461.13 288.962L1464.5 294.2C1464.9 294.821 1465.22 295.526 1465.45 296.286L1465.84 297.596C1466.37 299.375 1466.37 301.36 1465.84 303.14L1465.65 303.769C1465.29 304.967 1464.71 306.02 1463.95 306.826L1461.54 309.389C1461.3 309.65 1461.04 309.883 1460.77 310.085L1454.57 314.673C1454.26 314.897 1453.95 315.084 1453.62 315.229L1445.71 318.739C1445.04 319.039 1444.32 319.164 1443.61 319.109L1431.83 318.185C1431.5 318.16 1431.18 318.098 1430.87 318L1418.51 314.125C1418.17 314.018 1417.84 313.868 1417.52 313.679L1404.81 306.159C1404.19 305.787 1403.61 305.265 1403.13 304.617L1398.74 298.767C1397.98 297.763 1397.46 296.494 1397.23 295.108L1396.61 291.397C1396.23 289.139 1396.66 286.777 1397.78 285L1398.97 283.09C1399.6 282.076 1400.43 281.304 1401.36 280.853L1407.82 277.726C1408.32 277.482 1408.85 277.336 1409.38 277.291L1421.14 276.312L1437.85 277.325C1438.22 277.347 1438.59 277.419 1438.95 277.54L1450.37 281.343C1450.77 281.475 1451.16 281.665 1451.52 281.908L1459.38 287.143C1460.05 287.588 1460.64 288.206 1461.13 288.962Z" fill="#B7B7B7"/>
<path d="M1446.41 285.29L1455.28 292.29C1456.03 292.88 1456.66 293.694 1457.14 294.667L1457.36 295.131C1458.55 297.594 1458.55 300.759 1457.36 303.222L1457.21 303.534C1456.69 304.604 1455.98 305.481 1455.13 306.078L1450.57 309.311C1449.96 309.739 1449.3 310.016 1448.63 310.127L1435.98 312.217C1435.43 312.308 1434.88 312.29 1434.33 312.163L1420.34 308.913C1419.91 308.811 1419.48 308.642 1419.08 308.407L1408.09 302.052C1406.29 301.011 1405.03 298.791 1404.77 296.2L1404.4 292.592C1404.28 291.409 1404.38 290.205 1404.68 289.081L1405.07 287.64C1405.74 285.14 1407.36 283.305 1409.32 282.819L1420.15 280.136C1420.48 280.052 1420.83 280.01 1421.17 280.01H1432.43C1432.96 280.01 1433.47 280.107 1433.98 280.298L1445.09 284.538C1445.55 284.713 1446 284.966 1446.41 285.29Z" fill="black"/>
<path d="M1255.48 253.303L1272.52 270.522C1275.42 273.46 1275.48 279.259 1272.63 282.297L1266.47 288.862M1266.47 288.862L1250.02 265.949C1249.48 265.196 1248.82 264.603 1248.1 264.206L1235.85 257.486M1266.47 288.862L1257.78 295.372C1255.51 297.073 1252.66 296.467 1250.9 293.911L1245.67 286.301C1245.4 285.918 1245.11 285.573 1244.79 285.271L1240.91 281.575C1240.16 280.866 1239.3 280.411 1238.39 280.25L1228 278.404" stroke="#9001B4" stroke-width="5"/>
</g>
<g clip-path="url(#clip2_284_143)">
<path d="M2062.07 244.614L2038.78 253.258M2038.78 253.258L2035.14 249.554M2038.78 253.258L2036.05 254.647C2033.47 255.958 2030.73 253.716 2029.74 249.478L2027.13 238.439M2035.14 249.554L2054.79 221.15M2035.14 249.554L2027.13 238.439M2027.13 238.439L2035.14 217.445" stroke="#9001B4" stroke-width="5"/>
<path d="M2142.13 355V376.081C2142.13 376.502 2142.12 376.922 2142.08 377.339L2140.87 391.922C2140.74 393.403 2140.4 394.807 2139.88 396.005L2137.21 402.113C2136.62 403.451 2135.83 404.48 2134.92 405.081L2127.7 409.838C2127.14 410.209 2126.54 410.41 2125.94 410.43L2090.46 411.646L2026.78 409.221C2025.59 409.176 2024.44 409.826 2023.5 411.066L2007.05 432.745C2006.38 433.637 2005.58 434.229 2004.74 434.469L1997.95 436.41C1997.51 436.535 1997.07 436.563 1996.62 436.495L1991.49 435.695C1990.08 435.475 1988.78 434.281 1987.9 432.389L1987.51 431.552C1986.77 429.973 1986.37 428.011 1986.37 425.99V417.874C1986.37 413.027 1984.11 409.071 1981.28 408.972L1921.2 406.848C1918.31 406.746 1916.02 411.025 1916.31 415.957C1916.43 417.993 1916.1 420.041 1915.38 421.677C1914.69 423.255 1913.69 424.35 1912.57 424.763L1905.17 427.478C1904.48 427.733 1903.76 427.742 1903.07 427.503L1893.71 424.295C1893.37 424.181 1893.05 424.009 1892.73 423.783L1885.3 418.478C1884.75 418.085 1884.25 417.534 1883.81 416.847L1878.09 407.937C1877.05 406.32 1875.67 405.492 1874.27 405.639L1840.8 409.151L1786.77 408.292L1717.89 405.32C1717.4 405.299 1716.91 405.158 1716.45 404.903L1711.01 401.935C1710.68 401.755 1710.36 401.521 1710.06 401.234L1704.6 396.033C1704.17 395.631 1703.79 395.131 1703.45 394.546L1700.39 389.302C1699.41 387.632 1698.87 385.368 1698.87 383.007V371.815C1698.87 370.927 1698.94 370.044 1699.1 369.195L1701.46 355.998C1701.67 354.85 1702.01 353.783 1702.46 352.866L1709.53 338.547C1709.7 338.209 1709.88 337.891 1710.08 337.599L1721.09 321.076C1721.32 320.741 1721.56 320.438 1721.81 320.172L1738.17 303.105L1753.46 290.628L1789.12 269.419L1806.87 256.033C1807.17 255.809 1807.45 255.537 1807.72 255.221L1818.64 242.358C1818.85 242.101 1819.06 241.816 1819.25 241.505L1830.73 222.993C1831.13 222.342 1831.47 221.585 1831.73 220.75L1840.28 193.699C1840.62 192.623 1840.83 191.438 1840.89 190.219L1842.98 148.402C1843.6 143.069 1847.44 141.077 1849.69 144.922L1850.26 145.906L1868.4 183.9C1869.36 185.916 1870.79 187.109 1872.31 187.164L1939.06 189.573H1989.16C1991.03 189.573 1992.76 187.838 1993.68 185.034L1998.46 170.472C1998.65 169.9 1998.8 169.294 1998.91 168.665L2000.79 157.908C2000.88 157.394 2000.95 156.866 2000.98 156.333L2002.26 136.538C2002.34 135.325 2002.63 134.178 2003.08 133.24C2004.58 130.153 2007.37 130.276 2008.78 133.49L2009.86 135.965C2010.21 136.764 2010.48 137.662 2010.65 138.617L2016.21 169.611L2022.57 202.305C2022.7 202.963 2022.87 203.594 2023.09 204.184L2034.84 236.63C2035.5 238.465 2036.53 239.824 2037.74 240.452L2052.61 248.21L2075.17 265.676L2100.97 285.33C2101.24 285.535 2101.5 285.778 2101.74 286.059L2120.71 307.731C2120.92 307.973 2121.12 308.243 2121.31 308.537L2135.54 330.603C2136.05 331.393 2136.46 332.348 2136.75 333.414L2141.64 351.208C2141.97 352.394 2142.13 353.688 2142.13 355Z" fill="#9001B4" stroke="#9001B4"/>
<path d="M1924.55 258.356L1926.38 264.552C1926.58 265.253 1926.73 265.997 1926.83 266.765L1926.87 267.158C1927.21 270.047 1926.68 273.034 1925.45 275.118L1924.92 276.013C1924.65 276.484 1924.34 276.901 1924 277.254L1919.11 282.448C1918.82 282.748 1918.53 282.999 1918.22 283.202L1910.12 288.484C1909.53 288.873 1908.89 289.071 1908.26 289.071H1888.52C1888.25 289.071 1887.98 289.036 1887.71 288.964L1874.98 285.553C1874.52 285.43 1874.07 285.201 1873.64 284.872L1867.7 280.292C1866.77 279.575 1865.99 278.409 1865.45 276.939L1863.86 272.637C1863.08 270.521 1862.87 267.943 1863.27 265.544L1863.55 263.864C1863.9 261.804 1864.68 260.03 1865.74 258.871L1873.29 250.637C1873.94 249.924 1874.68 249.469 1875.45 249.305L1885.93 247.084H1902.67L1915.56 249.387C1916.18 249.497 1916.78 249.796 1917.34 250.269L1922.23 254.415C1923.23 255.268 1924.05 256.651 1924.55 258.356Z" fill="#B7B7B7"/>
<path d="M1909.26 254.309L1919.01 259.688C1919.62 260.022 1920.17 260.581 1920.63 261.325L1920.68 261.405C1922.15 263.778 1922.41 267.602 1921.29 270.474C1920.91 271.436 1920.4 272.228 1919.81 272.782L1914.93 277.314C1914.48 277.728 1914 278.028 1913.51 278.207L1900.48 282.87C1900.1 283.008 1899.7 283.071 1899.31 283.058L1884.68 282.549C1884.35 282.538 1884.02 282.475 1883.7 282.359L1872.15 278.196C1870.29 277.522 1868.79 275.167 1868.25 272.06L1867.99 270.552C1867.69 268.822 1867.71 266.978 1868.05 265.268L1868.1 265.002C1868.66 262.178 1870.02 260.023 1871.71 259.272L1882.91 254.32C1883.15 254.215 1883.39 254.138 1883.64 254.091L1895.29 251.851C1895.66 251.779 1896.04 251.776 1896.41 251.842L1908.19 253.925C1908.56 253.989 1908.91 254.118 1909.26 254.309Z" fill="black"/>
<path d="M2009.62 262.02L2012.74 268.205C2013.11 268.939 2013.41 269.771 2013.62 270.668L2013.99 272.214C2014.48 274.315 2014.48 276.66 2013.99 278.761L2013.81 279.504C2013.48 280.919 2012.94 282.162 2012.23 283.113L2010 286.139C2009.78 286.448 2009.54 286.723 2009.28 286.962L2003.54 292.379C2003.25 292.644 2002.96 292.864 2002.66 293.036L1995.33 297.18C1994.7 297.534 1994.04 297.682 1993.38 297.617L1982.45 296.526C1982.16 296.497 1981.86 296.423 1981.57 296.307L1970.11 291.731C1969.79 291.605 1969.48 291.429 1969.19 291.206L1957.41 282.326C1956.83 281.887 1956.3 281.27 1955.85 280.505L1951.78 273.597C1951.08 272.412 1950.59 270.914 1950.38 269.277L1949.81 264.896C1949.46 262.23 1949.86 259.44 1950.89 257.342L1951.99 255.086C1952.58 253.889 1953.35 252.978 1954.21 252.446L1960.19 248.753C1960.66 248.465 1961.15 248.292 1961.64 248.24L1972.54 247.084L1988.04 248.279C1988.38 248.306 1988.73 248.391 1989.06 248.533L1999.65 253.024C2000.02 253.18 2000.37 253.404 2000.71 253.691L2008 259.872C2008.62 260.398 2009.17 261.128 2009.62 262.02Z" fill="#B7B7B7"/>
<path d="M1995.97 257.685L2004.2 265.95C2004.89 266.647 2005.48 267.608 2005.92 268.757L2006.13 269.305C2007.23 272.214 2007.23 275.951 2006.13 278.858L2005.99 279.227C2005.51 280.49 2004.84 281.526 2004.06 282.231L1999.83 286.049C1999.27 286.554 1998.66 286.88 1998.03 287.012L1986.31 289.48C1985.8 289.587 1985.28 289.565 1984.77 289.415L1971.81 285.579C1971.4 285.458 1971.01 285.258 1970.63 284.981L1960.45 277.477C1958.78 276.248 1957.61 273.626 1957.37 270.567L1957.03 266.307C1956.92 264.91 1957.01 263.488 1957.29 262.161L1957.65 260.46C1958.27 257.508 1959.77 255.341 1961.59 254.768L1971.62 251.599C1971.94 251.5 1972.26 251.45 1972.58 251.45H1983.02C1983.5 251.45 1983.98 251.565 1984.45 251.791L1994.75 256.796C1995.18 257.003 1995.59 257.302 1995.97 257.685Z" fill="black"/>
<path d="M1818.96 219.916L1834.76 240.248C1837.46 243.718 1837.51 250.565 1834.87 254.151L1829.15 261.904M1829.15 261.904L1813.9 234.848C1813.4 233.959 1812.79 233.258 1812.12 232.79L1800.77 224.856M1829.15 261.904L1821.1 269.591C1819 271.598 1816.35 270.883 1814.72 267.865L1809.87 258.879C1809.62 258.427 1809.35 258.019 1809.06 257.663L1805.46 253.299C1804.77 252.462 1803.97 251.925 1803.13 251.735L1793.49 249.554" stroke="#9001B4" stroke-width="5"/>
</g>
<g clip-path="url(#clip3_284_143)">
<path d="M2602.16 218.158L2580.91 227.985M2580.91 227.985L2577.59 223.773M2580.91 227.985L2578.42 229.563C2576.07 231.054 2573.57 228.505 2572.66 223.688L2570.29 211.138M2577.59 223.773L2595.52 191.484M2577.59 223.773L2570.29 211.138M2570.29 211.138L2577.59 187.272" stroke="#9001B4" stroke-width="5"/>
<path d="M2675.21 343.645V367.61C2675.21 368.089 2675.19 368.566 2675.16 369.04L2674.05 385.619C2673.94 387.302 2673.63 388.898 2673.15 390.259L2670.72 397.203C2670.18 398.725 2669.46 399.894 2668.63 400.577L2662.04 405.986C2661.53 406.407 2660.98 406.635 2660.43 406.659L2628.06 408.04L2569.97 405.284C2568.88 405.233 2567.83 405.972 2566.97 407.381L2551.97 432.026C2551.35 433.04 2550.63 433.713 2549.86 433.986L2543.66 436.193C2543.26 436.334 2542.86 436.367 2542.45 436.289L2537.77 435.38C2536.48 435.13 2535.3 433.772 2534.49 431.621L2534.14 430.67C2533.46 428.875 2533.1 426.644 2533.1 424.347V415.121C2533.1 409.611 2531.04 405.113 2528.46 405L2473.64 402.586C2471.01 402.47 2468.92 407.335 2469.18 412.941C2469.29 415.256 2468.98 417.584 2468.33 419.444C2467.7 421.238 2466.79 422.483 2465.77 422.952L2459.02 426.039C2458.39 426.329 2457.73 426.339 2457.1 426.067L2448.56 422.42C2448.25 422.29 2447.95 422.095 2447.66 421.838L2440.89 415.807C2440.38 415.36 2439.92 414.734 2439.52 413.953L2434.3 403.825C2433.36 401.986 2432.1 401.044 2430.83 401.211L2400.28 405.204L2350.99 404.228L2288.15 400.849C2287.7 400.825 2287.26 400.665 2286.83 400.375L2281.87 397.001C2281.57 396.797 2281.28 396.53 2281 396.204L2276.02 390.291C2275.63 389.834 2275.28 389.266 2274.97 388.601L2272.18 382.639C2271.29 380.741 2270.79 378.167 2270.79 375.483V362.76C2270.79 361.751 2270.86 360.747 2271 359.782L2273.16 344.78C2273.35 343.474 2273.66 342.261 2274.07 341.219L2280.52 324.941C2280.67 324.556 2280.84 324.195 2281.02 323.863L2291.07 305.08C2291.27 304.699 2291.49 304.355 2291.73 304.053L2306.65 284.651L2320.6 270.466L2353.13 246.356L2369.33 231.139C2369.6 230.884 2369.86 230.574 2370.1 230.215L2380.06 215.593C2380.26 215.301 2380.45 214.976 2380.63 214.623L2391.1 193.578C2391.46 192.838 2391.77 191.977 2392.01 191.028L2399.81 160.277C2400.12 159.054 2400.31 157.707 2400.37 156.321L2402.28 108.782C2402.84 102.72 2406.35 100.455 2408.39 104.827L2408.92 105.946L2425.46 149.137C2426.34 151.429 2427.65 152.785 2429.03 152.847L2489.93 155.586H2535.64C2537.35 155.586 2538.93 153.613 2539.77 150.426L2544.13 133.872C2544.3 133.221 2544.44 132.533 2544.54 131.818L2546.26 119.589C2546.34 119.005 2546.4 118.405 2546.43 117.799L2547.6 95.2959C2547.67 93.9166 2547.93 92.6127 2548.35 91.5466C2549.72 88.0373 2552.26 88.1765 2553.54 91.831L2554.53 94.6437C2554.85 95.5529 2555.09 96.5731 2555.25 97.6594L2560.33 132.893L2566.13 170.06C2566.24 170.809 2566.4 171.526 2566.6 172.197L2577.31 209.081C2577.92 211.167 2578.86 212.712 2579.96 213.426L2593.53 222.245L2614.12 242.101L2637.65 264.444C2637.9 264.677 2638.13 264.953 2638.36 265.272L2655.66 289.909C2655.85 290.184 2656.04 290.491 2656.21 290.825L2669.19 315.91C2669.66 316.808 2670.03 317.894 2670.3 319.106L2674.76 339.334C2675.06 340.682 2675.21 342.153 2675.21 343.645Z" fill="#9001B4" stroke="#9001B4"/>
<path d="M2476.7 233.779L2478.36 240.823C2478.55 241.62 2478.69 242.466 2478.77 243.339L2478.81 243.785C2479.12 247.07 2478.64 250.465 2477.52 252.834L2477.04 253.851C2476.78 254.387 2476.5 254.861 2476.2 255.263L2471.73 261.167C2471.47 261.508 2471.2 261.793 2470.92 262.024L2463.53 268.028C2462.99 268.471 2462.41 268.696 2461.83 268.696H2443.82C2443.58 268.696 2443.33 268.656 2443.08 268.574L2431.47 264.697C2431.05 264.557 2430.64 264.296 2430.25 263.922L2424.83 258.716C2423.98 257.901 2423.27 256.575 2422.77 254.905L2421.33 250.013C2420.61 247.608 2420.42 244.678 2420.79 241.951L2421.05 240.04C2421.36 237.699 2422.07 235.681 2423.04 234.365L2429.93 225.004C2430.52 224.194 2431.2 223.676 2431.9 223.49L2441.46 220.965H2456.73L2468.49 223.583C2469.06 223.708 2469.61 224.048 2470.12 224.585L2474.58 229.299C2475.49 230.268 2476.24 231.84 2476.7 233.779Z" fill="#B7B7B7"/>
<path d="M2462.75 229.179L2471.64 235.293C2472.19 235.673 2472.7 236.309 2473.12 237.154L2473.17 237.245C2474.51 239.943 2474.74 244.29 2473.72 247.555C2473.38 248.648 2472.91 249.549 2472.37 250.178L2467.92 255.33C2467.51 255.801 2467.07 256.143 2466.62 256.346L2454.74 261.646C2454.38 261.803 2454.02 261.875 2453.66 261.86L2440.32 261.282C2440.02 261.269 2439.72 261.197 2439.43 261.065L2428.89 256.333C2427.19 255.568 2425.82 252.889 2425.33 249.357L2425.09 247.643C2424.82 245.677 2424.84 243.58 2425.14 241.636L2425.19 241.334C2425.7 238.124 2426.94 235.674 2428.49 234.821L2438.71 229.191C2438.92 229.071 2439.14 228.984 2439.37 228.931L2450 226.384C2450.34 226.303 2450.68 226.299 2451.02 226.374L2461.77 228.742C2462.1 228.815 2462.43 228.961 2462.75 229.179Z" fill="black"/>
<path d="M2554.31 237.944L2557.16 244.976C2557.5 245.809 2557.77 246.755 2557.96 247.775L2558.29 249.533C2558.75 251.922 2558.75 254.587 2558.29 256.976L2558.13 257.821C2557.83 259.429 2557.33 260.841 2556.69 261.923L2554.66 265.363C2554.45 265.714 2554.23 266.026 2554 266.298L2548.76 272.457C2548.5 272.757 2548.23 273.008 2547.96 273.203L2541.27 277.914C2540.7 278.316 2540.1 278.485 2539.49 278.412L2529.52 277.171C2529.25 277.137 2528.98 277.054 2528.72 276.922L2518.26 271.72C2517.97 271.577 2517.69 271.376 2517.42 271.123L2506.68 261.028C2506.15 260.529 2505.66 259.828 2505.25 258.958L2501.54 251.106C2500.9 249.758 2500.46 248.055 2500.26 246.195L2499.74 241.213C2499.42 238.183 2499.78 235.011 2500.72 232.626L2501.73 230.062C2502.27 228.701 2502.97 227.665 2503.75 227.06L2509.21 222.862C2509.64 222.535 2510.09 222.338 2510.54 222.279L2520.48 220.965L2534.62 222.323C2534.93 222.353 2535.25 222.45 2535.55 222.612L2545.21 227.718C2545.55 227.895 2545.87 228.149 2546.18 228.476L2552.83 235.503C2553.39 236.1 2553.9 236.93 2554.31 237.944Z" fill="#B7B7B7"/>
<path d="M2541.86 233.016L2549.36 242.411C2550 243.204 2550.53 244.296 2550.93 245.603L2551.12 246.226C2552.13 249.532 2552.13 253.78 2551.12 257.086L2550.99 257.505C2550.56 258.941 2549.95 260.118 2549.24 260.92L2545.37 265.26C2544.86 265.834 2544.31 266.205 2543.73 266.355L2533.04 269.16C2532.57 269.282 2532.1 269.257 2531.64 269.087L2519.81 264.725C2519.44 264.588 2519.08 264.361 2518.74 264.046L2509.45 255.516C2507.92 254.118 2506.86 251.138 2506.64 247.66L2506.33 242.817C2506.23 241.229 2506.31 239.612 2506.56 238.104L2506.89 236.17C2507.46 232.815 2508.83 230.351 2510.49 229.699L2519.64 226.097C2519.93 225.984 2520.22 225.928 2520.51 225.928H2530.04C2530.48 225.928 2530.92 226.058 2531.34 226.315L2540.75 232.005C2541.14 232.241 2541.51 232.58 2541.86 233.016Z" fill="black"/>
<path d="M2380.36 190.08L2394.77 213.193C2397.23 217.138 2397.28 224.922 2394.87 228.999L2389.66 237.812M2389.66 237.812L2375.74 207.055C2375.29 206.045 2374.73 205.248 2374.12 204.716L2363.76 195.696M2389.66 237.812L2382.31 246.551C2380.39 248.833 2377.98 248.02 2376.49 244.588L2372.06 234.374C2371.84 233.86 2371.59 233.396 2371.33 232.991L2368.04 228.03C2367.41 227.079 2366.68 226.468 2365.91 226.252L2357.12 223.773" stroke="#9001B4" stroke-width="5"/>
</g>
<g clip-path="url(#clip4_284_143)">
<path d="M3148.07 190.441L3128.24 201.508M3128.24 201.508L3125.14 196.765M3128.24 201.508L3125.91 203.285C3123.72 204.963 3121.39 202.093 3120.53 196.668L3118.32 182.537M3125.14 196.765L3141.87 160.405M3125.14 196.765L3118.32 182.537M3118.32 182.537L3125.14 155.662" stroke="#9001B4" stroke-width="5"/>
<path d="M3216.26 331.749V358.736C3216.26 359.275 3216.25 359.813 3216.22 360.346L3215.18 379.015C3215.08 380.91 3214.79 382.708 3214.34 384.241L3212.07 392.06C3211.57 393.773 3210.89 395.09 3210.12 395.859L3203.97 401.949C3203.49 402.424 3202.98 402.681 3202.47 402.707L3172.25 404.263L3118.02 401.159C3117.01 401.102 3116.02 401.934 3115.22 403.52L3101.22 431.273C3100.64 432.414 3099.96 433.172 3099.25 433.48L3093.46 435.965C3093.09 436.124 3092.71 436.161 3092.33 436.073L3087.96 435.049C3086.76 434.768 3085.66 433.239 3084.9 430.817L3084.57 429.745C3083.94 427.724 3083.6 425.213 3083.6 422.625V412.236C3083.6 406.032 3081.68 400.967 3079.27 400.84L3028.1 398.122C3025.64 397.99 3023.69 403.469 3023.93 409.782C3024.03 412.388 3023.75 415.01 3023.14 417.105C3022.55 419.124 3021.7 420.526 3020.75 421.054L3014.45 424.531C3013.86 424.858 3013.25 424.869 3012.65 424.563L3004.68 420.456C3004.4 420.31 3004.12 420.089 3003.85 419.801L2997.52 413.009C2997.05 412.506 2996.62 411.801 2996.25 410.922L2991.38 399.516C2990.49 397.445 2989.32 396.385 2988.13 396.573L2959.62 401.07L2913.6 399.97L2854.94 396.165C2854.52 396.138 2854.11 395.958 2853.71 395.631L2849.08 391.832C2848.8 391.602 2848.53 391.302 2848.27 390.935L2843.62 384.277C2843.26 383.762 2842.93 383.122 2842.64 382.373L2840.03 375.66C2839.2 373.523 2838.74 370.624 2838.74 367.601V353.274C2838.74 352.138 2838.8 351.008 2838.93 349.921L2840.95 333.027C2841.13 331.557 2841.42 330.191 2841.8 329.017L2847.82 310.687C2847.96 310.254 2848.12 309.847 2848.29 309.473L2857.67 288.322C2857.86 287.893 2858.06 287.505 2858.28 287.165L2872.21 265.317L2885.23 249.345L2915.61 222.195L2930.72 205.059C2930.98 204.772 2931.22 204.423 2931.45 204.019L2940.74 187.553C2940.93 187.224 2941.11 186.859 2941.27 186.461L2951.04 162.763C2951.39 161.93 2951.68 160.96 2951.9 159.892L2959.18 125.263C2959.47 123.886 2959.65 122.369 2959.7 120.808L2961.48 67.2765C2962.01 60.4496 2965.28 57.8994 2967.19 62.8223L2967.68 64.0821L2983.12 112.719C2983.94 115.3 2985.16 116.827 2986.46 116.897L3043.31 119.981H3085.97C3087.57 119.981 3089.05 117.76 3089.83 114.171L3093.9 95.529C3094.06 94.7965 3094.19 94.0208 3094.28 93.2161L3095.88 79.4458C3095.96 78.7873 3096.01 78.1124 3096.04 77.4293L3097.14 52.0896C3097.2 50.5364 3097.45 49.0682 3097.84 47.8677C3099.11 43.9159 3101.49 44.0727 3102.69 48.1879L3103.61 51.3552C3103.91 52.379 3104.13 53.5279 3104.28 54.7511L3109.02 94.427L3114.43 136.279C3114.54 137.123 3114.69 137.93 3114.87 138.686L3124.88 180.22C3125.44 182.569 3126.32 184.308 3127.35 185.113L3140.01 195.044L3159.23 217.403L3181.2 242.563C3181.43 242.825 3181.65 243.136 3181.86 243.496L3198.01 271.238C3198.19 271.548 3198.37 271.894 3198.53 272.27L3210.65 300.518C3211.08 301.529 3211.43 302.752 3211.68 304.116L3215.84 326.895C3216.12 328.413 3216.26 330.069 3216.26 331.749Z" fill="#9001B4" stroke="#9001B4"/>
<path d="M3030.95 208.032L3032.51 215.964C3032.68 216.861 3032.81 217.814 3032.89 218.797L3032.93 219.299C3033.22 222.998 3032.76 226.822 3031.72 229.49L3031.27 230.635C3031.03 231.239 3030.77 231.772 3030.48 232.225L3026.31 238.873C3026.07 239.257 3025.82 239.578 3025.56 239.838L3018.66 246.6C3018.15 247.098 3017.62 247.352 3017.07 247.352H3000.26C3000.03 247.352 2999.8 247.307 2999.57 247.215L2988.73 242.848C2988.34 242.69 2987.95 242.397 2987.59 241.976L2982.53 236.113C2981.74 235.195 2981.07 233.702 2980.61 231.821L2979.26 226.313C2978.6 223.605 2978.42 220.305 2978.76 217.234L2979 215.083C2979.3 212.446 2979.96 210.175 2980.86 208.692L2987.29 198.151C2987.85 197.238 2988.48 196.656 2989.14 196.446L2998.06 193.603H3012.31L3023.29 196.55C3023.82 196.692 3024.34 197.074 3024.81 197.679L3028.97 202.987C3029.83 204.079 3030.52 205.849 3030.95 208.032Z" fill="#B7B7B7"/>
<path d="M3017.93 202.852L3026.23 209.737C3026.75 210.164 3027.22 210.88 3027.61 211.833L3027.65 211.935C3028.91 214.973 3029.13 219.868 3028.17 223.545C3027.85 224.776 3027.42 225.79 3026.91 226.499L3022.76 232.3C3022.38 232.83 3021.97 233.215 3021.54 233.444L3010.45 239.413C3010.12 239.589 3009.79 239.67 3009.45 239.653L2996.99 239.003C2996.71 238.988 2996.43 238.907 2996.16 238.758L2986.32 233.429C2984.73 232.567 2983.46 229.551 2983 225.574L2982.78 223.644C2982.52 221.43 2982.54 219.069 2982.83 216.88L2982.87 216.539C2983.35 212.925 2984.5 210.166 2985.95 209.205L2995.49 202.865C2995.69 202.731 2995.9 202.633 2996.1 202.573L3006.03 199.705C3006.34 199.613 3006.66 199.609 3006.98 199.693L3017.02 202.359C3017.33 202.442 3017.63 202.607 3017.93 202.852Z" fill="black"/>
<path d="M3103.4 212.722L3106.06 220.64C3106.38 221.579 3106.63 222.644 3106.81 223.793L3107.12 225.773C3107.54 228.462 3107.54 231.463 3107.12 234.153L3106.97 235.105C3106.69 236.916 3106.23 238.506 3105.63 239.725L3103.73 243.599C3103.54 243.993 3103.33 244.345 3103.12 244.652L3098.22 251.586C3097.98 251.925 3097.73 252.207 3097.47 252.427L3091.23 257.731C3090.7 258.185 3090.13 258.375 3089.57 258.292L3080.27 256.895C3080.01 256.857 3079.76 256.763 3079.51 256.615L3069.75 250.757C3069.48 250.595 3069.22 250.37 3068.97 250.084L3058.94 238.717C3058.44 238.155 3057.99 237.365 3057.61 236.385L3054.14 227.543C3053.54 226.026 3053.13 224.108 3052.95 222.013L3052.46 216.404C3052.16 212.991 3052.5 209.419 3053.38 206.734L3054.32 203.846C3054.82 202.314 3055.47 201.148 3056.21 200.466L3061.31 195.739C3061.7 195.371 3062.12 195.149 3062.54 195.082L3071.82 193.603L3085.02 195.132C3085.31 195.166 3085.61 195.275 3085.89 195.457L3094.91 201.207C3095.22 201.406 3095.53 201.693 3095.82 202.061L3102.02 209.973C3102.55 210.646 3103.02 211.58 3103.4 212.722Z" fill="#B7B7B7"/>
<path d="M3091.78 207.173L3098.78 217.753C3099.38 218.645 3099.88 219.875 3100.25 221.347L3100.43 222.048C3101.37 225.771 3101.37 230.555 3100.43 234.277L3100.31 234.749C3099.9 236.367 3099.33 237.692 3098.67 238.595L3095.06 243.482C3094.59 244.129 3094.07 244.546 3093.53 244.715L3083.55 247.875C3083.11 248.012 3082.67 247.984 3082.24 247.792L3071.2 242.88C3070.86 242.726 3070.52 242.47 3070.2 242.115L3061.52 232.51C3060.1 230.936 3059.11 227.58 3058.9 223.663L3058.61 218.21C3058.52 216.422 3058.59 214.601 3058.83 212.902L3059.14 210.725C3059.67 206.947 3060.95 204.172 3062.49 203.438L3071.04 199.382C3071.31 199.255 3071.58 199.191 3071.85 199.191H3080.75C3081.16 199.191 3081.57 199.338 3081.96 199.627L3090.74 206.035C3091.1 206.3 3091.45 206.683 3091.78 207.173Z" fill="black"/>
<path d="M2941.02 158.823L2954.48 184.85C2956.77 189.292 2956.82 198.058 2954.57 202.649L2949.7 212.573M2949.7 212.573L2936.71 177.938C2936.28 176.8 2935.77 175.903 2935.2 175.304L2925.53 165.147M2949.7 212.573L2942.84 222.413C2941.05 224.983 2938.8 224.068 2937.41 220.204L2933.28 208.701C2933.07 208.122 2932.84 207.6 2932.59 207.144L2929.52 201.558C2928.93 200.486 2928.25 199.799 2927.53 199.555L2919.33 196.764" stroke="#9001B4" stroke-width="5"/>
</g>
<g clip-path="url(#clip5_284_143)">
<path d="M3693.8 162.095L3675.33 174.428M3675.33 174.428L3672.44 169.142M3675.33 174.428L3673.16 176.409C3671.12 178.28 3668.94 175.08 3668.15 169.035L3666.09 153.285M3672.44 169.142L3688.03 128.619M3672.44 169.142L3666.09 153.285M3666.09 153.285L3672.44 123.333" stroke="#9001B4" stroke-width="5"/>
<path d="M3757.31 319.583V349.659C3757.31 350.261 3757.3 350.86 3757.27 351.455L3756.31 372.261C3756.21 374.373 3755.94 376.376 3755.52 378.085L3753.41 386.799C3752.94 388.709 3752.31 390.176 3751.59 391.034L3745.86 397.821C3745.42 398.351 3744.94 398.637 3744.47 398.666L3716.32 400.4L3665.81 396.941C3664.87 396.877 3663.95 397.804 3663.2 399.572L3650.16 430.502C3649.62 431.775 3648.99 432.62 3648.33 432.963L3642.94 435.732C3642.59 435.91 3642.24 435.95 3641.89 435.853L3637.81 434.711C3636.69 434.398 3635.67 432.694 3634.97 429.994L3634.66 428.8C3634.07 426.548 3633.75 423.749 3633.75 420.865V409.286C3633.75 402.371 3631.96 396.727 3629.72 396.585L3582.06 393.555C3579.77 393.409 3577.95 399.515 3578.18 406.551C3578.27 409.455 3578.01 412.377 3577.44 414.712C3576.89 416.963 3576.1 418.525 3575.21 419.114L3569.34 422.989C3568.79 423.353 3568.22 423.365 3567.67 423.024L3560.25 418.447C3559.98 418.284 3559.72 418.039 3559.47 417.717L3553.58 410.148C3553.14 409.587 3552.74 408.801 3552.39 407.821L3547.86 395.109C3547.03 392.802 3545.94 391.62 3544.83 391.83L3518.28 396.841L3475.42 395.615L3420.78 391.375C3420.39 391.345 3420 391.144 3419.63 390.78L3415.32 386.545C3415.06 386.289 3414.8 385.955 3414.57 385.546L3410.23 378.125C3409.9 377.551 3409.59 376.838 3409.32 376.004L3406.89 368.522C3406.12 366.14 3405.69 362.909 3405.69 359.54V343.572C3405.69 342.306 3405.75 341.047 3405.87 339.836L3407.75 321.007C3407.91 319.369 3408.18 317.846 3408.54 316.538L3414.15 296.109C3414.28 295.626 3414.43 295.173 3414.58 294.756L3423.32 271.183C3423.5 270.705 3423.69 270.273 3423.89 269.894L3436.87 245.544L3448.99 227.743L3477.28 197.484L3491.36 178.386C3491.6 178.066 3491.82 177.678 3492.04 177.227L3500.69 158.876C3500.87 158.509 3501.03 158.102 3501.18 157.658L3510.29 131.247C3510.61 130.319 3510.88 129.238 3511.09 128.047L3517.87 89.454C3518.14 87.9186 3518.3 86.2282 3518.35 84.4885L3520.01 24.8272C3520.5 17.2186 3523.55 14.3764 3525.33 19.863L3525.78 21.2671L3540.17 75.4733C3540.93 78.3497 3542.07 80.0513 3543.27 80.1294L3596.22 83.5662H3635.96C3637.45 83.5662 3638.82 81.0908 3639.55 77.0908L3643.34 56.3148C3643.49 55.4984 3643.61 54.6339 3643.7 53.7371L3645.19 38.3899C3645.27 37.6561 3645.31 36.9039 3645.34 36.1425L3646.36 7.90142C3646.42 6.17035 3646.65 4.53404 3647.01 3.19601C3648.2 -1.20826 3650.41 -1.03353 3651.53 3.55295L3652.39 7.08291C3652.67 8.22395 3652.88 9.50439 3653.01 10.8676L3657.43 55.0866L3662.47 101.731C3662.57 102.671 3662.71 103.571 3662.88 104.413L3672.2 150.703C3672.72 153.321 3673.54 155.26 3674.5 156.157L3686.29 167.225L3704.19 192.144L3724.66 220.184C3724.87 220.477 3725.08 220.824 3725.27 221.224L3740.32 252.144C3740.48 252.489 3740.64 252.874 3740.8 253.293L3752.08 284.776C3752.49 285.902 3752.81 287.266 3753.05 288.786L3756.92 314.173C3757.18 315.865 3757.31 317.711 3757.31 319.583Z" fill="#9001B4" stroke="#9001B4"/>
<path d="M3584.71 181.7L3586.16 190.541C3586.33 191.54 3586.45 192.602 3586.52 193.698L3586.55 194.257C3586.82 198.38 3586.4 202.642 3585.43 205.614L3585.01 206.891C3584.79 207.564 3584.54 208.158 3584.28 208.663L3580.39 216.072C3580.17 216.5 3579.93 216.858 3579.69 217.147L3573.27 224.684C3572.79 225.239 3572.29 225.522 3571.79 225.522H3556.13C3555.92 225.522 3555.7 225.472 3555.49 225.369L3545.39 220.503C3545.02 220.327 3544.67 220 3544.33 219.53L3539.62 212.996C3538.88 211.973 3538.26 210.309 3537.83 208.213L3536.57 202.074C3535.95 199.056 3535.78 195.378 3536.1 191.956L3536.33 189.558C3536.6 186.62 3537.22 184.088 3538.06 182.435L3544.05 170.687C3544.57 169.67 3545.16 169.021 3545.77 168.787L3554.08 165.618H3567.36L3577.58 168.903C3578.07 169.061 3578.55 169.487 3578.99 170.162L3582.87 176.077C3583.67 177.294 3584.31 179.267 3584.71 181.7Z" fill="#B7B7B7"/>
<path d="M3572.59 175.926L3580.32 183.6C3580.8 184.076 3581.24 184.874 3581.61 185.936L3581.64 186.049C3582.81 189.436 3583.01 194.891 3582.13 198.989C3581.83 200.361 3581.42 201.491 3580.95 202.281L3577.08 208.747C3576.73 209.338 3576.35 209.766 3575.95 210.022L3565.62 216.674C3565.31 216.871 3565 216.961 3564.69 216.942L3553.08 216.217C3552.82 216.2 3552.57 216.11 3552.31 215.944L3543.15 210.005C3541.67 209.045 3540.48 205.683 3540.05 201.251L3539.84 199.1C3539.61 196.631 3539.62 194 3539.89 191.561L3539.93 191.181C3540.37 187.153 3541.45 184.078 3542.8 183.007L3551.68 175.942C3551.87 175.791 3552.06 175.682 3552.26 175.615L3561.5 172.419C3561.8 172.317 3562.09 172.312 3562.39 172.406L3571.74 175.378C3572.03 175.469 3572.31 175.653 3572.59 175.926Z" fill="black"/>
<path d="M3652.19 186.927L3654.67 195.752C3654.97 196.798 3655.2 197.985 3655.37 199.265L3655.66 201.472C3656.05 204.47 3656.05 207.814 3655.66 210.812L3655.52 211.873C3655.26 213.891 3654.83 215.664 3654.27 217.022L3652.5 221.339C3652.32 221.779 3652.13 222.171 3651.93 222.512L3647.37 230.241C3647.15 230.619 3646.91 230.933 3646.67 231.178L3640.86 237.09C3640.36 237.595 3639.84 237.807 3639.31 237.715L3630.65 236.158C3630.41 236.116 3630.17 236.011 3629.94 235.845L3620.85 229.317C3620.6 229.137 3620.36 228.885 3620.12 228.567L3610.78 215.898C3610.32 215.272 3609.9 214.392 3609.54 213.3L3606.31 203.445C3605.76 201.754 3605.37 199.616 3605.2 197.282L3604.75 191.03C3604.47 187.227 3604.79 183.246 3605.6 180.253L3606.48 177.035C3606.95 175.327 3607.55 174.028 3608.24 173.268L3612.99 168C3613.36 167.589 3613.75 167.342 3614.14 167.267L3622.78 165.618L3635.07 167.323C3635.35 167.361 3635.62 167.482 3635.89 167.685L3644.29 174.093C3644.58 174.316 3644.86 174.635 3645.13 175.045L3650.91 183.863C3651.4 184.613 3651.84 185.654 3652.19 186.927Z" fill="#B7B7B7"/>
<path d="M3641.37 180.742L3647.89 192.534C3648.44 193.528 3648.91 194.899 3649.26 196.539L3649.42 197.321C3650.3 201.47 3650.3 206.802 3649.42 210.95L3649.31 211.476C3648.93 213.279 3648.41 214.756 3647.78 215.762L3644.43 221.209C3643.98 221.93 3643.5 222.395 3643 222.583L3633.7 226.104C3633.3 226.257 3632.89 226.226 3632.49 226.012L3622.2 220.538C3621.88 220.366 3621.57 220.081 3621.27 219.685L3613.19 208.98C3611.86 207.226 3610.94 203.486 3610.75 199.12L3610.48 193.043C3610.39 191.05 3610.46 189.021 3610.68 187.128L3610.97 184.7C3611.46 180.49 3612.65 177.398 3614.09 176.58L3622.06 172.059C3622.3 171.918 3622.56 171.847 3622.81 171.847H3631.09C3631.48 171.847 3631.86 172.01 3632.23 172.332L3640.4 179.474C3640.74 179.769 3641.06 180.196 3641.37 180.742Z" fill="black"/>
<path d="M3500.96 126.857L3513.49 155.865C3515.62 160.815 3515.67 170.584 3513.57 175.701L3509.04 186.762M3509.04 186.762L3496.94 148.161C3496.54 146.893 3496.06 145.893 3495.53 145.225L3486.52 133.905M3509.04 186.762L3502.65 197.729C3500.98 200.593 3498.89 199.573 3497.59 195.266L3493.74 182.447C3493.55 181.801 3493.33 181.22 3493.1 180.711L3490.24 174.485C3489.69 173.291 3489.06 172.525 3488.39 172.253L3480.75 169.143" stroke="#9001B4" stroke-width="5"/>
</g>
<defs>
<clipPath id="clip0_284_143">
<rect width="514" height="239" fill="white" transform="translate(554 199)"/>
</clipPath>
<clipPath id="clip1_284_143">
<rect width="480" height="260" fill="white" transform="translate(1125 178)"/>
</clipPath>
<clipPath id="clip2_284_143">
<rect width="445" height="307" fill="white" transform="translate(1698 131)"/>
</clipPath>
<clipPath id="clip3_284_143">
<rect width="406" height="349" fill="white" transform="translate(2270 89)"/>
</clipPath>
<clipPath id="clip4_284_143">
<rect width="379" height="393" fill="white" transform="translate(2838 45)"/>
</clipPath>
<clipPath id="clip5_284_143">
<rect width="353" height="438" fill="white" transform="translate(3405)"/>
</clipPath>
</defs>
</svg>
