<svg width="514" height="522" viewBox="0 0 514 522" fill="none" xmlns="http://www.w3.org/2000/svg">
<path d="M20.3633 190.694L48.4815 206.145L42.7172 228.712M42.7172 228.712L11.4775 217.483M42.7172 228.712L39.9366 243.593L8.61785 248.254" stroke="#9001B4" stroke-width="6"/>
<path d="M306.065 174.703L291.319 178.837C290.201 179.15 289.133 179.618 288.144 180.227L274.415 188.683L281.688 209.77M281.688 209.77L285.813 223.968L320.861 226.65M281.688 209.77L297.531 203.503C298.492 203.122 299.498 202.863 300.524 202.731L316.527 200.666" stroke="#9001B4" stroke-width="6"/>
<path d="M108.47 105L89 138.917H120.302H171.169C198.958 138.917 226.71 140.909 254.214 144.876L302.9 151.9L245.512 138.917L302.9 111.653H225.948L274.206 84.3889H205.08L245.512 40.247L182.907 63.6162L235.078 0L192.476 23.0631C171.463 34.4393 152.495 49.2428 136.355 66.8636C125.686 78.5116 116.334 91.3011 108.47 105Z" fill="#9001B4"/>
<path d="M74.4346 97.5321L77.1316 84.13L82.6287 97.3008L93.8832 132.861L232.158 128.958L235.718 73.5032L266.566 149.513L294.688 237.901L310.328 283.588L319.91 332.521L329.347 376.333L333.965 394.654L336.534 413.033L340.792 454.94L376.331 446.862L376.331 424.13L390.555 419.628L387.69 405.219L407.534 403.773L389.357 382.71L406.522 367.924L390.555 353.532L402.842 346.501L400.624 330.444L412.766 334.945L427.706 315.183L440.364 332.116L464.388 329.355L463.36 347.868L495.233 361.869L486.848 381.033L511.073 403.773L492.188 424.96L505.238 446.069L463.36 484.378L443.546 498.55L411.867 506.887L329.095 512.675L251.107 509.751L156.818 510.362L103.44 507.768L57.2331 504.972L26.3608 500.718L11.761 491.905L11.2117 472.444L13.1569 432.411L15.0732 391.354L18.1873 356.414L26.2492 315.183L29.4789 284.34L34.6993 251.39L40.9728 219.435L50.1746 182.273L60.5452 150.203L74.4346 97.5321Z" fill="black" stroke="black" stroke-width="0.41226"/>
<path d="M70.8399 211.912L82.4721 201.8C82.6802 201.619 82.9169 201.474 83.1727 201.372L93.836 197.087C93.9823 197.028 94.1339 196.983 94.2888 196.953L106.61 194.571C106.742 194.546 106.876 194.531 107.01 194.527L123.348 194.066C123.706 194.056 124.062 194.124 124.391 194.265L135.109 198.852C135.32 198.942 135.518 199.062 135.697 199.208L144.177 206.11L150.787 212.572C151.246 213.021 151.513 213.63 151.531 214.271L151.775 222.912C151.791 223.48 151.611 224.036 151.265 224.486L143.78 234.255C143.631 234.45 143.453 234.621 143.254 234.764L128.532 245.267C128.307 245.427 128.058 245.548 127.794 245.626L108.646 251.261C108.49 251.307 108.33 251.338 108.169 251.352L92.0773 252.8C91.6081 252.842 91.1366 252.749 90.7183 252.533L74.6509 244.213C74.2318 243.996 73.8835 243.663 73.6472 243.255L68.3317 234.065C68.1258 233.709 68.0119 233.308 68.0003 232.897L67.7017 222.317C67.6949 222.076 67.7234 221.835 67.7864 221.602L70.0748 213.134C70.2029 212.66 70.4692 212.235 70.8399 211.912Z" fill="#999999"/>
<path d="M73.9839 222.139L76.2952 213.331C76.3979 212.94 76.5951 212.579 76.8695 212.282L78.9226 210.056C79.1301 209.831 79.3777 209.646 79.6526 209.512L87.7298 205.555L100.078 200.466C100.355 200.352 100.651 200.289 100.951 200.28L117.338 199.818C117.581 199.811 117.824 199.84 118.059 199.904L130.277 203.24C130.57 203.32 130.847 203.454 131.092 203.634L140.52 210.575C140.823 210.798 141.071 211.087 141.245 211.42L144.971 218.538C145.324 219.213 145.347 220.013 145.032 220.707L140.435 230.842C140.234 231.286 139.906 231.661 139.492 231.919L130.466 237.552C130.325 237.639 130.177 237.713 130.022 237.771L116.365 242.87C116.158 242.947 115.942 242.996 115.722 243.016L100.635 244.381C100.417 244.401 100.199 244.391 99.9838 244.354L86.2875 241.948C86.0209 241.901 85.7638 241.81 85.5264 241.68L76.7788 236.885C76.0888 236.507 75.6199 235.823 75.516 235.042L73.9245 223.094C73.8821 222.775 73.9022 222.451 73.9839 222.139Z" fill="black"/>
<path d="M254.236 231.19L240.767 239.644C240.379 239.888 239.922 240.005 239.451 239.981L224.847 239.224L211.598 238.059C211.477 238.048 211.356 238.028 211.236 237.999L194.185 233.862C194.016 233.821 193.85 233.761 193.689 233.685L181.321 227.782C180.959 227.609 180.636 227.352 180.379 227.033L173.544 218.547C173.368 218.33 173.227 218.087 173.124 217.828L169.526 208.751C169.349 208.306 169.294 207.827 169.367 207.37L170.694 198.991C170.788 198.393 171.096 197.868 171.557 197.516L181.025 190.288C181.12 190.215 181.222 190.15 181.328 190.093L195.167 182.758C195.407 182.63 195.67 182.548 195.944 182.515L207.218 181.147C207.493 181.114 207.774 181.13 208.051 181.195L219.974 184.008L236.967 187.131C237.394 187.209 237.801 187.401 238.148 187.687L253.104 200.026C253.478 200.335 253.768 200.742 253.938 201.199L257.81 211.621C257.884 211.82 257.934 212.025 257.96 212.233L259.054 221.14C259.114 221.626 259.036 222.109 258.831 222.53L255.052 230.277C254.868 230.656 254.586 230.97 254.236 231.19Z" fill="#999999"/>
<path d="M253.746 218.68L245.529 227.799C245.411 227.93 245.278 228.046 245.132 228.145L242.383 230.013C242.144 230.175 241.875 230.289 241.589 230.349L232.703 232.193L219.097 234.092C218.938 234.114 218.776 234.12 218.614 234.109L201.956 232.971C201.644 232.949 201.333 232.867 201.042 232.727L188.409 226.653C187.956 226.435 187.567 226.088 187.291 225.655L179.665 213.689C179.54 213.493 179.441 213.283 179.369 213.065L176.697 204.924C176.442 204.147 176.556 203.319 177.005 202.697L183.33 193.927C183.606 193.544 183.993 193.262 184.442 193.118L194.582 189.859C194.73 189.812 194.883 189.78 195.039 189.763L209.803 188.213C210.009 188.192 210.218 188.197 210.426 188.231L226.349 190.78L238.968 193.66C239.261 193.726 239.544 193.847 239.802 194.015L252.564 202.306C253.304 202.786 253.777 203.609 253.813 204.48L254.337 216.984C254.363 217.623 254.152 218.23 253.746 218.68Z" fill="black"/>
<path d="M376 446.5L341 454.5L331.5 512.5L412 507L443.5 498.5L462.5 485L505.5 446L492 425L511.5 403.5L487.5 381L495.5 362L463.5 347.5L465 329L440 332L428 315L412.5 335L400.5 330L403 346L390.5 353.5L406.5 367.5L389 382.5L407.5 403.5L387.5 405L390.5 419.5L376 424V446.5Z" fill="url(#paint0_linear_439_216)"/>
<defs>
<linearGradient id="paint0_linear_439_216" x1="524.5" y1="438" x2="312.5" y2="471.5" gradientUnits="userSpaceOnUse">
<stop offset="0.546114" stop-color="#9001B4"/>
<stop offset="1" stop-opacity="0"/>
</linearGradient>
</defs>
</svg>
