<svg width="528" height="249" viewBox="0 0 528 249" fill="none" xmlns="http://www.w3.org/2000/svg">
<path d="M95.447 135.242L123.1 129.386M123.1 129.386L127.397 132.003M123.1 129.386L126.34 128.437C129.4 127.541 132.638 129.13 133.803 132.099L136.837 139.832M127.397 132.003L103.967 151.694M127.397 132.003L136.837 139.832M136.837 139.832L127.247 154.438" stroke="black" stroke-width="5.13192"/>
<path d="M1.04955 56.4366L1.14668 41.8561C1.14862 41.5647 1.17124 41.2738 1.21437 40.9856L2.72231 30.9099C2.87552 29.8862 3.28429 28.9176 3.91086 28.0937L7.10695 23.8908C7.80753 22.9696 8.75354 22.2644 9.83651 21.8561L18.4149 18.6222C19.0834 18.3702 19.7907 18.2364 20.5051 18.2269L62.5753 17.6658L138.053 19.8462C139.458 19.8867 140.834 19.4458 141.953 18.5965L161.545 3.73232C162.352 3.12061 163.296 2.71704 164.296 2.55732L172.357 1.26883C172.877 1.18583 173.404 1.16969 173.928 1.22078L180.015 1.81504C181.683 1.9779 183.212 2.81358 184.25 4.12926L184.71 4.71155C185.576 5.8093 186.043 7.16917 186.034 8.56752L185.996 14.181C185.974 17.5326 188.636 20.2866 191.987 20.378L263.201 22.321C266.627 22.4145 269.362 19.4726 269.044 16.0601C268.913 14.6508 269.315 13.237 270.171 12.1104C270.996 11.0255 272.186 10.2755 273.52 9.99884L282.299 8.17871C283.123 8.00789 283.973 8.00773 284.797 8.17824L295.877 10.471C296.274 10.5532 296.662 10.6744 297.036 10.8329L305.818 14.5612C306.468 14.837 307.066 15.2225 307.585 15.7008L314.322 21.9084C315.545 23.0347 317.171 23.619 318.831 23.5285L358.533 21.3631L422.584 22.3844L504.224 24.9837C504.806 25.0022 505.382 25.1031 505.935 25.2833L512.37 27.379C512.759 27.5055 513.134 27.6705 513.49 27.8713L519.941 31.5116C520.439 31.7928 520.896 32.1421 521.298 32.5494L524.9 36.2001C526.048 37.3627 526.686 38.9334 526.675 40.5667L526.623 48.3073C526.619 48.9212 526.523 49.531 526.339 50.1166L523.47 59.2257C523.22 60.0189 522.812 60.7533 522.27 61.3846L513.825 71.2315C513.625 71.4649 513.408 71.683 513.175 71.8839L500.04 83.2235C499.772 83.4544 499.486 83.6619 499.182 83.8436L479.711 95.5187L461.533 104.027L419.154 118.414L398.051 127.532C397.697 127.685 397.358 127.871 397.039 128.088L384.04 136.897C383.78 137.074 383.534 137.269 383.304 137.483L369.615 150.196C369.134 150.643 368.727 151.164 368.41 151.739L358.152 170.381C357.744 171.122 357.493 171.94 357.415 172.783L354.743 201.689C353.981 205.372 349.421 206.72 346.779 204.042L346.103 203.357L324.778 176.936C323.646 175.534 321.957 174.698 320.156 174.648L241.032 172.455L181.643 172.059C179.418 172.044 177.359 173.231 176.255 175.162L170.522 185.196C170.297 185.591 170.116 186.009 169.983 186.442L167.701 193.868C167.592 194.223 167.516 194.587 167.472 194.956L165.86 208.636C165.761 209.474 165.418 210.265 164.873 210.91C163.079 213.034 159.774 212.927 158.121 210.692L156.849 208.973C156.438 208.417 156.126 207.794 155.927 207.132L149.474 185.652L142.088 162.989C141.939 162.533 141.737 162.095 141.486 161.685L127.707 139.152C126.928 137.878 125.712 136.93 124.286 136.485L106.692 131.002L80.0234 118.744L49.5289 104.947C49.2112 104.803 48.9063 104.633 48.6174 104.437L26.2338 89.2985C25.983 89.1289 25.7451 88.941 25.5219 88.7364L8.75524 73.3622C8.15487 72.8117 7.66968 72.1475 7.32776 71.4082L1.61823 59.0627C1.23769 58.2398 1.04351 57.3432 1.04955 56.4366Z" fill="black" stroke="black" stroke-width="1.02638"/>
<path d="M258.536 126.726L256.401 122.382C256.159 121.891 255.984 121.37 255.88 120.833L255.827 120.558C255.437 118.537 256.083 116.454 257.548 115.007L258.178 114.386C258.51 114.059 258.877 113.77 259.274 113.526L265.105 109.935C265.44 109.729 265.794 109.555 266.162 109.417L275.785 105.789C276.492 105.522 277.243 105.388 277.998 105.393L301.396 105.549C301.717 105.551 302.038 105.578 302.355 105.631L317.431 108.114C317.979 108.204 318.512 108.368 319.015 108.601L326.034 111.848C327.133 112.357 328.058 113.178 328.693 114.208L330.552 117.228C331.466 118.712 331.708 120.515 331.218 122.188L330.874 123.36C330.454 124.796 329.524 126.03 328.26 126.831L319.272 132.525C318.494 133.018 317.615 133.33 316.7 133.438L304.272 134.908L284.426 134.775L269.152 133.065C268.418 132.982 267.705 132.769 267.047 132.434L261.272 129.499C260.084 128.895 259.124 127.922 258.536 126.726Z" fill="#B7B7B7"/>
<path d="M276.646 129.674L265.112 125.839C264.396 125.601 263.742 125.206 263.199 124.682L263.141 124.626C261.407 122.956 261.122 120.283 262.465 118.285C262.914 117.616 263.52 117.066 264.229 116.684L270.034 113.556C270.565 113.27 271.134 113.064 271.724 112.943L287.185 109.788C287.645 109.694 288.114 109.653 288.583 109.666L305.923 110.137C306.31 110.147 306.696 110.194 307.075 110.277L320.749 113.278C322.959 113.763 324.725 115.421 325.349 117.596L325.651 118.651C325.999 119.862 325.966 121.151 325.558 122.343L325.494 122.528C324.821 124.497 323.198 125.992 321.182 126.503L307.884 129.875C307.601 129.947 307.313 129.998 307.023 130.029L293.202 131.503C292.76 131.55 292.313 131.549 291.871 131.5L277.911 129.951C277.481 129.904 277.057 129.811 276.646 129.674Z" fill="black"/>
<path d="M157.707 123.495L154.031 119.148C153.595 118.633 153.247 118.049 153 117.421L152.575 116.337C151.998 114.865 152.009 113.227 152.606 111.763L152.817 111.244C153.219 110.259 153.869 109.394 154.705 108.735L157.361 106.639C157.632 106.425 157.919 106.235 158.222 106.07L165.06 102.33C165.394 102.147 165.745 101.996 166.107 101.878L174.812 99.0405C175.557 98.7977 176.342 98.6993 177.123 98.7505L190.072 99.5988C190.426 99.6219 190.776 99.6755 191.12 99.7588L204.688 103.047C205.061 103.137 205.426 103.263 205.776 103.421L219.693 109.718C220.382 110.03 221.007 110.465 221.538 111.003L226.333 115.862C227.155 116.696 227.723 117.747 227.97 118.892L228.63 121.958C229.031 123.823 228.545 125.77 227.314 127.227L225.99 128.795C225.288 129.626 224.377 130.257 223.351 130.622L216.239 133.155C215.684 133.352 215.104 133.469 214.516 133.502L201.591 134.224L183.229 133.266C182.819 133.245 182.413 133.183 182.016 133.081L169.485 129.859C169.049 129.747 168.628 129.588 168.227 129.384L159.618 125.008C158.887 124.636 158.237 124.122 157.707 123.495Z" fill="#B7B7B7"/>
<path d="M173.868 126.631L164.152 120.791C163.333 120.299 162.639 119.623 162.127 118.816L161.882 118.432C160.585 116.391 160.603 113.78 161.927 111.756L162.094 111.501C162.67 110.621 163.461 109.903 164.393 109.416L169.427 106.783C170.093 106.434 170.818 106.211 171.564 106.123L185.472 104.492C186.076 104.421 186.688 104.44 187.288 104.549L202.641 107.332C203.12 107.419 203.587 107.563 204.032 107.759L216.073 113.082C218.046 113.955 219.418 115.796 219.691 117.935L220.072 120.914C220.196 121.892 220.085 122.884 219.746 123.81L219.312 124.995C218.56 127.053 216.771 128.555 214.615 128.941L202.701 131.076C202.329 131.143 201.951 131.175 201.574 131.173L189.195 131.09C188.622 131.086 188.052 131.003 187.502 130.841L175.306 127.262C174.802 127.114 174.318 126.902 173.868 126.631Z" fill="black"/>
<path d="M383.535 154.42L364.903 140.089C361.723 137.643 361.693 132.858 364.842 130.373L371.65 125.001M371.65 125.001L389.607 144.026C390.196 144.651 390.91 145.146 391.702 145.478L405.13 151.112M371.65 125.001L381.234 119.694C383.737 118.308 386.865 118.828 388.784 120.95L394.498 127.267C394.785 127.585 395.105 127.872 395.452 128.123L399.701 131.201C400.516 131.791 401.463 132.173 402.459 132.312L413.873 133.912" stroke="black" stroke-width="5.13192"/>
<path d="M340 218L323.5 172L246.5 167.5L177 172L165.5 225L184 190.5L190 230L206.5 190.5V211.5L220.5 199.5L233.5 246.5L266.5 194.5L307.5 241.5L305 190.5L340 218Z" fill="#4B4B4B" stroke="black" stroke-width="1.8"/>
</svg>
