<svg width="781" height="781" viewBox="0 0 781 781" fill="none" xmlns="http://www.w3.org/2000/svg">
<path d="M634.939 513.469L638.869 496.559C640.471 489.666 633.133 484.186 626.969 487.671L621.965 490.499M621.965 490.499L608.751 532.762M621.965 490.499L600.157 500.932C598.738 501.611 597.543 502.686 596.718 504.027L585.209 522.741" stroke="black" stroke-width="3"/>
<path d="M725.782 422.748L757.48 402.302C757.726 401.797 763.521 393.042 769.089 377.041L766.82 367.07C767.479 364.455 755.894 356.927 754.104 354.92L744.827 353.86L739.241 354.811C727.405 361.324 725.689 363.236 725.044 363.794L708.457 373.329L641.88 401.477L625.471 387.142C625.082 386.802 624.662 386.501 624.216 386.242L596.291 370.007L618.157 328.238C619.267 325.672 623.295 317.544 623.881 316.927L635.044 300.348L646.221 283.755C649.311 280.078 650.351 275.516 649.704 267.381L644.285 260.324C642.728 259.25 636.961 255.11 635.072 255.28L625.501 253.547C617.856 256.652 613.218 261.905 612.68 262.069L599.581 277.738L557.318 315.077L507.589 324.348L453.338 332.537C452.492 332.665 451.628 332.658 450.783 332.517L419.789 327.329C414.891 326.51 411.96 321.441 413.684 316.772C413.916 316.143 414.227 315.546 414.609 314.994L432.997 288.43L456.672 271.781C457.127 271.125 467.955 264.711 472.648 259.8L482.542 251.403C483.481 250.421 488.69 242.094 489.052 241.652L497.38 227.062C498.039 226.26 490.516 216.888 489.496 216.71L471.757 216.672C471.395 216.608 452.998 220.144 452.65 220.024L401.924 243.896C398.851 242.832 373.803 255.308 375.66 252.624C376.109 251.976 380.214 241.004 428.396 206.244L446.386 195.248C447.284 194.769 460.319 180.157 459.485 179.58L463.121 169.901C466.716 158.304 462.712 153.873 461.826 153.632L449.17 144.357C437.571 139.852 427.847 143.283 426.371 143.74L401.611 162.801L338.597 213.924L323.727 221.793L286.075 219.638L266.291 246.541L229.856 232.626L218.7 274.54C217.958 274.977 217.151 275.294 216.31 275.479L189.377 262.532L181.638 283.09L158.03 276.736L149.043 294.009C148.499 294.19 147.976 294.43 147.483 294.721L123.716 294.046L112.962 315.098L91.1323 310.524L85.1038 331.226C84.0602 331.831 83.1623 332.659 82.4749 333.651L59.8369 339.361L57.0251 370.416C56.6972 370.891 56.4201 371.398 56.1983 371.93L44.6893 376.755L45.4503 397.767C44.8026 399.327 44.6529 401.046 45.0237 402.689L24.9588 425.799C25.2315 427.008 52.3535 433.867 53.1305 434.83L51.8568 451.5C52.3443 452.104 72.1336 458.199 72.7718 458.639L76.7588 473.414C78.3712 474.527 91.3361 470.589 93.2886 470.367L107.688 484.125C109.722 483.893 108.425 467.861 109.768 466.311L132.81 471.541L122.735 451.327C123.379 450.582 141.538 447.306 141.879 446.384L130.682 431.309C130.918 430.669 143.631 429.074 143.702 428.396L133.2 409.458C133.262 408.852 145.544 401.796 145.74 401.219L140.751 386.553C140.914 386.075 165.978 393.049 166.225 392.608L160.609 350.949C161.391 349.558 162.565 348.425 163.982 347.691L189.756 350.267L200.23 328.946C201.018 328.538 201.976 328.981 202.171 329.846L208.992 360.064C209.184 360.911 209.508 361.721 209.957 362.463L193.653 392.197L229.853 395.457C230.078 395.832 230.334 396.187 230.617 396.52L201.665 439.622L255.145 425.367C255.603 425.906 271.913 441.462 272.495 441.863L275.557 478.282L310.673 458.695L331.884 472.561C332.336 472.795 342.92 509.473 343.407 509.619L371.837 484.681C372.225 484.797 372.621 484.884 373.023 484.941L397.597 517.526L441.269 490.423L445.113 505.003L470.79 494.776L494.622 496.025L466.991 512.766L500.54 514.124L520.806 525.655L534.089 515.482L554.624 538.238L575.82 512.145C576.301 512.106 576.775 512.026 577.241 511.904L614.83 502.028C615.445 501.866 616.039 501.634 616.6 501.334L639.923 488.885C640.765 488.435 641.524 487.84 642.162 487.128L683.449 441.071L707.733 430.868C707.969 430.526 719.603 425.299 725.782 422.748Z" fill="black" stroke="black" stroke-width="3"/>
<path d="M489.514 422.337L515.121 426.255C516.261 426.429 517.459 426.371 518.645 426.084L539.634 421C541.337 420.587 542.963 419.716 544.33 418.484L554.293 409.497C555.465 408.439 556.407 407.152 557.042 405.739L559.457 400.361C560.009 399.133 560.315 397.839 560.356 396.563L560.558 390.239C560.624 388.142 559.972 386.193 558.706 384.717L540.786 363.804C540.244 363.169 539.597 362.636 538.869 362.216L521.273 352.093C520.305 351.534 519.208 351.192 518.043 351.084L485.616 348.064C484.719 347.981 483.795 348.037 482.874 348.232L462.794 352.464C460.987 352.846 459.255 353.744 457.81 355.046L447.892 363.992C446.055 365.651 444.806 367.855 444.391 370.171L442.451 381.006C442.067 383.155 442.426 385.259 443.467 386.958L451.528 400.1C451.938 400.77 452.449 401.365 453.044 401.87L466.112 412.936C466.734 413.463 467.441 413.884 468.214 414.188L487.791 421.876C488.339 422.092 488.918 422.246 489.514 422.337Z" fill="#A5A5A5"/>
<path d="M580.807 490.677L602.183 492.048C603.056 492.104 603.901 492.022 604.689 491.802L618.195 488.039C619.698 487.62 620.934 486.72 621.738 485.458L627.025 477.154C627.658 476.159 628.003 474.971 628.029 473.691L628.098 470.309C628.14 468.266 627.37 466.112 625.945 464.286L618.528 454.78C617.896 453.97 617.149 453.245 616.322 452.633L596.337 437.892C595.433 437.225 594.446 436.706 593.426 436.362L574.618 430.015C573.798 429.738 572.967 429.578 572.154 429.538L547.741 428.365C546.747 428.318 545.794 428.452 544.924 428.759L532.421 433.199C531.114 433.662 530.044 434.507 529.322 435.64L521.613 447.746C520.85 448.945 520.509 450.419 520.632 451.991L521.082 457.721C521.282 460.294 522.706 462.888 524.921 464.722L536.465 474.274C537.107 474.805 537.801 475.261 538.529 475.629L554.972 483.923C555.627 484.254 556.304 484.511 556.988 484.687L579.151 490.409C579.705 490.552 580.259 490.642 580.807 490.677Z" fill="#A5A5A5"/>
<path d="M580.485 486.305L598.791 487.481C599.666 487.537 600.518 487.453 601.312 487.234L612.535 484.131C614.073 483.706 615.344 482.785 616.172 481.493L620.419 474.872C621.073 473.852 621.43 472.637 621.458 471.33L621.504 469.149C621.548 467.102 620.784 464.958 619.368 463.15L613.308 455.421C612.689 454.632 611.96 453.925 611.15 453.331L594.071 440.79C593.186 440.141 592.22 439.636 591.219 439.3L575.19 433.913C574.381 433.641 573.558 433.483 572.75 433.444L551.879 432.437C550.881 432.39 549.92 432.524 549.04 432.833L538.666 436.49C537.326 436.961 536.224 437.826 535.479 438.987L529.135 448.875C528.348 450.102 527.996 451.609 528.12 453.209L528.437 457.261C528.636 459.82 530.038 462.382 532.224 464.182L541.738 472.017C542.365 472.534 543.043 472.977 543.756 473.334L557.815 480.395C558.459 480.718 559.124 480.969 559.797 481.141L578.843 486.04C579.391 486.181 579.942 486.27 580.485 486.305Z" fill="black"/>
<path d="M496.015 417.431L517.428 420.589C518.357 420.725 519.325 420.707 520.292 420.535L535.511 417.833C537.407 417.496 539.237 416.582 540.748 415.217L549.337 407.462C550.532 406.383 551.486 405.061 552.115 403.612L553.441 400.55C554.411 398.31 554.546 395.904 553.817 393.82L550.237 383.569C549.923 382.668 549.454 381.848 548.848 381.141L534.466 364.334C533.806 363.563 532.993 362.939 532.068 362.492L515.371 354.432C514.619 354.068 513.8 353.827 512.943 353.714L488.335 350.513C487.267 350.374 486.155 350.438 485.05 350.702L470.581 354.163C468.883 354.57 467.263 355.435 465.904 356.663L453.21 368.124C451.773 369.421 450.69 371.066 450.099 372.85L448.283 378.334C447.351 381.143 447.719 384.039 449.277 386.171L457.083 396.863C457.526 397.469 458.058 398.001 458.664 398.446L472.117 408.327C472.665 408.73 473.269 409.057 473.916 409.299L494.356 417.003C494.886 417.203 495.441 417.347 496.015 417.431Z" fill="black"/>
<path d="M366.841 376.214L401.77 389.732L420.519 402.225L447.89 429.403L475.929 457.244L516.652 497.68L522.365 515.111L520.03 535.479L515.338 563.912L498.291 499.125L467.324 551.365L466.843 472.835L441.647 497.07L436.036 440.805L402.058 465.564L419.715 431.185L388.147 425.306L336.234 415.076L405.278 408.828L366.841 376.214Z" fill="#4B4B4B" stroke="black" stroke-width="1.82935"/>
</svg>
