<svg width="794" height="662" viewBox="0 0 794 662" fill="none" xmlns="http://www.w3.org/2000/svg">
<path d="M72.9825 466.624L71.737 486.241L75.4045 497.417L86.0264 502.468L114.363 504.267L154.767 501.642L191.63 493.437L216.159 481.587L320.785 488.229L319.54 507.847L325.525 516.981L342.825 520.268L371.577 515.528L391.471 512.414L418.596 498.816L528.136 497.017L561.386 490.374L588.511 476.776L614.668 478.437L636.88 473.282L668.089 464.321L692.896 452.764L702.999 431.521L703.691 420.622L692.135 395.815L684.108 384.363L669.265 376.855L651.827 375.748L627.296 382.944L607.125 390.418L604.98 355.265L602.558 324.472L594.565 278.006L579.203 244.203L556.749 218.704L529.104 206.006L507.168 206.802L480.458 213.86L460.287 221.334L462.086 192.997L461.152 173.241L455.72 155.388L441.811 167.636L429.944 182.202L413.163 205.211L332.513 200.09L271.204 200.575L240.412 202.997L242.072 176.84L238.958 156.946L225.05 169.194L205.813 196.423L187.787 239.049L174.812 271.053L170.799 334.265L160.489 427.717L120.396 436.277L82.8085 449.74L72.9825 466.624Z" fill="black" stroke="black" stroke-width="8.922"/>
<path d="M110.372 279.73L158.14 287.617C168.111 289.263 175.214 298.194 174.573 308.279L174.022 316.966M174.022 316.966L108.273 312.792M174.022 316.966L173.804 320.4C173.266 328.874 167.352 336.048 159.136 338.193L118.362 348.84" stroke="black" stroke-width="2.70474"/>
<path d="M196.499 259.823L211.14 245.496C212.9 243.773 214.968 242.397 217.236 241.437L229.564 236.221C231.045 235.594 232.598 235.151 234.188 234.903L249.555 232.497C250.973 232.275 252.412 232.209 253.845 232.3L272.213 233.466C275.894 233.7 279.435 234.963 282.432 237.112L292.145 244.076C293.767 245.238 295.202 246.641 296.402 248.235L306.701 261.918L313.298 272.515C315.466 275.996 316.491 280.069 316.232 284.162L315.593 294.226C315.367 297.785 314.178 301.216 312.152 304.152L302.431 318.246C301.34 319.828 300.022 321.242 298.52 322.443L278.498 338.45C276.469 340.072 274.138 341.277 271.641 341.994L246.688 349.159C245.047 349.63 243.352 349.886 241.645 349.919L225.401 350.24C220.583 350.335 215.897 348.659 212.232 345.528L197.206 332.693C194.461 330.349 192.414 327.296 191.289 323.866L186.856 310.359C186.076 307.981 185.756 305.475 185.915 302.977L187.06 284.937C187.151 283.505 187.399 282.086 187.798 280.707L191.362 268.41C192.306 265.152 194.076 262.194 196.499 259.823Z" fill="#A5A5A5"/>
<path d="M196.463 282.945L200.517 267.756C201.18 265.272 202.337 262.925 203.895 260.881C205.47 258.814 207.453 257.062 209.702 255.761L219.927 249.844L235.631 242.379C238.652 240.944 241.988 240.302 245.326 240.514L262.226 241.587C264.974 241.761 267.654 242.51 270.095 243.786L281.615 249.807C284.146 251.13 286.359 252.989 288.1 255.253L297.195 267.083C298.788 269.155 299.952 271.523 300.62 274.05L303.226 283.913C304.314 288.03 304.037 292.388 302.438 296.334L296.57 310.807C295.23 314.112 293.017 316.991 290.168 319.136L280.37 326.511C279.084 327.478 277.685 328.285 276.203 328.912L259.365 336.036C257.105 336.992 254.686 337.517 252.233 337.584L235.634 338.036C233.121 338.105 230.618 337.691 228.261 336.817L214.353 331.664C211.778 330.71 209.431 329.227 207.463 327.311L201.905 321.9C198.139 318.233 195.996 313.212 195.955 307.956L195.798 288.175C195.785 286.41 196.008 284.651 196.463 282.945Z" fill="black"/>
<path d="M463.381 276.051L462.013 297.588C461.726 302.11 459.887 306.394 456.807 309.718L445.843 321.547L432.976 334.1C431.948 335.103 430.814 335.99 429.593 336.746L411.739 347.8C410.021 348.864 408.148 349.657 406.188 350.151L393.999 353.222C390.317 354.15 386.445 353.993 382.851 352.77L371.793 349.007C369.993 348.394 368.29 347.523 366.739 346.422L355.261 338.271C353.121 336.751 351.306 334.818 349.924 332.586L343.39 322.032C341.512 319 340.494 315.514 340.444 311.948L340.184 293.337C340.171 292.4 340.225 291.463 340.346 290.533L343.529 265.975C343.86 263.417 344.692 260.949 345.976 258.711L351.296 249.439C352.891 246.66 355.139 244.313 357.847 242.6L369.343 235.331L384.465 224.13C388.338 221.261 393.129 219.914 397.93 220.343L417.613 222.101C421.208 222.423 424.645 223.726 427.549 225.87L440.574 235.485C441.546 236.203 442.45 237.008 443.274 237.891L453.477 248.825C455.256 250.731 456.638 252.97 457.543 255.414L462.194 267.968C463.151 270.55 463.555 273.304 463.381 276.051Z" fill="#A5A5A5"/>
<path d="M352.567 314.435L349.252 293.297C349.059 292.072 348.983 290.831 349.025 289.591L349.094 287.518C349.181 284.921 349.781 282.367 350.86 280.004L355.765 269.256L365.364 252.058C366.267 250.441 367.393 248.96 368.709 247.658L381.097 235.406C383.805 232.728 387.232 230.893 390.962 230.124L400.6 228.137C405.012 227.227 409.602 227.859 413.605 229.927L430.606 238.71C431.875 239.366 433.069 240.158 434.167 241.072L443.397 248.759C446.669 251.483 448.968 255.196 449.951 259.339L453.555 274.534C454.378 278.005 454.242 281.634 453.162 285.033L449.45 296.721C448.963 298.254 448.29 299.722 447.445 301.092L437.849 316.655C436.561 318.743 434.894 320.572 432.934 322.048L416.626 334.324L404.47 341.694C401.507 343.491 398.121 344.473 394.656 344.541L383.351 344.764C377.236 344.885 371.412 342.155 367.592 337.378L356.637 323.674C354.5 321.001 353.097 317.816 352.567 314.435Z" fill="black"/>
<path d="M243.201 169.879L231.795 204.931L231.979 211.769L287.314 199.429L345.037 195.473L429.047 202.311L429.701 191.368L439.265 149.588L448.857 128.368L415.901 151.189L428.401 111.949L400.129 142.674L412.441 100.706L367.958 136.654L383.299 98.5902L318.481 140.045L357.907 90.7347L313.488 107.487L266.069 140.895L243.201 169.879Z" fill="#4B4B4B" stroke="black" stroke-width="2.70474"/>
</svg>
