<svg width="910" height="916" viewBox="0 0 910 916" fill="none" xmlns="http://www.w3.org/2000/svg">
<path d="M487.776 107.776L503.295 98.4872L495.296 115.591L470.506 158.258L597.402 290.131L654.851 244.257L607.907 342.106L546.421 448.304L515.623 504.278L476.255 557.211L441.77 605.444L427.947 626.271L412.244 645.144L375.014 686.613L414.553 714.209L436.804 693.976L453.871 703.892L465.425 688.262L484.503 706.399L488.941 669.86L518.692 673.5L518.568 645.061L536.386 650.83L550.129 634.367L556.53 650.259L589.172 647.292L583.863 674.753L607.949 695.811L588.913 711.283L603.579 754.943L577.357 763.792L576.661 807.746L539.113 808.118L530.066 839.68L455.294 832.786L423.786 826.007L387.429 802.418L308.091 726.552L241.538 647.612L157.015 555.863L112.044 501.308L73.6533 453.591L50.3385 419.586L45.9705 397.45L64.5305 379.591L105.447 345.863L147.34 311.195L184.313 283.143L231.846 254.336L264.911 230.045L301.809 205.827L338.671 183.526L383.237 159.456L423.858 141.062L487.776 107.776Z" fill="black" stroke="black" stroke-width="0.41226"/>
<path d="M351.885 129.185L346.739 140.226C346.257 141.261 346.545 142.49 347.436 143.203L355.401 149.574C356.374 150.353 356.616 151.734 355.965 152.797L351.018 160.878C350.367 161.941 350.609 163.323 351.583 164.102L362.324 172.689L333.634 187.913M333.634 187.913L315.673 199.005L303.761 197.386C302.797 197.254 302 196.571 301.723 195.638L299.057 186.648C298.768 185.675 297.914 184.977 296.903 184.888L287.263 184.036C286.274 183.949 285.433 183.278 285.127 182.333L281.484 171.066M333.634 187.913L323.102 180.327C322.291 179.742 321.911 178.727 322.139 177.754L324.355 168.311C324.603 167.253 324.132 166.157 323.194 165.61L314.14 160.327C313.201 159.779 312.729 158.683 312.978 157.624L315.912 145.15" stroke="black" stroke-width="3"/>
<path d="M628.475 402.059L615.973 401.426C615.099 401.381 614.314 400.879 613.907 400.104L609.192 391.114C608.671 390.121 607.547 389.602 606.454 389.851L595.075 392.437C594.205 392.634 593.296 392.348 592.696 391.689L584.361 382.522L569.428 409.807M569.428 409.807L558.651 427.383L560.488 440.628C560.615 441.544 561.242 442.312 562.114 442.621L572.248 446.204C573.14 446.519 573.775 447.317 573.881 448.257L575.21 459.991C575.318 460.946 575.969 461.751 576.879 462.057L588.763 466.056M569.428 409.807L576.583 420.008C577.04 420.66 577.783 421.052 578.579 421.061L590.859 421.207C591.955 421.22 592.911 421.952 593.21 423.006L596.431 434.377C596.713 435.371 597.583 436.086 598.612 436.169L611.504 437.209" stroke="black" stroke-width="3"/>
<path d="M372.377 206.036L393.004 208.465C393.277 208.497 393.544 208.575 393.792 208.695L407.667 215.411C407.809 215.479 407.944 215.562 408.07 215.656L421.483 225.682C421.59 225.762 421.691 225.851 421.784 225.948L436.944 241.702C437.192 241.96 437.382 242.269 437.499 242.608L442.643 257.453C442.718 257.671 442.763 257.898 442.776 258.128L443.573 272.684L443.12 285.229C443.096 285.87 442.825 286.477 442.363 286.922L433.685 295.272C433.276 295.666 432.744 295.907 432.178 295.955L415.552 297.356C415.307 297.377 415.061 297.361 414.821 297.309L391.189 292.194C390.919 292.136 390.661 292.033 390.426 291.89L367.685 278.052C367.546 277.968 367.417 277.87 367.297 277.76L351.328 263.087C350.981 262.768 350.733 262.357 350.611 261.902L344.334 238.319C344.213 237.862 344.224 237.381 344.368 236.931L348.763 223.134C348.888 222.742 349.109 222.388 349.405 222.103L359.725 212.172C359.899 212.005 360.097 211.864 360.312 211.753L370.958 206.291C371.395 206.067 371.889 205.978 372.377 206.036Z" fill="#999999"/>
<path d="M365.266 218.317L376.261 212.574C376.62 212.387 377.019 212.29 377.424 212.293L381.779 212.324C382.085 212.326 382.388 212.385 382.673 212.498L393.874 216.937L409.978 224.557C410.25 224.685 410.495 224.862 410.703 225.078L425.925 240.897C426.094 241.073 426.236 241.272 426.347 241.489L434.078 256.655C434.216 256.926 434.303 257.221 434.334 257.523L435.966 273.261C436.005 273.635 435.958 274.013 435.829 274.366L431.981 284.889C431.719 285.604 431.142 286.159 430.417 286.393L415.804 291.109C415.34 291.259 414.842 291.268 414.373 291.135L400.516 287.226C400.356 287.181 400.202 287.121 400.055 287.045L382.741 278.13C382.545 278.029 382.363 277.902 382.201 277.753L367.278 264.055C367.118 263.908 366.977 263.74 366.861 263.555L356.898 247.806C356.753 247.577 356.647 247.326 356.583 247.063L353.366 233.711C353.181 232.946 353.372 232.139 353.879 231.537L364.52 218.915C364.728 218.669 364.981 218.466 365.266 218.317Z" fill="black"/>
<path d="M517.182 402.791L496.504 397.017C496.062 396.894 495.668 396.634 495.369 396.269L482.964 381.121L472.275 367.068C472.202 366.971 472.135 366.868 472.076 366.76L460.88 346.261C460.797 346.108 460.729 345.945 460.678 345.775L455.365 328.143C455.249 327.759 455.222 327.347 455.285 326.942L457.56 312.365C457.603 312.089 457.687 311.821 457.81 311.571L463.656 299.635C463.866 299.205 464.183 298.842 464.57 298.588L474.398 292.137C474.904 291.805 475.499 291.679 476.07 291.784L491.916 294.68C492.034 294.702 492.151 294.733 492.264 294.774L511.942 301.855C512.198 301.947 512.435 302.086 512.644 302.266L524.222 312.26C524.431 312.441 524.609 312.66 524.746 312.909L532.673 327.205L544.854 346.799C545.083 347.167 545.215 347.598 545.237 348.047L546.494 374.13C546.517 374.615 546.411 375.103 546.187 375.536L539.274 388.909C539.177 389.097 539.059 389.272 538.922 389.431L530.953 398.691C530.633 399.062 530.224 399.33 529.774 399.461L518.407 402.781C518.002 402.899 517.58 402.903 517.182 402.791Z" fill="#999999"/>
<path d="M529.098 391.12L512.468 391.195C512.292 391.195 512.116 391.175 511.945 391.134L507.45 390.053C507.169 389.985 506.903 389.862 506.667 389.691L496.836 382.551L482.808 370.873C482.685 370.771 482.572 370.655 482.471 370.527L468.614 353.027C468.419 352.782 468.272 352.496 468.179 352.187L462.763 334.025C462.62 333.543 462.615 333.022 462.75 332.527L467.771 314.057C467.832 313.833 467.92 313.618 468.034 313.418L473.887 303.094C474.29 302.382 474.98 301.91 475.741 301.823L490.58 300.137C491.049 300.084 491.518 300.181 491.927 300.416L504.409 307.595C504.544 307.672 504.671 307.764 504.788 307.868L519.578 321.058C519.732 321.195 519.869 321.354 519.984 321.53L531.718 339.471L540.203 354.514C540.351 354.775 540.452 355.065 540.501 355.37L543.843 375.842C543.985 376.712 543.694 377.616 543.075 378.229L530.751 390.416C530.296 390.865 529.705 391.117 529.098 391.12Z" fill="black"/>
<path d="M444.3 209.09L457.497 180.074L474.627 163.763L508.308 199.134L542.811 235.368L592.923 287.994L575.793 304.305L557.492 336.537L551.217 355.672L543.526 321.87L528.581 354.196L528.495 318.089L511.836 352.046L504.461 303.14L492.016 336.376L474.887 272.082L471.233 326.556L452.689 289.93L441.957 240.93L444.3 209.09Z" fill="#4B4B4B" stroke="black"/>
</svg>
