<svg width="555" height="526" viewBox="0 0 555 526" fill="none" xmlns="http://www.w3.org/2000/svg">
<path d="M40.7024 338.728L50.4831 355.189C53.3648 360.039 60.6353 359.158 62.2746 353.76L64.647 345.947M64.647 345.947L46.019 308.469M64.647 345.947L72.8922 324.263C73.3379 323.091 73.4345 321.815 73.1705 320.589L68.7262 299.954" stroke="black" stroke-width="3"/>
<path d="M60.3437 453.748L77.5715 507.436C77.7083 507.862 77.8889 508.273 78.1103 508.662L83.1103 517.451C84.1736 519.32 86.0931 520.541 88.2364 520.712L95.0717 521.257L102.073 505.088C102.343 504.464 102.513 503.801 102.578 503.124L104.378 484.236L109.31 419.724L130.068 418.8C130.48 418.782 130.89 418.724 131.291 418.628L161.186 411.469L146.3 458.258C146.095 458.903 145.992 459.576 145.995 460.252L146.089 483.726L147.346 503.3C147.591 507.117 151.067 509.895 154.844 509.294L167.723 507.245C169.218 507.007 170.582 506.254 171.581 505.117L177.096 498.836C177.392 498.499 177.652 498.133 177.872 497.743L187.42 480.826L223.897 423.549L251.921 384.775L283.871 343.64C284.291 343.1 284.794 342.629 285.36 342.246L311.191 324.769C314.555 322.493 319.159 323.83 320.78 327.554L321.324 328.804C321.543 329.306 321.697 329.834 321.783 330.375L326.599 360.637L331.393 390.769C331.493 391.395 331.5 392.033 331.415 392.662L327.554 421.097C327.493 421.548 327.48 422.005 327.514 422.459L329.608 450.206C329.67 451.031 330.598 451.484 331.286 451.025L351.07 437.847C351.358 437.655 351.661 437.487 351.977 437.343L354.192 436.333C356.997 435.055 360.247 436.801 360.732 439.844C360.849 440.58 360.788 441.333 360.554 442.04L355.484 457.386C355.23 458.156 355.881 458.922 356.681 458.794L374.829 455.906C375.554 455.791 376.254 455.554 376.899 455.204L387.092 449.687C388.175 449.1 389.069 448.218 389.669 447.143L404.519 420.544L440.139 349.923L468.348 280.481L482.69 230.13C482.878 229.47 483.169 228.844 483.553 228.275L502.447 200.299L517.704 171.465C517.918 171.061 518.088 170.637 518.213 170.198L528.567 133.641L537.179 104.193C537.449 103.271 537.511 102.3 537.36 101.351L530.66 59.2499C530.588 58.7964 530.468 58.3518 530.302 57.9236L520.559 32.792C520.072 31.5379 519.209 30.4657 518.086 29.7238L494.175 13.9138C493.349 13.3677 492.409 13.0178 491.427 12.8909L464.108 9.35762C463.492 9.27799 462.868 9.2871 462.255 9.38465L444.582 12.1969C443.035 12.4431 441.628 13.241 440.623 14.4432L433.172 23.3533C432.124 24.6059 431.587 26.2074 431.668 27.8383L432.627 47.2209C432.666 48.0036 432.846 48.7727 433.159 49.4912L440.343 65.992C440.56 66.4904 440.838 66.9596 441.172 67.3885L452.955 82.5226C453.253 82.9057 453.507 83.3211 453.713 83.761L462.747 103.083C462.917 103.448 463.053 103.827 463.153 104.217L472.5 140.596C472.816 141.828 472.764 143.126 472.349 144.328L459.574 181.363C459.343 182.032 458.544 182.303 457.954 181.913L433.1 165.48C432.522 165.097 431.886 164.81 431.217 164.629L395.677 155.004C395.339 154.913 394.995 154.849 394.648 154.813L358.676 151.093C358.114 151.034 357.546 151.05 356.988 151.139L312.128 158.277L275.186 168.981C274.796 169.094 274.417 169.244 274.054 169.428L239.881 186.779C239.592 186.926 239.314 187.094 239.05 187.283L199.639 215.394L148.338 259.097L156.315 229.641L108.529 271.559L82.029 301.144C81.7728 301.43 81.5425 301.738 81.3408 302.064L61.9064 333.541C61.6401 333.973 61.4252 334.434 61.2662 334.915L53.319 358.968C53.0801 359.691 52.9703 360.451 52.9947 361.212L54.8665 419.808L60.114 452.785C60.1659 453.111 60.2427 453.433 60.3437 453.748Z" fill="#9001B4" stroke="black" stroke-width="1.08186"/>
<path d="M60.3437 453.748L77.5715 507.436C77.7083 507.862 77.8889 508.273 78.1103 508.662L83.1103 517.451C84.1736 519.32 86.0931 520.541 88.2364 520.712L95.0717 521.257L102.073 505.088C102.343 504.464 102.513 503.801 102.578 503.124L104.378 484.236L109.31 419.724L130.068 418.8C130.48 418.782 130.89 418.724 131.291 418.628L161.186 411.469L146.3 458.258C146.095 458.903 145.992 459.576 145.995 460.252L146.089 483.726L147.346 503.3C147.591 507.117 151.067 509.895 154.844 509.294L167.723 507.245C169.218 507.007 170.582 506.254 171.581 505.117L177.096 498.836C177.392 498.499 177.652 498.133 177.872 497.743L187.42 480.826L223.897 423.549L251.921 384.775L283.871 343.64C284.291 343.1 284.794 342.629 285.36 342.246L311.191 324.769C314.555 322.493 319.159 323.83 320.78 327.554L321.324 328.804C321.543 329.306 321.697 329.834 321.783 330.375L326.599 360.637L331.393 390.769C331.493 391.395 331.5 392.033 331.415 392.662L327.554 421.097C327.493 421.548 327.48 422.005 327.514 422.459L329.608 450.206C329.67 451.031 330.598 451.484 331.286 451.025L351.07 437.847C351.358 437.655 351.661 437.487 351.977 437.343L354.192 436.333C356.997 435.055 360.247 436.801 360.732 439.844C360.849 440.58 360.788 441.333 360.554 442.04L355.484 457.386C355.23 458.156 355.881 458.922 356.681 458.794L374.829 455.906C375.554 455.791 376.254 455.554 376.899 455.204L387.092 449.687C388.175 449.1 389.069 448.218 389.669 447.143L404.519 420.544L440.139 349.923L468.348 280.481L482.69 230.13C482.878 229.47 483.169 228.844 483.553 228.275L502.447 200.299L517.704 171.465C517.918 171.061 518.088 170.637 518.213 170.198L528.567 133.641L537.179 104.193C537.449 103.271 537.511 102.3 537.36 101.351L530.66 59.2499C530.588 58.7964 530.468 58.3518 530.302 57.9236L520.559 32.792C520.072 31.5379 519.209 30.4657 518.086 29.7238L494.175 13.9138C493.349 13.3677 492.409 13.0178 491.427 12.8909L464.108 9.35762C463.492 9.27799 462.868 9.2871 462.255 9.38465L444.582 12.1969C443.035 12.4431 441.628 13.241 440.623 14.4432L433.172 23.3533C432.124 24.6059 431.587 26.2074 431.668 27.8383L432.627 47.2209C432.666 48.0036 432.846 48.7727 433.159 49.4912L440.343 65.992C440.56 66.4904 440.838 66.9596 441.172 67.3885L452.955 82.5226C453.253 82.9057 453.507 83.3211 453.713 83.761L462.747 103.083C462.917 103.448 463.053 103.827 463.153 104.217L472.5 140.596C472.816 141.828 472.764 143.126 472.349 144.328L459.574 181.363C459.343 182.032 458.544 182.303 457.954 181.913L433.1 165.48C432.522 165.097 431.886 164.81 431.217 164.629L395.677 155.004C395.339 154.913 394.995 154.849 394.648 154.813L358.676 151.093C358.114 151.034 357.546 151.05 356.988 151.139L312.128 158.277L275.186 168.981C274.796 169.094 274.417 169.244 274.054 169.428L239.881 186.779C239.592 186.926 239.314 187.094 239.05 187.283L199.639 215.394L148.338 259.097L156.315 229.641L108.529 271.559L82.029 301.144C81.7728 301.43 81.5425 301.738 81.3408 302.064L61.9064 333.541C61.6401 333.973 61.4252 334.434 61.2662 334.915L53.319 358.968C53.0801 359.691 52.9703 360.451 52.9947 361.212L54.8665 419.808L60.114 452.785C60.1659 453.111 60.2427 453.433 60.3437 453.748Z" fill="#393939" stroke="black" stroke-width="3"/>
<path d="M184.749 316.202L168.639 332.319C168.044 332.915 167.57 333.62 167.244 334.397L160.189 351.214C159.722 352.328 159.575 353.551 159.765 354.745L161.508 365.704C161.671 366.727 162.077 367.697 162.692 368.532L165.792 372.743C166.327 373.469 167.007 374.075 167.789 374.524L172.977 377.501C174.264 378.238 175.763 378.514 177.228 378.281L202.425 374.271C203.054 374.171 203.665 373.979 204.237 373.701L221.031 365.559C221.793 365.189 222.475 364.674 223.039 364.043L241.955 342.874C242.389 342.388 242.748 341.839 243.018 341.246L250.249 325.421C250.78 324.258 250.956 322.965 250.756 321.703L248.988 310.597C248.733 308.991 247.884 307.539 246.609 306.529L238.828 300.365C237.645 299.427 236.173 298.932 234.664 298.963L220.223 299.258C219.627 299.27 219.036 299.364 218.467 299.537L203.31 304.145C202.716 304.326 202.15 304.592 201.631 304.933L185.772 315.368C185.403 315.611 185.061 315.89 184.749 316.202Z" fill="#A5A5A5"/>
<path d="M90.6977 314.012L76.6644 328.691C76.1888 329.188 75.7953 329.758 75.4987 330.38L69.2176 343.535C68.6509 344.722 68.4582 346.053 68.6649 347.352L70.3819 358.142C70.5448 359.166 70.9507 360.136 71.5654 360.971L73.9492 364.208C74.9302 365.54 76.3829 366.448 78.0104 366.745L88.7332 368.702C89.4552 368.834 90.1942 368.842 90.919 368.727L112.095 365.358C112.886 365.232 113.647 364.96 114.34 364.557L129.839 355.536C130.395 355.212 130.9 354.807 131.338 354.335L147.161 337.236C147.695 336.66 148.119 335.991 148.414 335.263L153.654 322.319C154.098 321.224 154.234 320.029 154.048 318.863L151.589 303.411C151.393 302.178 150.845 301.027 150.011 300.097L145.762 295.361C144.396 293.838 142.392 293.049 140.354 293.23L126.999 294.419C126.408 294.472 125.828 294.605 125.274 294.815L110.138 300.551C109.64 300.74 109.166 300.99 108.728 301.295L91.6793 313.171C91.325 313.418 90.9961 313.7 90.6977 314.012Z" fill="#A5A5A5"/>
<path d="M92.659 316.668L80.5264 329.134C80.046 329.628 79.6472 330.195 79.345 330.814L74.0284 341.704C73.4429 342.903 73.2413 344.254 73.451 345.572L74.833 354.256C74.9986 355.297 75.4149 356.281 76.046 357.125L77.76 359.416C78.7487 360.737 80.2036 361.633 81.8287 361.92L90.7427 363.493C91.4529 363.619 92.1791 363.625 92.8914 363.512L111.132 360.609C111.91 360.485 112.659 360.221 113.342 359.829L126.675 352.179C127.228 351.862 127.732 351.465 128.169 351.001L141.831 336.502C142.371 335.929 142.802 335.263 143.103 334.536L147.539 323.835C147.998 322.727 148.141 321.513 147.953 320.329L145.938 307.668C145.739 306.416 145.177 305.249 144.322 304.312L141.107 300.789C139.739 299.29 137.749 298.517 135.728 298.7L124.546 299.71C123.966 299.762 123.396 299.892 122.851 300.096L109.802 304.987C109.31 305.172 108.842 305.415 108.409 305.712L93.6391 315.843C93.286 316.085 92.9577 316.362 92.659 316.668Z" fill="black"/>
<path d="M184.605 322.589L171.163 336.224C170.679 336.714 170.277 337.279 169.97 337.896L164.007 349.917C163.408 351.125 163.2 352.49 163.412 353.822L164.948 363.475C165.115 364.527 165.539 365.522 166.183 366.372L168.263 369.121C169.257 370.434 170.713 371.321 172.337 371.6L182.469 373.346C183.17 373.467 183.888 373.472 184.591 373.36L204.843 370.138C205.611 370.015 206.352 369.756 207.028 369.372L221.861 360.949C222.411 360.636 222.913 360.244 223.35 359.786L238.502 343.915C239.046 343.345 239.482 342.681 239.788 341.954L244.768 330.141C245.239 329.023 245.388 327.797 245.197 326.599L242.975 312.634C242.774 311.368 242.202 310.19 241.332 309.249L237.511 305.114C236.142 303.633 234.163 302.872 232.154 303.055L219.464 304.213C218.892 304.265 218.329 304.393 217.791 304.593L203.304 309.98C202.816 310.161 202.352 310.4 201.922 310.692L185.583 321.775C185.231 322.013 184.903 322.286 184.605 322.589Z" fill="black"/>
</svg>
