<svg width="99" height="124" viewBox="0 0 99 124" fill="none" xmlns="http://www.w3.org/2000/svg">
<path d="M17.6329 122L2 2H97L78.3608 122H17.6329Z" fill="#999999" stroke="black" stroke-width="3"/>
<path d="M19.2538 50C19.6236 50 20.3691 50 21.4902 50C21.496 50 21.5076 50 21.5249 50C21.5249 49.6186 21.5191 49.0002 21.5076 48.145C21.496 47.2897 21.4902 43.8512 21.4902 37.8296C21.6925 37.8296 21.993 37.8296 22.3917 37.8296C22.9927 39.858 24.1948 43.9148 25.9978 50C26.3734 50 27.1247 50 28.2516 50C27.6101 47.8387 26.333 43.5189 24.4201 37.0408C24.4201 36.9945 24.4201 36.9021 24.4201 36.7634C24.9865 35.2146 26.1134 32.1142 27.8008 27.4622C27.4194 27.4622 26.6624 27.4622 25.5297 27.4622C25.0038 28.8896 23.9578 31.7444 22.3917 36.0266C22.2415 36.0266 21.941 36.0266 21.4902 36.0266C21.496 34.5992 21.5047 31.7444 21.5162 27.4622C21.1348 27.4622 20.3749 27.4622 19.2364 27.4622C19.2364 31.2185 19.2422 38.7311 19.2538 50ZM42.1557 48.5177C44.7908 48.5177 47.0273 47.5613 48.865 45.6485C50.7027 43.7414 51.6215 41.4356 51.6215 38.7311C51.6215 36.0266 50.7114 33.7265 48.891 31.8311C47.0706 29.9298 44.8255 28.9792 42.1557 28.9792C39.4916 28.9792 37.2494 29.9298 35.429 31.8311C33.6086 33.7265 32.6984 36.0266 32.6984 38.7311C32.6984 41.4356 33.6144 43.7414 35.4463 45.6485C37.284 47.5613 39.5205 48.5177 42.1557 48.5177ZM30.4447 38.7311C30.4447 35.4256 31.5716 32.6748 33.8253 30.4788C36.0733 28.2828 38.8501 27.1848 42.1557 27.1848C45.4612 27.1848 48.2409 28.2828 50.4946 30.4788C52.7426 32.6748 53.8666 35.4256 53.8666 38.7311C53.8666 42.0366 52.734 44.7932 50.4686 47.0007C48.2033 49.2141 45.4323 50.3207 42.1557 50.3207C38.8848 50.3207 36.1138 49.2141 33.8427 47.0007C31.5773 44.7932 30.4447 42.0366 30.4447 38.7311ZM62.0756 29.2652C61.9254 29.2652 61.6249 29.2652 61.1741 29.2652C60.7291 32.721 59.8334 39.6326 58.4869 50C58.1113 50 57.3542 50 56.2158 50C56.707 46.2437 57.6894 38.7311 59.163 27.4622C59.9836 27.4622 61.6191 27.4622 64.0693 27.4622C64.5663 31.2185 65.5545 38.7311 67.0339 50C66.6583 50 65.907 50 64.7801 50C64.3294 46.5442 63.4279 39.6326 62.0756 29.2652ZM77.0286 40.9935C76.7165 40.9935 76.0895 40.9935 75.1475 40.9935C74.8355 40.9935 74.2142 40.9935 73.2838 40.9935C73.0642 42.4961 72.6308 45.4982 71.9836 50C71.6079 50 70.8596 50 69.7385 50C70.2297 46.2437 71.2179 38.7282 72.7031 27.4535C73.5237 27.4535 75.162 27.4535 77.618 27.4535C78.1035 31.2098 79.0714 38.7253 80.5219 50C80.1521 50 79.4037 50 78.2768 50C78.0688 48.4975 77.6527 45.4953 77.0286 40.9935ZM73.5872 39.1819C74.1073 39.1819 75.1418 39.1819 76.6905 39.1819C76.5056 37.5233 76.1357 34.2062 75.581 29.2305C75.5058 29.2305 75.3556 29.2305 75.1302 29.2305C75.0551 29.2305 74.9048 29.2305 74.6794 29.2305C74.4945 30.8891 74.1304 34.2062 73.5872 39.1819Z" fill="black"/>
</svg>
