<svg width="174" height="271" viewBox="0 0 174 271" fill="none" xmlns="http://www.w3.org/2000/svg">
<path d="M62.0156 12.3382L85.7857 133.638" stroke="#999999" stroke-width="3"/>
<circle cx="98.4059" cy="195.535" r="62.1772" transform="rotate(-11.0872 98.4059 195.535)" stroke="#999999" stroke-width="3"/>
<path d="M126.639 140.281L51.3055 155.044L43.2972 166.05L39.7106 175.359L144.09 154.905L149.678 161.997L153.423 169.831L36.5916 192.725L36.413 197.452L36.9049 202.217L38.203 208.841L158.226 185.322L159.297 193.039L158.956 200.322L43.4017 222.966L48.0633 230.967L54.9447 238.425L154.001 219.014L151.048 225.371L147.069 231.005L65.9494 246.688L73.4596 251.182L83.2273 254.793L135.232 244.602" stroke="#999999" stroke-width="3"/>
<path d="M68.7001 141.184L70.6601 151.186L78.7467 149.601M107.689 143.93L101.517 145.139L99.2235 133.435L85.3119 134.614L87.8974 147.808L78.7467 149.601M107.689 143.93L114.073 142.679L112.613 135.231L125.564 140.427L120.031 141.511L123.451 158.961L111.108 161.38L107.689 143.93ZM94.2817 146.557L97.7012 164.007L89.9338 165.53M78.7467 149.601L82.1663 167.052L89.9338 165.53M56.1892 154.022L59.6087 171.472L48.3299 173.682L51.4993 189.856L62.8845 187.625M89.9338 165.53L71.1003 169.22L74.2697 185.393L62.8845 187.625M89.9338 165.53L93.1031 181.703L102.52 179.858M139.069 172.695L130.876 174.301L127.707 158.127L108.767 161.839L111.937 178.012L102.52 179.858M139.069 172.695L147.263 171.09L144.093 154.916L149.3 161.188L153.225 168.816L153.434 169.88L139.069 172.695ZM139.069 172.695L142.155 188.443L132.951 190.247M102.52 179.858L120.662 176.302L123.748 192.05L132.951 190.247M102.52 179.858L105.606 195.605M82.9948 183.684L86.0807 199.431L76.0788 201.391M62.8845 187.625L65.864 203.393L76.0788 201.391M43.1998 191.482L46.2857 207.23L54.5852 205.603L57.4627 220.287L72.1464 217.41M76.0788 201.391L78.9562 216.075L72.1464 217.41M96.2954 197.43L99.1729 212.113L111.941 209.611M132.951 190.247L116.087 193.551L118.964 208.235L111.941 209.611M132.951 190.247L135.829 204.93M149.284 187.046L152.162 201.73L143.65 203.398L146.986 220.422L141.027 221.59M111.941 209.611L127.263 206.609L130.6 223.633L141.027 221.59M111.941 209.611L115.277 226.636M90.4478 213.823L93.7839 230.848L82.2923 233.1M72.1464 217.41L75.4825 234.434L82.2923 233.1M53.8449 220.996L57.1811 238.021L66.9702 236.102L68.9719 246.317L82.5916 243.648M82.2923 233.1L84.294 243.314L82.5916 243.648M109.957 227.678L111.959 237.893L119.833 236.35M141.027 221.59L124.428 224.843L126.43 235.057L119.833 236.35M141.027 221.59L143.029 231.805L134.942 233.389L136.735 242.54L132.813 245.077L121.96 247.203L119.833 236.35M104.298 239.394L106.425 250.248L85.144 254.418L82.5916 243.648" stroke="#999999" stroke-width="3"/>
<path d="M56.8242 155.003L78.5306 150.749L81.5748 166.284L59.8685 170.538L56.8242 155.003Z" fill="#999999"/>
<path d="M95.1289 147.496L107.472 145.077L110.474 160.399L98.1314 162.818L95.1289 147.496Z" fill="#999999"/>
<path d="M102.994 180.869L120.444 177.45L123.155 191.282L105.705 194.702L102.994 180.869Z" fill="#999999"/>
<path d="M43.3691 192.333L62.5218 188.58L65.2324 202.412L46.0798 206.165L43.3691 192.333Z" fill="#999999"/>
<path d="M76.7148 202.372L95.8675 198.619L98.3279 211.175L79.1753 214.928L76.7148 202.372Z" fill="#999999"/>
<path d="M112.789 210.55L126.834 207.798L129.753 222.694L115.708 225.447L112.789 210.55Z" fill="#999999"/>
<path d="M82.9277 234.08L109.741 228.826L111.326 236.912L84.5124 242.167L82.9277 234.08Z" fill="#999999"/>
</svg>
