<svg width="129" height="252" viewBox="0 0 129 252" fill="none" xmlns="http://www.w3.org/2000/svg">
<path d="M64.0879 0.908081V124.515" stroke="#999999" stroke-width="3"/>
<circle cx="64.5698" cy="187.683" r="62.1772" stroke="#999999" stroke-width="3"/>
<path d="M102.902 138.891H26.1351L16.1598 148.151L10.8499 156.597H117.214L121.334 164.632L123.503 173.039H4.44962L3.36535 177.643L2.93164 182.414V189.165H125.238L124.804 196.943L123.069 204.025H5.31704L8.35301 212.774L13.6718 221.416H114.612L110.492 227.086L105.504 231.85L22.8823 231.64L29.3879 237.495L38.279 242.917H91.2724" stroke="#999999" stroke-width="3"/>
<path d="M45.8706 128.635V138.827H54.1111M83.6033 138.827H77.3145V126.9L63.4358 125.382V138.827H54.1111M83.6033 138.827H90.1089V131.237L101.819 138.827H96.1809V156.609H83.6033V138.827ZM69.9415 138.827V156.609H62.0263M54.1111 138.827V156.609H62.0263M31.1245 138.827V156.609H19.6312V173.09H31.2329M62.0263 156.609H42.8346V173.09H31.2329M62.0263 156.609V173.09H71.6221M108.867 173.09H100.518V156.609H81.2179V173.09H71.6221M108.867 173.09H117.216V156.609L121.119 163.765L123.505 172.006V173.09H108.867ZM108.867 173.09V189.137H99.4879M71.6221 173.09H90.1089V189.137H99.4879M71.6221 173.09V189.137M51.7257 173.09V189.137H41.5335M31.2329 173.09L31.1245 189.137H41.5335M11.1738 173.09V189.137H19.6312V204.1H34.5941M41.5335 189.137V204.1H34.5941M62.1347 189.137V204.1H75.146M99.4879 189.137H82.3022V204.1H75.146M99.4879 189.137V204.1M116.132 189.137V204.1H107.457V221.449H101.385M75.146 204.1H90.7595V221.449H101.385M75.146 204.1V221.449M53.2436 204.1V221.449H41.5335M34.5941 204.1V221.449H41.5335M15.9446 204.1L15.9446 221.449H25.9199V231.858H39.7986M41.5335 221.449V231.858H39.7986M69.7246 221.449V231.858H77.7482M101.385 221.449H84.4707V231.858H77.7482M101.385 221.449V231.858H93.1449V241.183L88.8078 242.917H77.7482V231.858M61.9178 231.858V242.917H40.2324L39.7986 231.858" stroke="#999999" stroke-width="3"/>
<path d="M31.5586 139.912H53.6778V155.742H31.5586V139.912Z" fill="#999999"/>
<path d="M70.5918 139.911H83.1694V155.525H70.5918V139.911Z" fill="#999999"/>
<path d="M71.8926 174.174H89.6747V188.27H71.8926V174.174Z" fill="#999999"/>
<path d="M11.1758 173.958H30.6927V188.053H11.1758V173.958Z" fill="#999999"/>
<path d="M41.9688 190.222H61.4857V203.017H41.9688V190.222Z" fill="#999999"/>
<path d="M75.7969 205.184H90.1093V220.364H75.7969V205.184Z" fill="#999999"/>
<path d="M41.9688 222.533H69.2924V230.773H41.9688V222.533Z" fill="#999999"/>
</svg>
