<svg width="455" height="268" viewBox="0 0 455 268" fill="none" xmlns="http://www.w3.org/2000/svg">
<path d="M2 127.831V266.32H453.077V197.076V165.663V127.831H412.475H396.693H367.758L387.257 145.053L375.325 158.07L375.325 177.718L380.234 207.091L362.819 170.865L365.562 149.392L338.141 127.831H227.539H2Z" fill="black" stroke="#999999" stroke-width="3"/>
<path d="M96.9828 231.561C96.9828 230.683 96.9828 228.935 96.9828 226.316C97.8612 226.316 99.6095 226.316 102.228 226.316C103.444 216.198 105.859 195.979 109.474 165.658C111.89 165.658 116.721 165.658 123.967 165.658C125.167 175.776 127.591 195.987 131.239 226.291C132.118 226.291 133.875 226.291 136.51 226.291C136.51 227.169 136.51 228.926 136.51 231.561C129.922 231.561 116.746 231.561 96.9828 231.561ZM108.79 226.316C111.425 226.316 116.687 226.316 124.576 226.316C123.478 217.077 121.307 198.614 118.064 170.928C117.844 170.928 117.405 170.928 116.746 170.928C116.527 170.928 116.087 170.928 115.429 170.928C114.331 180.168 112.118 198.631 108.79 226.316ZM165.597 231.561C166.695 231.561 168.874 231.561 172.135 231.561C172.135 220.582 172.118 198.622 172.084 165.683C171.003 165.683 168.824 165.683 165.547 165.683C163.351 167.896 158.959 172.322 152.371 178.96C152.371 176.747 152.371 172.322 152.371 165.683C151.273 165.683 149.077 165.683 145.783 165.683C145.8 176.663 145.817 198.622 145.834 231.561C146.932 231.561 149.128 231.561 152.422 231.561C152.422 224.095 152.405 209.163 152.371 186.764C154.567 184.568 158.959 180.176 165.547 173.589C165.564 183.251 165.58 202.575 165.597 231.561ZM181.307 231.561C181.307 230.683 181.307 228.935 181.307 226.316C182.185 226.316 183.933 226.316 186.552 226.316C187.768 216.198 190.183 195.979 193.798 165.658C196.214 165.658 201.045 165.658 208.291 165.658C209.491 175.776 211.915 195.987 215.563 226.291C216.442 226.291 218.199 226.291 220.834 226.291C220.834 227.169 220.834 228.926 220.834 231.561C214.246 231.561 201.07 231.561 181.307 231.561ZM193.114 226.316C195.749 226.316 201.011 226.316 208.9 226.316C207.802 217.077 205.631 198.614 202.388 170.928C202.168 170.928 201.729 170.928 201.07 170.928C200.851 170.928 200.411 170.928 199.753 170.928C198.655 180.168 196.442 198.631 193.114 226.316ZM249.82 231.561C250.918 231.561 253.114 231.561 256.408 231.561C256.408 224.315 256.408 209.821 256.408 188.082C258.604 188.082 262.996 188.082 269.583 188.082C269.6 195.328 269.617 209.821 269.634 231.561C270.732 231.561 272.911 231.561 276.171 231.561C276.154 220.582 276.137 198.622 276.121 165.683C275.023 165.683 272.844 165.683 269.583 165.683C269.583 168.538 269.583 174.247 269.583 182.811C267.387 182.811 262.996 182.811 256.408 182.811C256.408 179.957 256.408 174.247 256.408 165.683C255.31 165.683 253.114 165.683 249.82 165.683C249.82 168.538 249.82 174.247 249.82 182.811C247.624 182.811 243.232 182.811 236.644 182.811C236.661 179.957 236.678 174.247 236.695 165.683C235.597 165.683 233.384 165.683 230.057 165.683C230.057 176.663 230.057 198.622 230.057 231.561C231.155 231.561 233.35 231.561 236.644 231.561C236.644 224.315 236.644 209.821 236.644 188.082C238.84 188.082 243.232 188.082 249.82 188.082C249.82 195.328 249.82 209.821 249.82 231.561ZM289.347 231.561C293.3 231.561 301.205 231.561 313.063 231.561C313.063 230.683 313.063 228.926 313.063 226.291C310.208 226.291 304.499 226.291 295.935 226.291C295.935 219.923 295.935 207.186 295.935 188.082C298.131 188.082 302.522 188.082 309.11 188.082C309.11 187.203 309.11 185.447 309.11 182.811C306.914 182.811 302.522 182.811 295.935 182.811C295.935 180.835 295.935 176.882 295.935 170.953C298.789 170.953 304.499 170.953 313.063 170.953C313.063 169.839 313.063 169.239 313.063 169.154C313.063 169.053 313.063 167.896 313.063 165.683C307.793 165.683 299.887 165.683 289.347 165.683C289.347 176.663 289.347 198.622 289.347 231.561ZM344.735 231.561C345.833 231.561 348.012 231.561 351.272 231.561C351.255 220.582 351.239 198.622 351.222 165.683C350.124 165.683 347.945 165.683 344.684 165.683C342.489 167.896 338.097 172.322 331.509 178.96C331.509 176.747 331.509 172.322 331.509 165.683C330.411 165.683 328.215 165.683 324.921 165.683C324.938 176.663 324.955 198.622 324.972 231.561C326.07 231.561 328.266 231.561 331.56 231.561C331.56 224.095 331.543 209.163 331.509 186.764C333.705 184.568 338.097 180.176 344.684 173.589C344.701 183.251 344.718 202.575 344.735 231.561ZM331.61 160.438C333.789 160.438 338.147 160.43 344.684 160.413C344.684 159.535 344.684 157.778 344.684 155.143C342.489 155.143 338.097 155.143 331.509 155.143C331.526 156.021 331.56 157.786 331.61 160.438Z" fill="#999999"/>
<path d="M2 2.00003V127.831H97.4582V2.00003H2Z" fill="black" stroke="#999999" stroke-width="3"/>
<path d="M362.137 2.00003V127.831H452.171V2.00003H362.137Z" fill="black" stroke="#999999" stroke-width="3"/>
<circle cx="49.728" cy="36.7122" r="13.017" fill="#999999"/>
<circle cx="49.7282" cy="36.7122" r="20.195" stroke="#999999" stroke-width="3"/>
<circle cx="49.7249" cy="93.1197" r="16.9221" fill="#999999"/>
<circle cx="49.727" cy="93.1193" r="26.7036" stroke="#999999" stroke-width="3"/>
<circle cx="407.697" cy="36.7122" r="13.017" fill="#999999"/>
<circle cx="407.697" cy="36.7122" r="20.195" stroke="#999999" stroke-width="3"/>
<circle cx="407.696" cy="93.1197" r="16.9221" fill="#999999"/>
<circle cx="407.696" cy="93.1193" r="26.7036" stroke="#999999" stroke-width="3"/>
</svg>
