<svg width="180" height="162" viewBox="0 0 180 162" fill="none" xmlns="http://www.w3.org/2000/svg">
<mask id="mask0_114_257" style="mask-type:alpha" maskUnits="userSpaceOnUse" x="0" y="0" width="180" height="162">
<rect width="180" height="162" transform="matrix(-1 0 0 1 180 0)" fill="#D9D9D9"/>
</mask>
<g mask="url(#mask0_114_257)">
<path d="M134.22 107.073L136.012 125.44L136.908 137.982V153.397L45.9732 152.317H17.7521L6.10527 142.014L3.41754 127.679L13.7205 115.137L23.1275 113.345L34.7743 115.137L37.4621 120.96L39.2539 129.023L32.0866 133.503L23.1275 131.263L24.9193 125.44L21.3357 120.96L17.7521 125.44L19.9919 132.607L23.1275 137.086L29.3989 137.982H37.4621H45.9732V134.399L47.3171 120.96L50.9007 98.5623L53.5884 83.3318L56.2762 68.1014L63.4434 47.0475L59.8598 40.3282L53.5884 66.3096L44.1814 78.8523H39.2539L35.6703 75.2687L34.7743 60.4862L38.8059 47.0475L47.3171 34.5048L50.9007 31.3691H58.068L67.923 38.5364H111.822L121.677 31.3691L130.189 34.5048L143.179 47.0475L148.887 62.146L151.586 78.8523L146.315 86.9155L136.012 78.8523L130.189 68.1014L126.605 53.7668L124.813 44.3598L119.438 47.0475L128.845 78.8523L131.085 90.947L134.22 107.073Z" fill="#1A1A1A" stroke="black" stroke-width="3.23967"/>
<path d="M134.22 107.073L136.012 125.44L136.908 137.982V153.397L45.9732 152.317H17.7521L6.10527 142.014L3.41754 127.679L13.7205 115.137L23.1275 113.345L34.7743 115.137L37.4621 120.96L39.2539 129.023L32.0866 133.503L23.1275 131.263L24.9193 125.44L21.3357 120.96L17.7521 125.44L19.9919 132.607L23.1275 137.086L29.3989 137.982H37.4621H45.9732V134.399L47.3171 120.96L50.9007 98.5623L53.5884 83.3318L56.2762 68.1014L63.4434 47.0475L59.8598 40.3282L53.5884 66.3096L44.1814 78.8523H39.2539L35.6703 75.2687L34.7743 60.4862L38.8059 47.0475L47.3171 34.5048L50.9007 31.3691H58.068L67.923 38.5364H111.822L121.677 31.3691L130.189 34.5048L143.179 47.0475L148.887 62.146L151.586 78.8523L146.315 86.9155L136.012 78.8523L130.189 68.1014L126.605 53.7668L124.813 44.3598L119.438 47.0475L128.845 78.8523L131.085 90.947L134.22 107.073Z" fill="#313131" stroke="black" stroke-width="3.23967"/>
<path d="M69.8397 62.9578L71.8566 60.7241C72.117 60.4358 72.4283 60.1979 72.7749 60.0226L74.6184 59.0899C74.8382 58.9787 75.0704 58.8936 75.31 58.8363L77.6902 58.2676C77.9017 58.2171 78.1177 58.1885 78.3351 58.1824L81.2508 58.1001C81.814 58.0842 82.3712 58.2192 82.8646 58.4913L84.4731 59.378C84.7505 59.531 85.0034 59.7248 85.2232 59.9531L87.0067 61.8051L88.1145 63.1834C88.5461 63.7204 88.7903 64.3839 88.8098 65.0727L88.8447 66.3115C88.8617 66.9123 88.7068 67.5055 88.3983 68.0214L87.1514 70.1064C86.9915 70.3738 86.7928 70.6161 86.562 70.8254L83.6946 73.4244C83.3945 73.6965 83.0448 73.9082 82.6647 74.0481L78.8657 75.4466C78.6222 75.5363 78.3686 75.5955 78.1106 75.6231L75.5398 75.8981C74.8067 75.9765 74.0693 75.7959 73.4553 75.3877L70.9687 73.7342C70.4798 73.4091 70.0912 72.9542 69.8465 72.4204L69.0301 70.6394C68.8534 70.2539 68.7561 69.8366 68.7442 69.4126L68.6727 66.8801C68.6658 66.636 68.6872 66.392 68.7366 66.1528L69.0908 64.436C69.2044 63.8854 69.4629 63.3751 69.8397 62.9578Z" fill="white"/>
<path d="M70.2356 66.4162L70.6382 64.2729C70.7115 63.8828 70.8648 63.5121 71.0884 63.1842C71.3016 62.8717 71.5743 62.6043 71.891 62.3974L73.4419 61.3842L75.8295 60.0767C76.268 59.8366 76.7574 59.704 77.2572 59.6899L80.0087 59.6122C80.4187 59.6006 80.827 59.669 81.2108 59.8136L83.1313 60.5368C83.549 60.6941 83.9286 60.9382 84.2451 61.2529L85.7787 62.7779C86.0878 63.0853 86.3299 63.4533 86.4898 63.8588L86.9416 65.0047C87.2127 65.692 87.2341 66.4526 87.0023 67.1541L86.3733 69.0574C86.1887 69.6161 85.8517 70.112 85.4003 70.4894L84.0218 71.6417C83.8305 71.8017 83.6208 71.9384 83.3973 72.0491L80.8319 73.3189C80.5028 73.4818 80.1479 73.586 79.783 73.627L77.1148 73.9263C76.7446 73.9678 76.3699 73.9435 76.0082 73.8545L73.7036 73.2875C73.2948 73.1869 72.9102 73.0056 72.5725 72.7543L71.7288 72.1262C71.0218 71.6 70.5669 70.8023 70.4739 69.9259L70.1989 67.3323C70.1665 67.0267 70.1788 66.7181 70.2356 66.4162Z" fill="black"/>
<path d="M113.459 69.3851L111.006 71.6931C110.502 72.1673 109.842 72.4369 109.137 72.457L106.499 72.5321L103.571 72.4668C103.351 72.4619 103.13 72.4327 102.912 72.3798L99.5033 71.5527C99.1964 71.4782 98.8986 71.3573 98.6198 71.1941L96.744 70.0956C96.2119 69.784 95.7662 69.3279 95.4597 68.7814L94.4873 67.0478C94.3302 66.7676 94.2121 66.4681 94.137 66.1589L93.5908 63.9116C93.4858 63.4794 93.4664 63.0362 93.5341 62.6094L93.8391 60.6834C93.9307 60.1048 94.1789 59.576 94.5559 59.1562L96.48 57.0133C96.5777 56.9045 96.6835 56.8037 96.7964 56.7117L99.7907 54.2728C100.097 54.0233 100.452 53.8419 100.836 53.7387L102.52 53.2865C102.988 53.1607 103.487 53.1544 103.975 53.2682L106.198 53.7858L109.302 54.277C110.044 54.3945 110.74 54.7804 111.264 55.3646L113.54 57.9015C113.945 58.352 114.228 58.9 114.359 59.485L114.944 62.0889C114.988 62.288 115.015 62.4895 115.023 62.6909L115.122 65.1014C115.14 65.5378 115.071 65.9667 114.92 66.3618L114.177 68.3077C114.019 68.7214 113.774 69.0887 113.459 69.3851Z" fill="white"/>
<path d="M113.535 65.3141L111.777 68.1286C111.673 68.2949 111.553 68.4493 111.419 68.5896L111.194 68.8247C110.917 69.1142 110.582 69.3399 110.21 69.4888L108.473 70.183L105.475 71.0928C105.206 71.1744 104.924 71.2164 104.638 71.2176L101.749 71.23C101.165 71.2325 100.578 71.0645 100.059 70.7453L98.5744 69.8342C97.946 69.4484 97.4485 68.863 97.1641 68.1748L95.9383 65.2077C95.846 64.9843 95.7774 64.7529 95.7336 64.5178L95.3783 62.6068C95.2469 61.8999 95.3454 61.186 95.6583 60.5776L96.7621 58.4321C97.0199 57.9309 97.4123 57.5229 97.8965 57.2524L99.5826 56.3103C99.7964 56.1909 100.026 56.0997 100.265 56.0388L103.114 55.3143C103.475 55.2226 103.854 55.2009 104.232 55.2503L107.575 55.686L109.903 56.2248C110.432 56.3474 110.933 56.6065 111.355 56.977L112.835 58.2743C113.606 58.9504 114.05 59.9367 114.035 60.9378L113.991 63.7362C113.982 64.3054 113.825 64.8503 113.535 65.3141Z" fill="black"/>
<path d="M93.4325 76.7245L88.9529 78.0684L89.4009 81.2041L93.4325 83.8918L97.4641 81.2041V78.0684L93.4325 76.7245Z" fill="black"/>
<path d="M93.4325 83.8918L97.4641 87.0275L105.152 88.0634L114.871 87.0275L120.27 84.2837M93.4325 83.8918L91.6407 85.6836L86.2537 89.6832L80.3143 90.2231L73.835 89.1432L68.4355 87.0275M93.4325 83.8918L89.4009 81.2041L88.9529 78.0684L93.4325 76.7245L97.4641 78.0684V81.2041L93.4325 83.8918Z" stroke="black" stroke-width="2.15978"/>
</g>
</svg>
