<svg width="521" height="456" viewBox="0 0 521 456" fill="none" xmlns="http://www.w3.org/2000/svg">
<path d="M81.4348 31.532L84.1317 18.1299L89.6288 31.3007L100.883 66.8607L239.158 62.9577L242.718 7.50314L273.566 83.513L301.688 171.901L317.328 217.588L326.91 266.521L336.347 310.333L340.965 328.654L343.534 347.033L347.792 388.94L383.331 380.862L383.331 358.13L397.555 353.628L394.69 339.219L414.534 337.773L396.358 316.71L413.522 301.924L397.555 287.532L409.842 280.501L407.624 264.444L419.767 268.945L434.706 249.183L447.364 266.116L471.388 263.355L470.36 281.868L502.234 295.868L493.848 315.033L518.073 337.773L499.188 358.96L512.238 380.069L470.36 418.378L450.546 432.55L418.867 440.887L336.096 446.675L258.107 443.751L163.818 444.362L110.441 441.768L64.2332 438.972L33.3609 434.718L18.7611 425.905L18.2118 406.444L20.157 366.411L22.0733 325.354L25.1874 290.414L33.2493 249.183L36.479 218.34L41.6994 185.39L47.973 153.435L57.1747 116.273L67.5453 84.2029L81.4348 31.532Z" fill="black" stroke="black" stroke-width="0.41226"/>
<path d="M24.3041 118.412L27.6782 126.467C28.119 127.52 29.2225 128.134 30.3493 127.954L36.9679 126.898C38.1989 126.702 39.3837 127.452 39.7324 128.649L41.4375 134.502C41.7863 135.699 42.9714 136.45 44.2026 136.253L53.9403 134.697L47.8649 158.483M47.8649 158.483L44.9341 174.168L38.2704 179.755C37.5249 180.38 36.4823 180.51 35.6062 180.087L29.9442 177.355C29.03 176.914 27.939 177.076 27.1926 177.764L22.4106 182.172C21.6804 182.845 20.6184 183.017 19.7137 182.607L11.9245 179.08M47.8649 158.483L38.6608 160.432C37.6829 160.639 36.6765 160.237 36.1102 159.413L32.4377 154.072C31.822 153.177 30.694 152.788 29.6574 153.114L22.951 155.223C21.914 155.549 20.7856 155.16 20.1701 154.264L14.9385 146.648" stroke="black" stroke-width="1.64904"/>
<path d="M317.553 102.498L311.085 108.925C310.465 109.541 309.564 109.784 308.718 109.564L302.076 107.833C300.99 107.55 299.851 108.033 299.299 109.009L295.36 115.977C294.921 116.753 294.099 117.233 293.207 117.233L284.194 117.233L291.859 139.459M291.859 139.459L296.207 154.423L304.246 159.924C305.009 160.446 305.999 160.499 306.813 160.061L313.314 156.569C314.148 156.121 315.165 156.188 315.932 156.742L322.552 161.52C323.331 162.082 324.364 162.142 325.203 161.675L333.147 157.25M291.859 139.459L300.895 140.606C301.685 140.706 302.475 140.42 303.017 139.838L308.825 133.601C309.572 132.799 310.757 132.584 311.737 133.072L318.956 136.665C319.88 137.126 320.994 136.963 321.748 136.257L328.579 129.863" stroke="black" stroke-width="1.64904"/>
<path d="M77.8397 145.912L89.472 135.8C89.68 135.619 89.9168 135.474 90.1726 135.372L100.836 131.087C100.982 131.028 101.134 130.983 101.289 130.953L113.61 128.571C113.742 128.546 113.876 128.531 114.01 128.527L130.348 128.066C130.706 128.056 131.061 128.124 131.391 128.265L142.109 132.852C142.32 132.942 142.518 133.062 142.697 133.208L151.177 140.11L157.787 146.572C158.246 147.021 158.513 147.63 158.531 148.271L158.775 156.912C158.791 157.48 158.611 158.036 158.265 158.486L150.78 168.255C150.631 168.45 150.453 168.621 150.253 168.764L135.532 179.267C135.307 179.427 135.058 179.548 134.793 179.626L115.645 185.261C115.49 185.307 115.33 185.338 115.169 185.352L99.0772 186.8C98.608 186.842 98.1365 186.749 97.7181 186.533L81.6508 178.213C81.2317 177.996 80.8834 177.663 80.6471 177.255L75.3316 168.065C75.1257 167.709 75.0118 167.308 75.0002 166.897L74.7016 156.317C74.6948 156.076 74.7233 155.835 74.7863 155.602L77.0747 147.134C77.2028 146.66 77.4691 146.235 77.8397 145.912Z" fill="#BEBEBE"/>
<path d="M80.9834 156.139L83.2947 147.331C83.3974 146.94 83.5947 146.579 83.869 146.282L85.9221 144.056C86.1297 143.831 86.3772 143.646 86.6521 143.512L94.7293 139.555L107.077 134.466C107.355 134.352 107.65 134.289 107.95 134.28L124.337 133.818C124.581 133.811 124.824 133.84 125.059 133.904L137.276 137.24C137.57 137.32 137.846 137.453 138.091 137.634L147.519 144.575C147.822 144.798 148.07 145.087 148.244 145.42L151.97 152.538C152.324 153.213 152.346 154.013 152.032 154.707L147.435 164.842C147.234 165.286 146.905 165.661 146.492 165.919L137.465 171.552C137.325 171.639 137.176 171.713 137.021 171.771L123.364 176.87C123.158 176.947 122.942 176.996 122.722 177.016L107.634 178.381C107.417 178.401 107.198 178.391 106.983 178.354L93.287 175.948C93.0204 175.901 92.7633 175.81 92.5259 175.68L83.7783 170.885C83.0883 170.507 82.6194 169.822 82.5155 169.042L80.924 157.094C80.8816 156.775 80.9017 156.451 80.9834 156.139Z" fill="black"/>
<path d="M261.237 165.19L247.768 173.644C247.38 173.888 246.923 174.005 246.452 173.981L231.848 173.224L218.599 172.059C218.478 172.048 218.357 172.028 218.238 171.999L201.186 167.862C201.017 167.821 200.851 167.761 200.691 167.685L188.322 161.782C187.96 161.609 187.637 161.352 187.38 161.033L180.545 152.547C180.369 152.33 180.228 152.087 180.125 151.828L176.527 142.751C176.351 142.306 176.295 141.827 176.368 141.37L177.695 132.991C177.79 132.393 178.097 131.868 178.558 131.516L188.026 124.288C188.122 124.215 188.223 124.15 188.329 124.093L202.168 116.758C202.409 116.631 202.671 116.548 202.945 116.515L214.219 115.147C214.494 115.114 214.775 115.13 215.052 115.195L226.975 118.008L243.968 121.131C244.395 121.209 244.802 121.401 245.149 121.687L260.105 134.026C260.48 134.335 260.769 134.742 260.939 135.199L264.811 145.621C264.885 145.82 264.935 146.025 264.961 146.233L266.055 155.14C266.115 155.626 266.037 156.109 265.832 156.53L262.053 164.277C261.869 164.656 261.587 164.97 261.237 165.19Z" fill="#BEBEBE"/>
<path d="M260.746 152.68L252.529 161.799C252.411 161.93 252.278 162.046 252.132 162.145L249.383 164.013C249.144 164.175 248.875 164.289 248.589 164.349L239.703 166.193L226.097 168.092C225.938 168.114 225.776 168.12 225.614 168.109L208.956 166.971C208.643 166.949 208.333 166.867 208.042 166.727L195.409 160.653C194.956 160.435 194.566 160.088 194.291 159.655L186.665 147.689C186.54 147.493 186.441 147.283 186.369 147.065L183.697 138.924C183.442 138.147 183.556 137.319 184.004 136.697L190.33 127.927C190.606 127.544 190.993 127.262 191.442 127.118L201.582 123.859C201.73 123.812 201.883 123.78 202.039 123.763L216.803 122.213C217.009 122.192 217.218 122.197 217.426 122.231L233.349 124.78L245.968 127.66C246.261 127.726 246.543 127.847 246.802 128.015L259.564 136.306C260.304 136.786 260.776 137.609 260.813 138.48L261.337 150.984C261.363 151.623 261.152 152.23 260.746 152.68Z" fill="black"/>
<path d="M81.4999 112L98 116.5L117.5 111L134 123L153.5 121" stroke="#BEBEBE" stroke-width="2"/>
<path d="M176 118.174L191.5 109.5L211 109.5L225 96.5L243.13 90.5693" stroke="#BEBEBE" stroke-width="2"/>
<path d="M53.5 85.1246L86 70L107.057 65.3555L143.965 64.5071L181.774 63.638L236.686 62.3758L252.5 70L265 85.1246L281.5 107.226L225.5 76L240.989 132.022L186.5 80.2497L186.5 113.709L143.965 80.2497L138.5 120.114L126.5 85.1246L101.5 103L60 132.022L101.5 80.2497L53.5 85.1246Z" fill="#4B4B4B"/>
<path d="M161 222.5L149.5 207.377L155.5 195L174.768 189.789L162 182.251L164.803 178.063H184.733L187.224 182.251L174.768 189.789L192.5 191.5L202.171 207.377L192.5 217.5L174.768 224.128L161 222.5Z" fill="#BEBEBE"/>
</svg>
