<svg width="977" height="204" viewBox="0 0 977 204" fill="none" xmlns="http://www.w3.org/2000/svg">
<rect y="186" width="977" height="4" fill="#565656"/>
<path d="M640.765 179.895L641.806 199.715L650.027 199.417L658.78 198.948L667.063 198.389L664.95 178.626L657.79 175.363L656.847 165.607L648.042 164.904L648.616 175.845L640.765 179.895Z" fill="#999999"/>
<path d="M643 195.679L645.135 185.272V181.536L654.207 177H659.811L661.679 183.938L667.282 187.407L665.415 195.679L659.811 196.479L652.073 202.083L648.07 196.479L643 195.679Z" fill="#C1C1C1"/>
<path d="M645.135 185.272L643 195.679L648.07 196.479L652.073 202.083L659.811 196.479M645.135 185.272V181.536L654.207 177M645.135 185.272H652.073L654.207 191.676M659.811 196.479L665.415 195.679L667.282 187.407L661.679 183.938M659.811 196.479L654.207 191.676M661.679 183.938L659.811 177H654.207M661.679 183.938L658.21 187.407M654.207 177L656.342 181.536L658.21 187.407M654.207 191.676L658.21 187.407" stroke="#4C4C4C" stroke-width="1.60104"/>
<path d="M647.379 199.516L642.17 195.531L640.095 194.526L640.014 188.265L641.521 185.152L645.878 185.979L649.312 183.798L653.406 187.061L652.344 190.39L653.377 196.197L649.187 196.914L647.379 199.516Z" fill="#C1C1C1"/>
<path d="M642.17 195.531L647.379 199.516L649.187 196.914L653.377 196.197L652.344 190.39M642.17 195.531L640.095 194.526L640.014 188.265M642.17 195.531L644.036 191.676L648.169 192.212M652.344 190.39L653.406 187.061L649.312 183.798L645.878 185.979M652.344 190.39L648.169 192.212M645.878 185.979L641.521 185.152L640.014 188.265M645.878 185.979L646.873 188.84M640.014 188.265L643.108 188.299L646.873 188.84M648.169 192.212L646.873 188.84" stroke="#4C4C4C" stroke-width="0.988328"/>
<path d="M663.379 184.516L658.17 180.531L656.095 179.526L656.014 173.265L657.521 170.152L661.878 170.979L665.312 168.798L669.406 172.061L668.344 175.39L669.377 181.197L665.187 181.914L663.379 184.516Z" fill="#C1C1C1"/>
<path d="M658.17 180.531L663.379 184.516L665.187 181.914L669.377 181.197L668.344 175.39M658.17 180.531L656.095 179.526L656.014 173.265M658.17 180.531L660.036 176.676L664.169 177.212M668.344 175.39L669.406 172.061L665.312 168.798L661.878 170.979M668.344 175.39L664.169 177.212M661.878 170.979L657.521 170.152L656.014 173.265M661.878 170.979L662.873 173.84M656.014 173.265L659.108 173.299L662.873 173.84M664.169 177.212L662.873 173.84" stroke="#4C4C4C" stroke-width="0.988328"/>
<path d="M633 190.679L635.135 180.272V176.536L644.207 172H649.811L651.679 178.938L657.282 182.407L655.415 190.679L649.811 191.479L642.073 197.083L638.07 191.479L633 190.679Z" fill="#C1C1C1"/>
<path d="M635.135 180.272L633 190.679L638.07 191.479L642.073 197.083L649.811 191.479M635.135 180.272V176.536L644.207 172M635.135 180.272H642.073L644.207 186.676M649.811 191.479L655.415 190.679L657.282 182.407L651.679 178.938M649.811 191.479L644.207 186.676M651.679 178.938L649.811 172H644.207M651.679 178.938L648.21 182.407M644.207 172L646.342 176.536L648.21 182.407M644.207 186.676L648.21 182.407" stroke="#4C4C4C" stroke-width="1.60104"/>
<path d="M635.309 185.935L642.192 179.524L644.122 176.834L652.865 178.162L656.818 180.998L654.55 186.939L656.71 192.273L651.118 197.283L646.752 195.022L638.398 195.139L638.471 189.078L635.309 185.935Z" fill="#C1C1C1"/>
<path d="M642.192 179.524L635.309 185.935L638.471 189.078L638.398 195.139L646.752 195.022M642.192 179.524L644.122 176.834L652.865 178.162M642.192 179.524L647.085 183.036L645.282 188.727M646.752 195.022L651.118 197.283L656.71 192.273L654.55 186.939M646.752 195.022L645.282 188.727M654.55 186.939L656.818 180.998L652.865 178.162M654.55 186.939L650.311 187.68M652.865 178.162L652.027 182.508L650.311 187.68M645.282 188.727L650.311 187.68" stroke="#4C4C4C" stroke-width="1.60104"/>
<path d="M722.84 132.024V202.747H953.196V167.385V151.344V132.024H932.461H924.401H908.504H894.5H838.018H722.84Z" fill="black" stroke="#999999" stroke-width="2.21584"/>
<path d="M87.707 128.7V199.423H318.063V128.7H87.707Z" fill="black" stroke="#999999" stroke-width="2.21584"/>
<path d="M771.346 185.142C771.346 184.694 771.346 183.801 771.346 182.464C771.794 182.464 772.687 182.464 774.024 182.464C774.645 177.297 775.879 166.971 777.725 151.487C778.958 151.487 781.426 151.487 785.126 151.487C785.739 156.654 786.977 166.975 788.84 182.451C789.288 182.451 790.186 182.451 791.531 182.451C791.531 182.899 791.531 183.796 791.531 185.142C788.167 185.142 781.438 185.142 771.346 185.142ZM777.375 182.464C778.721 182.464 781.408 182.464 785.437 182.464C784.876 177.745 783.768 168.317 782.111 154.178C781.999 154.178 781.775 154.178 781.438 154.178C781.326 154.178 781.102 154.178 780.766 154.178C780.205 158.897 779.075 168.325 777.375 182.464ZM806.386 185.142C806.946 185.142 808.059 185.142 809.724 185.142C809.724 179.535 809.715 168.321 809.698 151.5C809.146 151.5 808.033 151.5 806.36 151.5C805.238 152.63 802.996 154.89 799.631 158.28C799.631 157.15 799.631 154.89 799.631 151.5C799.071 151.5 797.949 151.5 796.267 151.5C796.276 157.107 796.284 168.321 796.293 185.142C796.854 185.142 797.975 185.142 799.657 185.142C799.657 181.329 799.649 173.704 799.631 162.265C800.753 161.144 802.996 158.901 806.36 155.537C806.368 160.471 806.377 170.339 806.386 185.142ZM814.408 185.142C814.408 184.694 814.408 183.801 814.408 182.464C814.857 182.464 815.75 182.464 817.087 182.464C817.708 177.297 818.941 166.971 820.787 151.487C822.021 151.487 824.488 151.487 828.189 151.487C828.801 156.654 830.039 166.975 831.902 182.451C832.351 182.451 833.248 182.451 834.594 182.451C834.594 182.899 834.594 183.796 834.594 185.142C831.229 185.142 824.501 185.142 814.408 185.142ZM820.438 182.464C821.784 182.464 824.471 182.464 828.499 182.464C827.939 177.745 826.83 168.317 825.174 154.178C825.062 154.178 824.837 154.178 824.501 154.178C824.389 154.178 824.165 154.178 823.828 154.178C823.267 158.897 822.137 168.325 820.438 182.464ZM849.396 185.142C849.957 185.142 851.079 185.142 852.761 185.142C852.761 181.441 852.761 174.04 852.761 162.938C853.882 162.938 856.125 162.938 859.489 162.938C859.498 166.639 859.507 174.04 859.515 185.142C860.076 185.142 861.189 185.142 862.854 185.142C862.845 179.535 862.836 168.321 862.828 151.5C862.267 151.5 861.154 151.5 859.489 151.5C859.489 152.957 859.489 155.873 859.489 160.247C858.368 160.247 856.125 160.247 852.761 160.247C852.761 158.789 852.761 155.873 852.761 151.5C852.2 151.5 851.079 151.5 849.396 151.5C849.396 152.957 849.396 155.873 849.396 160.247C848.275 160.247 846.032 160.247 842.668 160.247C842.677 158.789 842.685 155.873 842.694 151.5C842.133 151.5 841.003 151.5 839.304 151.5C839.304 157.107 839.304 168.321 839.304 185.142C839.864 185.142 840.986 185.142 842.668 185.142C842.668 181.441 842.668 174.04 842.668 162.938C843.789 162.938 846.032 162.938 849.396 162.938C849.396 166.639 849.396 174.04 849.396 185.142ZM869.582 185.142C871.601 185.142 875.638 185.142 881.693 185.142C881.693 184.694 881.693 183.796 881.693 182.451C880.236 182.451 877.32 182.451 872.946 182.451C872.946 179.199 872.946 172.694 872.946 162.938C874.068 162.938 876.311 162.938 879.675 162.938C879.675 162.49 879.675 161.592 879.675 160.247C878.553 160.247 876.311 160.247 872.946 160.247C872.946 159.237 872.946 157.219 872.946 154.191C874.404 154.191 877.32 154.191 881.693 154.191C881.693 153.622 881.693 153.315 881.693 153.272C881.693 153.221 881.693 152.63 881.693 151.5C879.002 151.5 874.965 151.5 869.582 151.5C869.582 157.107 869.582 168.321 869.582 185.142ZM897.868 185.142C898.428 185.142 899.541 185.142 901.206 185.142C901.197 179.535 901.189 168.321 901.18 151.5C900.619 151.5 899.507 151.5 897.842 151.5C896.72 152.63 894.478 154.89 891.113 158.28C891.113 157.15 891.113 154.89 891.113 151.5C890.553 151.5 889.431 151.5 887.749 151.5C887.758 157.107 887.766 168.321 887.775 185.142C888.336 185.142 889.457 185.142 891.139 185.142C891.139 181.329 891.131 173.704 891.113 162.265C892.235 161.144 894.478 158.901 897.842 155.537C897.85 160.471 897.859 170.339 897.868 185.142ZM891.165 148.821C892.278 148.821 894.503 148.817 897.842 148.808C897.842 148.36 897.842 147.462 897.842 146.117C896.72 146.117 894.478 146.117 891.113 146.117C891.122 146.565 891.139 147.467 891.165 148.821Z" fill="#999999"/>
<path d="M176.416 183C176.705 183 177.288 183 178.164 183C182.465 183 185.413 182.198 187.007 180.595C188.593 179.001 189.39 176.921 189.398 174.354C189.398 171.919 188.601 169.904 187.007 168.31C185.413 166.715 183.153 165.918 180.227 165.918C180.139 165.918 180.003 165.918 179.82 165.918C179.82 159.033 179.82 155.407 179.82 155.039C179.828 154.679 179.833 153.523 179.833 151.57C181.348 151.57 183.626 151.565 186.665 151.557C186.665 151.101 186.665 150.194 186.665 148.837C184.957 148.837 181.541 148.837 176.416 148.837C176.416 154.531 176.416 165.918 176.416 183ZM179.82 168.665C179.881 168.656 180.017 168.651 180.227 168.651C182.242 168.651 183.705 169.221 184.616 170.36C185.527 171.498 185.982 172.83 185.982 174.354C185.973 176.018 185.417 177.42 184.313 178.559C183.21 179.698 181.716 180.267 179.833 180.267C179.833 177.692 179.828 173.824 179.82 168.665ZM205.219 169.348C204.746 169.348 203.8 169.348 202.381 169.348C201.907 169.348 200.961 169.348 199.542 169.348C199.218 171.625 198.566 176.176 197.584 183C197.015 183 195.881 183 194.181 183C194.926 177.306 196.419 165.914 198.662 148.823C199.906 148.823 202.394 148.823 206.125 148.823C206.852 154.517 208.32 165.91 210.527 183C209.958 183 208.823 183 207.124 183C206.809 180.722 206.174 176.172 205.219 169.348ZM200.015 166.628C200.804 166.628 202.372 166.628 204.719 166.628C204.439 164.114 203.878 159.09 203.037 151.557C202.924 151.557 202.696 151.557 202.354 151.557C202.24 151.557 202.013 151.557 201.671 151.557C201.391 154.071 200.839 159.094 200.015 166.628ZM216.046 183C216.466 183 217.036 183 217.754 183C218.472 183 219.042 183 219.462 183C219.462 179.207 219.462 173.513 219.462 165.918C219.532 165.918 219.664 165.918 219.856 165.918C222.747 165.918 225.003 165.082 226.623 163.409C228.235 161.735 229.041 159.747 229.041 157.443C229.041 154.885 228.24 152.814 226.636 151.228C225.033 149.634 222.651 148.837 219.488 148.837C218.726 148.837 217.579 148.837 216.046 148.837C216.046 154.531 216.046 165.918 216.046 183ZM219.462 151.57C221.757 151.605 223.356 152.227 224.258 153.436C225.152 154.644 225.598 155.98 225.598 157.443C225.598 158.687 225.147 159.957 224.245 161.254C223.352 162.541 221.889 163.185 219.856 163.185C219.769 163.185 219.637 163.185 219.462 163.185C219.462 161.249 219.462 157.377 219.462 151.57Z" fill="#999999"/>
<path d="M528.951 0.38002V71.9641" stroke="#999999" stroke-width="2.02066"/>
<circle cx="529.231" cy="108.547" r="35.8668" stroke="#999999" stroke-width="2.02066"/>
<path d="M551.43 80.2898H506.973L501.196 85.6527L498.121 90.5441H559.719L562.105 95.1972L563.361 100.066H494.414L493.786 102.732L493.535 105.495V109.405H564.366L564.115 113.91L563.11 118.011H494.917L496.675 123.077L499.755 128.082H558.212L555.826 131.366L552.937 134.125L505.089 134.003L508.857 137.394L514.006 140.534H544.696" stroke="#999999" stroke-width="2.02066"/>
<path d="M518.404 74.3505V80.253H523.177M540.256 80.253H536.614V73.3458L528.577 72.4667V80.253H523.177M540.256 80.253H544.024V75.8575L550.806 80.253H547.54V90.5511H540.256V80.253ZM532.344 80.253V90.5511H527.76M523.177 80.253V90.5511H527.76M509.864 80.253V90.5511H503.208V100.096H509.927M527.76 90.5511H516.646V100.096H509.927M527.76 90.5511V100.096H533.318M554.887 100.096H550.052V90.5511H538.875V100.096H533.318M554.887 100.096H559.722V90.5511L561.983 94.6954L563.364 99.4677V100.096H554.887ZM554.887 100.096V109.389H549.455M533.318 100.096H544.024V109.389H549.455M533.318 100.096V109.389M521.795 100.096V109.389H515.893M509.927 100.096L509.864 109.389H515.893M498.311 100.096V109.389H503.208V118.054H511.874M515.893 109.389V118.054H511.874M527.823 109.389V118.054H535.358M549.455 109.389H539.503V118.054H535.358M549.455 109.389V118.054M559.094 109.389V118.054H554.071V128.101H550.554M535.358 118.054H544.401V128.101H550.554M535.358 118.054V128.101M522.674 118.054V128.101H515.893M511.874 118.054V128.101H515.893M501.073 118.054V128.101H506.85V134.129H514.888M515.893 128.101V134.129H514.888M532.219 128.101V134.129H536.865M550.554 128.101H540.759V134.129H536.865M550.554 128.101V134.129H545.782V139.53L543.27 140.534H536.865V134.129M527.698 134.129V140.534H515.139L514.888 134.129" stroke="#999999" stroke-width="2.02066"/>
<path d="M510.113 80.8807H522.923V90.0485H510.113V80.8807Z" fill="#999999"/>
<path d="M532.721 80.8808H540.005V89.923H532.721V80.8808Z" fill="#999999"/>
<path d="M533.471 100.723H543.769V108.886H533.471V100.723Z" fill="#999999"/>
<path d="M498.311 100.598H509.613V108.761H498.311V100.598Z" fill="#999999"/>
<path d="M516.143 110.017H527.445V117.426H516.143V110.017Z" fill="#999999"/>
<path d="M535.734 118.682H544.023V127.473H535.734V118.682Z" fill="#999999"/>
<path d="M516.143 128.729H531.966V133.501H516.143V128.729Z" fill="#999999"/>
<path d="M649.656 174.417L637.086 192.668L640.7 195.339L644.649 198.046L648.461 200.503L660.548 181.918L659.711 176.415L665.719 167.277L662.518 163.494L655.579 173.57L649.656 174.417Z" fill="#999999"/>
<path d="M656.656 162.417L644.086 180.668L647.7 183.339L651.649 186.046L655.461 188.503L667.548 169.918L666.711 164.415L672.719 155.277L669.518 151.494L662.579 161.57L656.656 162.417Z" fill="#999999"/>
<path d="M636.887 169.622L651.698 191.084L655.495 188.677L659.428 185.948L663.066 183.239L647.773 162.11L641.924 160.345L634.424 149.89L629.62 151.347L637.795 163.195L636.887 169.622Z" fill="#999999"/>
<path d="M635.249 160.83H629.773L631.958 173.819M635.249 160.83L640.725 202.472M635.249 160.83H640.725M640.725 202.472H636.778L635.514 194.959M640.725 202.472H644.928M640.725 160.83L644.928 202.472M640.725 160.83H647.347M644.928 202.472H649.003M647.347 160.83L649.003 202.472M647.347 160.83H652.696M649.003 202.472H652.696M652.696 160.83V202.472M652.696 160.83H659.827M652.696 202.472H656.771M659.827 160.83L656.771 202.472M659.827 160.83H665.558M656.771 202.472H659.827M665.558 160.83L659.827 202.472M665.558 160.83H670.525M659.827 202.472H663.648M670.525 160.83H674.09L672.025 173.819M670.525 160.83L663.648 202.472M663.648 202.472H667.468L668.663 194.959M635.514 194.959H668.663M635.514 194.959L633.693 184.134M668.663 194.959L670.384 184.134M670.384 184.134H633.693M670.384 184.134L672.025 173.819M633.693 184.134L631.958 173.819M631.958 173.819H672.025" stroke="#999999" stroke-width="1.65361"/>
<path d="M722.84 67.7643V132.024H771.588V67.7643H722.84Z" fill="black" stroke="#999999" stroke-width="2.21584"/>
<path d="M906.754 67.7643V132.024H952.733V67.7643H906.754Z" fill="black" stroke="#999999" stroke-width="2.21584"/>
<circle cx="747.214" cy="85.4911" r="6.64752" fill="#999999"/>
<circle cx="747.214" cy="85.4911" r="10.5252" stroke="#999999" stroke-width="1.10792"/>
<circle cx="747.212" cy="114.297" r="8.64178" fill="#999999"/>
<circle cx="747.214" cy="114.297" r="13.6828" stroke="#999999" stroke-width="1.4403"/>
<circle cx="930.021" cy="85.4911" r="6.64752" fill="#999999"/>
<circle cx="930.021" cy="85.4911" r="10.5252" stroke="#999999" stroke-width="1.10792"/>
<circle cx="930.021" cy="114.297" r="8.64178" fill="#999999"/>
<circle cx="930.02" cy="114.297" r="13.6828" stroke="#999999" stroke-width="1.4403"/>
</svg>
