<svg width="1440" height="644" viewBox="0 0 1440 644" fill="none" xmlns="http://www.w3.org/2000/svg">
<line x1="-32" y1="371.5" x2="1440" y2="371.5" stroke="#383838" stroke-width="3"/>
<path d="M957 267.831V406.32H1408.08V337.076V305.663V267.831H1367.47H1351.69H1322.76H1293.14H1182.54H957Z" fill="#9001B4" stroke="#999999" stroke-width="3"/>
<path d="M1051.98 371.561C1051.98 370.683 1051.98 368.935 1051.98 366.316C1052.86 366.316 1054.61 366.316 1057.23 366.316C1058.44 356.198 1060.86 335.979 1064.47 305.658C1066.89 305.658 1071.72 305.658 1078.97 305.658C1080.17 315.776 1082.59 335.987 1086.24 366.291C1087.12 366.291 1088.87 366.291 1091.51 366.291C1091.51 367.169 1091.51 368.926 1091.51 371.561C1084.92 371.561 1071.75 371.561 1051.98 371.561ZM1063.79 366.316C1066.43 366.316 1071.69 366.316 1079.58 366.316C1078.48 357.077 1076.31 338.614 1073.06 310.928C1072.84 310.928 1072.4 310.928 1071.75 310.928C1071.53 310.928 1071.09 310.928 1070.43 310.928C1069.33 320.168 1067.12 338.631 1063.79 366.316ZM1120.6 371.561C1121.7 371.561 1123.87 371.561 1127.13 371.561C1127.13 360.582 1127.12 338.622 1127.08 305.683C1126 305.683 1123.82 305.683 1120.55 305.683C1118.35 307.896 1113.96 312.322 1107.37 318.96C1107.37 316.747 1107.37 312.322 1107.37 305.683C1106.27 305.683 1104.08 305.683 1100.78 305.683C1100.8 316.663 1100.82 338.622 1100.83 371.561C1101.93 371.561 1104.13 371.561 1107.42 371.561C1107.42 364.095 1107.4 349.163 1107.37 326.764C1109.57 324.568 1113.96 320.176 1120.55 313.589C1120.56 323.251 1120.58 342.575 1120.6 371.561ZM1136.31 371.561C1136.31 370.683 1136.31 368.935 1136.31 366.316C1137.19 366.316 1138.93 366.316 1141.55 366.316C1142.77 356.198 1145.18 335.979 1148.8 305.658C1151.21 305.658 1156.04 305.658 1163.29 305.658C1164.49 315.776 1166.91 335.987 1170.56 366.291C1171.44 366.291 1173.2 366.291 1175.83 366.291C1175.83 367.169 1175.83 368.926 1175.83 371.561C1169.25 371.561 1156.07 371.561 1136.31 371.561ZM1148.11 366.316C1150.75 366.316 1156.01 366.316 1163.9 366.316C1162.8 357.077 1160.63 338.614 1157.39 310.928C1157.17 310.928 1156.73 310.928 1156.07 310.928C1155.85 310.928 1155.41 310.928 1154.75 310.928C1153.65 320.168 1151.44 338.631 1148.11 366.316ZM1204.82 371.561C1205.92 371.561 1208.11 371.561 1211.41 371.561C1211.41 364.315 1211.41 349.821 1211.41 328.082C1213.6 328.082 1218 328.082 1224.58 328.082C1224.6 335.328 1224.62 349.821 1224.63 371.561C1225.73 371.561 1227.91 371.561 1231.17 371.561C1231.15 360.582 1231.14 338.622 1231.12 305.683C1230.02 305.683 1227.84 305.683 1224.58 305.683C1224.58 308.538 1224.58 314.247 1224.58 322.811C1222.39 322.811 1218 322.811 1211.41 322.811C1211.41 319.957 1211.41 314.247 1211.41 305.683C1210.31 305.683 1208.11 305.683 1204.82 305.683C1204.82 308.538 1204.82 314.247 1204.82 322.811C1202.62 322.811 1198.23 322.811 1191.64 322.811C1191.66 319.957 1191.68 314.247 1191.7 305.683C1190.6 305.683 1188.38 305.683 1185.06 305.683C1185.06 316.663 1185.06 338.622 1185.06 371.561C1186.15 371.561 1188.35 371.561 1191.64 371.561C1191.64 364.315 1191.64 349.821 1191.64 328.082C1193.84 328.082 1198.23 328.082 1204.82 328.082C1204.82 335.328 1204.82 349.821 1204.82 371.561ZM1244.35 371.561C1248.3 371.561 1256.2 371.561 1268.06 371.561C1268.06 370.683 1268.06 368.926 1268.06 366.291C1265.21 366.291 1259.5 366.291 1250.93 366.291C1250.93 359.923 1250.93 347.186 1250.93 328.082C1253.13 328.082 1257.52 328.082 1264.11 328.082C1264.11 327.203 1264.11 325.447 1264.11 322.811C1261.91 322.811 1257.52 322.811 1250.93 322.811C1250.93 320.835 1250.93 316.882 1250.93 310.953C1253.79 310.953 1259.5 310.953 1268.06 310.953C1268.06 309.839 1268.06 309.239 1268.06 309.154C1268.06 309.053 1268.06 307.896 1268.06 305.683C1262.79 305.683 1254.89 305.683 1244.35 305.683C1244.35 316.663 1244.35 338.622 1244.35 371.561ZM1299.74 371.561C1300.83 371.561 1303.01 371.561 1306.27 371.561C1306.26 360.582 1306.24 338.622 1306.22 305.683C1305.12 305.683 1302.94 305.683 1299.68 305.683C1297.49 307.896 1293.1 312.322 1286.51 318.96C1286.51 316.747 1286.51 312.322 1286.51 305.683C1285.41 305.683 1283.21 305.683 1279.92 305.683C1279.94 316.663 1279.95 338.622 1279.97 371.561C1281.07 371.561 1283.27 371.561 1286.56 371.561C1286.56 364.095 1286.54 349.163 1286.51 326.764C1288.7 324.568 1293.1 320.176 1299.68 313.589C1299.7 323.251 1299.72 342.575 1299.74 371.561ZM1286.61 300.438C1288.79 300.438 1293.15 300.43 1299.68 300.413C1299.68 299.535 1299.68 297.778 1299.68 295.143C1297.49 295.143 1293.1 295.143 1286.51 295.143C1286.53 296.021 1286.56 297.786 1286.61 300.438Z" fill="#999999"/>
<path d="M957 142V267.831H1052.46V142H957Z" fill="#9001B4" stroke="#999999" stroke-width="3"/>
<path d="M1317.14 142V267.831H1407.17V142H1317.14Z" fill="#9001B4" stroke="#999999" stroke-width="3"/>
<line x1="-32" y1="642.5" x2="1440" y2="642.5" stroke="#383838" stroke-width="3"/>
<line x1="-32" y1="1.50003" x2="1440" y2="1.50003" stroke="#383838" stroke-width="3"/>
<circle cx="1004.73" cy="176.712" r="13.017" fill="#999999"/>
<circle cx="1004.73" cy="176.712" r="20.195" stroke="#999999" stroke-width="3"/>
<circle cx="1004.72" cy="233.12" r="16.9221" fill="#999999"/>
<circle cx="1004.73" cy="233.119" r="26.7036" stroke="#999999" stroke-width="3"/>
<circle cx="1362.7" cy="176.712" r="13.017" fill="#999999"/>
<circle cx="1362.7" cy="176.712" r="20.195" stroke="#999999" stroke-width="3"/>
<circle cx="1362.7" cy="233.12" r="16.9221" fill="#999999"/>
<circle cx="1362.7" cy="233.119" r="26.7036" stroke="#999999" stroke-width="3"/>
<path d="M42 266V396.955H468.54V266H42Z" fill="#9001B4" stroke="#999999" stroke-width="3"/>
<path d="M206.351 365C206.888 365 207.971 365 209.599 365C217.595 365 223.074 363.51 226.038 360.53C228.985 357.567 230.467 353.699 230.483 348.928C230.483 344.401 229.001 340.656 226.038 337.692C223.074 334.729 218.873 333.247 213.434 333.247C213.271 333.247 213.019 333.247 212.677 333.247C212.677 320.448 212.677 313.706 212.677 313.022C212.693 312.355 212.701 310.205 212.701 306.574C215.518 306.574 219.752 306.566 225.403 306.55C225.403 305.703 225.403 304.018 225.403 301.494C222.227 301.494 215.877 301.494 206.351 301.494C206.351 312.078 206.351 333.247 206.351 365ZM212.677 338.352C212.791 338.335 213.043 338.327 213.434 338.327C217.179 338.327 219.899 339.386 221.592 341.503C223.286 343.62 224.132 346.095 224.132 348.928C224.116 352.022 223.082 354.627 221.03 356.744C218.979 358.861 216.202 359.92 212.701 359.92C212.701 355.132 212.693 347.943 212.677 338.352ZM259.891 339.622C259.012 339.622 257.253 339.622 254.615 339.622C253.736 339.622 251.978 339.622 249.34 339.622C248.737 343.856 247.524 352.315 245.7 365C244.642 365 242.533 365 239.374 365C240.758 354.416 243.534 333.239 247.703 301.469C250.015 301.469 254.64 301.469 261.577 301.469C262.928 312.054 265.656 333.231 269.759 365C268.701 365 266.592 365 263.433 365C262.847 360.766 261.666 352.307 259.891 339.622ZM250.219 334.566C251.684 334.566 254.599 334.566 258.963 334.566C258.442 329.892 257.4 320.554 255.837 306.55C255.625 306.55 255.202 306.55 254.567 306.55C254.355 306.55 253.932 306.55 253.297 306.55C252.775 311.223 251.75 320.562 250.219 334.566ZM280.018 365C280.8 365 281.858 365 283.193 365C284.529 365 285.587 365 286.369 365C286.369 357.949 286.369 347.365 286.369 333.247C286.499 333.247 286.743 333.247 287.101 333.247C292.475 333.247 296.668 331.692 299.681 328.582C302.677 325.471 304.175 321.775 304.175 317.492C304.175 312.738 302.685 308.886 299.705 305.939C296.725 302.975 292.296 301.494 286.418 301.494C285.001 301.494 282.868 301.494 280.018 301.494C280.018 312.078 280.018 333.247 280.018 365ZM286.369 306.574C290.635 306.639 293.607 307.795 295.284 310.043C296.945 312.29 297.775 314.773 297.775 317.492C297.775 319.805 296.937 322.166 295.26 324.576C293.599 326.969 290.879 328.166 287.101 328.166C286.939 328.166 286.694 328.166 286.369 328.166C286.369 324.568 286.369 317.37 286.369 306.574Z" fill="#999999"/>
<path d="M711.088 0.908081V124.515" stroke="#999999" stroke-width="3"/>
<circle cx="711.57" cy="187.683" r="62.1772" stroke="#999999" stroke-width="3"/>
<path d="M749.902 138.891H673.135L663.16 148.151L657.85 156.597H764.214L768.334 164.632L770.503 173.039H651.45L650.365 177.643L649.932 182.414V189.165H772.238L771.804 196.943L770.069 204.025H652.317L655.353 212.774L660.672 221.416H761.612L757.492 227.086L752.504 231.85L669.882 231.64L676.388 237.495L685.279 242.917H738.272" stroke="#999999" stroke-width="3"/>
<path d="M692.871 128.635V138.827H701.111M730.603 138.827H724.315V126.9L710.436 125.382V138.827H701.111M730.603 138.827H737.109V131.237L748.819 138.827H743.181V156.609H730.603V138.827ZM716.941 138.827V156.609H709.026M701.111 138.827V156.609H709.026M678.124 138.827V156.609H666.631V173.09H678.233M709.026 156.609H689.835V173.09H678.233M709.026 156.609V173.09H718.622M755.867 173.09H747.518V156.609H728.218V173.09H718.622M755.867 173.09H764.216V156.609L768.119 163.765L770.505 172.006V173.09H755.867ZM755.867 173.09V189.137H746.488M718.622 173.09H737.109V189.137H746.488M718.622 173.09V189.137M698.726 173.09V189.137H688.533M678.233 173.09L678.124 189.137H688.533M658.174 173.09V189.137H666.631V204.1H681.594M688.533 189.137V204.1H681.594M709.135 189.137V204.1H722.146M746.488 189.137H729.302V204.1H722.146M746.488 189.137V204.1M763.132 189.137V204.1H754.457V221.449H748.385M722.146 204.1H737.76V221.449H748.385M722.146 204.1V221.449M700.244 204.1V221.449H688.533M681.594 204.1V221.449H688.533M662.945 204.1V221.449H672.92V231.858H686.799M688.533 221.449V231.858H686.799M716.725 221.449V231.858H724.748M748.385 221.449H731.471V231.858H724.748M748.385 221.449V231.858H740.145V241.183L735.808 242.917H724.748V231.858M708.918 231.858V242.917H687.232L686.799 231.858" stroke="#999999" stroke-width="3"/>
<path d="M678.559 139.912H700.678V155.742H678.559V139.912Z" fill="#9001B4"/>
<path d="M717.592 139.911H730.169V155.525H717.592V139.911Z" fill="#9001B4"/>
<path d="M718.893 174.174H736.675V188.27H718.893V174.174Z" fill="#9001B4"/>
<path d="M658.176 173.958H677.693V188.053H658.176V173.958Z" fill="#9001B4"/>
<path d="M688.969 190.222H708.486V203.017H688.969V190.222Z" fill="#9001B4"/>
<path d="M722.797 205.184H737.109V220.364H722.797V205.184Z" fill="#9001B4"/>
<path d="M688.969 222.533H716.292V230.773H688.969V222.533Z" fill="#9001B4"/>
<path d="M893.528 304.123L867.178 342.38L874.755 347.979L883.031 353.652L891.022 358.802L916.359 319.848L914.604 308.312L927.197 289.158L920.488 281.229L905.943 302.347L893.528 304.123Z" fill="#9001B4"/>
<path d="M833.35 310.83L866.474 358.83L874.967 353.448L883.762 347.345L891.899 341.285L857.695 294.029L844.615 290.083L827.84 266.7L817.095 269.959L835.38 296.456L833.35 310.83Z" fill="#9001B4"/>
<path d="M840.602 339.291L842.782 380.801L860.001 380.178L878.332 379.196L895.681 378.024L891.256 336.632L876.26 329.798L874.285 309.366L855.843 307.893L857.046 330.807L840.602 339.291Z" fill="#9001B4"/>
<path d="M875 386.904L878.075 371.915V366.534L891.142 360H899.214L901.904 369.993L909.975 374.989L907.285 386.904L899.214 388.057L888.068 396.128L882.303 388.057L875 386.904Z" fill="#C1C1C1"/>
<path d="M878.075 371.915L875 386.904L882.303 388.057L888.068 396.128L899.214 388.057M878.075 371.915V366.534L891.142 360M878.075 371.915H888.068L891.142 381.139M899.214 388.057L907.285 386.904L909.975 374.989L901.904 369.993M899.214 388.057L891.142 381.139M901.904 369.993L899.214 360H891.142M901.904 369.993L896.908 374.989M891.142 360L894.217 366.534L896.908 374.989M891.142 381.139L896.908 374.989" stroke="#4C4C4C" stroke-width="2.30606"/>
<path d="M858.197 392.382L846.556 383.477L841.917 381.231L841.736 367.238L845.104 360.279L854.842 362.129L862.518 357.255L871.668 364.546L869.295 371.986L871.603 384.964L862.238 386.567L858.197 392.382Z" fill="#C1C1C1"/>
<path d="M846.556 383.477L858.197 392.382L862.238 386.567L871.603 384.964L869.295 371.986M846.556 383.477L841.917 381.231L841.736 367.238M846.556 383.477L850.726 374.861L859.962 376.058M869.295 371.986L871.668 364.546L862.518 357.255L854.842 362.129M869.295 371.986L859.962 376.058M854.842 362.129L845.104 360.279L841.736 367.238M854.842 362.129L857.065 368.522M841.736 367.238L848.652 367.313L857.065 368.522M859.962 376.058L857.065 368.522" stroke="#4C4C4C" stroke-width="2.20892"/>
<path d="M854.272 374.545L869.395 360.459L873.636 354.55L892.846 357.466L901.529 363.699L896.547 376.75L901.292 388.47L889.006 399.477L879.414 394.51L861.06 394.767L861.219 381.451L854.272 374.545Z" fill="#C1C1C1"/>
<path d="M869.395 360.459L854.272 374.545L861.219 381.451L861.06 394.767L879.414 394.51M869.395 360.459L873.636 354.55L892.846 357.466M869.395 360.459L880.146 368.176L876.183 380.68M879.414 394.51L889.006 399.477L901.292 388.47L896.547 376.75M879.414 394.51L876.183 380.68M896.547 376.75L901.529 363.699L892.846 357.466M896.547 376.75L887.233 378.379M892.846 357.466L891.004 367.016L887.233 378.379M876.183 380.68L887.233 378.379" stroke="#4C4C4C" stroke-width="2.30606"/>
<path d="M839.537 309H828L832.603 336.367M839.537 309L851.074 396.735M839.537 309H851.074M851.074 396.735H842.757L840.094 380.905M851.074 396.735H859.928M851.074 309L859.928 396.735M851.074 309H865.026M859.928 396.735H868.514M865.026 309L868.514 396.735M865.026 309H876.295M868.514 396.735H876.295M876.295 309V396.735M876.295 309H891.32M876.295 396.735H884.88M891.32 309L884.88 396.735M891.32 309H903.393M884.88 396.735H891.32M903.393 309L891.32 396.735M903.393 309H913.857M891.32 396.735H899.369M913.857 309H921.37L917.018 336.367M913.857 309L899.369 396.735M899.369 396.735H907.418L909.935 380.905M840.094 380.905H909.935M840.094 380.905L836.258 358.1M909.935 380.905L913.562 358.1M913.562 358.1H836.258M913.562 358.1L917.018 336.367M836.258 358.1L832.603 336.367M832.603 336.367H917.018" stroke="#999999" stroke-width="3"/>
</svg>
