<svg width="1440" height="646" viewBox="0 0 1440 646" fill="none" xmlns="http://www.w3.org/2000/svg">
<line x1="-32" y1="643.5" x2="1440" y2="643.5" stroke="#353535" stroke-width="5"/>
<line x1="-32" y1="372.5" x2="1440" y2="372.5" stroke="#353535" stroke-width="5"/>
<line x1="-32" y1="2.50003" x2="1440" y2="2.50003" stroke="#353535" stroke-width="5"/>
<path d="M42 268V398.955H468.54V268H42Z" fill="black" stroke="#999999" stroke-width="3"/>
<path d="M206.351 367C206.888 367 207.971 367 209.599 367C217.595 367 223.074 365.51 226.038 362.53C228.985 359.567 230.467 355.699 230.483 350.928C230.483 346.401 229.001 342.656 226.038 339.692C223.074 336.729 218.873 335.247 213.434 335.247C213.271 335.247 213.019 335.247 212.677 335.247C212.677 322.448 212.677 315.706 212.677 315.022C212.693 314.355 212.701 312.205 212.701 308.574C215.518 308.574 219.752 308.566 225.403 308.55C225.403 307.703 225.403 306.018 225.403 303.494C222.227 303.494 215.877 303.494 206.351 303.494C206.351 314.078 206.351 335.247 206.351 367ZM212.677 340.352C212.791 340.335 213.043 340.327 213.434 340.327C217.179 340.327 219.899 341.386 221.592 343.503C223.286 345.62 224.132 348.095 224.132 350.928C224.116 354.022 223.082 356.627 221.03 358.744C218.979 360.861 216.202 361.92 212.701 361.92C212.701 357.132 212.693 349.943 212.677 340.352ZM259.891 341.622C259.012 341.622 257.253 341.622 254.615 341.622C253.736 341.622 251.978 341.622 249.34 341.622C248.737 345.856 247.524 354.315 245.7 367C244.642 367 242.533 367 239.374 367C240.758 356.416 243.534 335.239 247.703 303.469C250.015 303.469 254.64 303.469 261.577 303.469C262.928 314.054 265.656 335.231 269.759 367C268.701 367 266.592 367 263.433 367C262.847 362.766 261.666 354.307 259.891 341.622ZM250.219 336.566C251.684 336.566 254.599 336.566 258.963 336.566C258.442 331.892 257.4 322.554 255.837 308.55C255.625 308.55 255.202 308.55 254.567 308.55C254.355 308.55 253.932 308.55 253.297 308.55C252.775 313.223 251.75 322.562 250.219 336.566ZM280.018 367C280.8 367 281.858 367 283.193 367C284.529 367 285.587 367 286.369 367C286.369 359.949 286.369 349.365 286.369 335.247C286.499 335.247 286.743 335.247 287.101 335.247C292.475 335.247 296.668 333.692 299.681 330.582C302.677 327.471 304.175 323.775 304.175 319.492C304.175 314.738 302.685 310.886 299.705 307.939C296.725 304.975 292.296 303.494 286.418 303.494C285.001 303.494 282.868 303.494 280.018 303.494C280.018 314.078 280.018 335.247 280.018 367ZM286.369 308.574C290.635 308.639 293.607 309.795 295.284 312.043C296.945 314.29 297.775 316.773 297.775 319.492C297.775 321.805 296.937 324.166 295.26 326.576C293.599 328.969 290.879 330.166 287.101 330.166C286.939 330.166 286.694 330.166 286.369 330.166C286.369 326.568 286.369 319.37 286.369 308.574Z" fill="#999999"/>
</svg>
