<svg width="1010" height="724" viewBox="0 0 1010 724" fill="none" xmlns="http://www.w3.org/2000/svg">
<g opacity="0.2" filter="url(#filter0_f_229_29)">
<rect x="63" y="173" width="875" height="540" fill="black"/>
<rect x="63.5" y="173.5" width="874" height="539" stroke="black"/>
</g>
<path d="M174 243H231.5H240.899H264.95H289V311.5V380H231.5H174V311.5V243Z" stroke="black" stroke-width="3"/>
<path d="M354 243H411.5H420.899H444.95H469V311.5V380H411.5H354V311.5V243Z" stroke="black" stroke-width="3"/>
<path d="M533 243H590.5H599.899H623.95H648V311.5V380H590.5H533V311.5V243Z" stroke="black" stroke-width="3"/>
<path d="M220 468H288.5H299.697H328.349H357V554V640H288.5H220V554V468Z" stroke="black" stroke-width="3"/>
<path d="M428 468H496.5H507.697H536.349H565V554V640H496.5H428V554V468Z" stroke="black" stroke-width="3"/>
<path d="M636 468H704.5H715.697H744.349H773V554V640H704.5H636V554V468Z" stroke="black" stroke-width="3"/>
<path d="M712 243H769.5H778.899H802.95H827V311.5V380H769.5H712V311.5V243Z" stroke="black" stroke-width="3"/>
<g opacity="0.2" filter="url(#filter1_f_229_29)">
<path d="M505 9L942.343 163.5H67.6572L505 9Z" fill="black"/>
</g>
<g opacity="0.2" filter="url(#filter2_f_229_29)">
<rect x="63" y="173" width="875" height="540" fill="black"/>
<rect x="63.5" y="173.5" width="874" height="539" stroke="black"/>
</g>
<g opacity="0.2" filter="url(#filter3_f_229_29)">
<path d="M505 9L942.343 163.5H67.6572L505 9Z" fill="black"/>
</g>
<defs>
<filter id="filter0_f_229_29" x="52" y="162" width="897" height="562" filterUnits="userSpaceOnUse" color-interpolation-filters="sRGB">
<feFlood flood-opacity="0" result="BackgroundImageFix"/>
<feBlend mode="normal" in="SourceGraphic" in2="BackgroundImageFix" result="shape"/>
<feGaussianBlur stdDeviation="5.5" result="effect1_foregroundBlur_229_29"/>
</filter>
<filter id="filter1_f_229_29" x="58.6572" y="0" width="892.686" height="172.5" filterUnits="userSpaceOnUse" color-interpolation-filters="sRGB">
<feFlood flood-opacity="0" result="BackgroundImageFix"/>
<feBlend mode="normal" in="SourceGraphic" in2="BackgroundImageFix" result="shape"/>
<feGaussianBlur stdDeviation="4.5" result="effect1_foregroundBlur_229_29"/>
</filter>
<filter id="filter2_f_229_29" x="52" y="162" width="897" height="562" filterUnits="userSpaceOnUse" color-interpolation-filters="sRGB">
<feFlood flood-opacity="0" result="BackgroundImageFix"/>
<feBlend mode="normal" in="SourceGraphic" in2="BackgroundImageFix" result="shape"/>
<feGaussianBlur stdDeviation="5.5" result="effect1_foregroundBlur_229_29"/>
</filter>
<filter id="filter3_f_229_29" x="58.6572" y="0" width="892.686" height="172.5" filterUnits="userSpaceOnUse" color-interpolation-filters="sRGB">
<feFlood flood-opacity="0" result="BackgroundImageFix"/>
<feBlend mode="normal" in="SourceGraphic" in2="BackgroundImageFix" result="shape"/>
<feGaussianBlur stdDeviation="4.5" result="effect1_foregroundBlur_229_29"/>
</filter>
</defs>
</svg>
