<svg width="744" height="228" viewBox="0 0 744 228" fill="none" xmlns="http://www.w3.org/2000/svg">
<path d="M303.153 62.3892L303.144 61.8085L307.913 62.0553L303.153 62.3892ZM301.756 74.3257L303.895 78.6861L303.895 137.175L301.229 154.515L299.768 120.036L301.217 105.84L301.255 105.462L301.223 105.083L299.708 87.0824L301.756 74.3257ZM346.934 88.5009L350.111 97.798L345.016 128.439L344.939 128.903L344.97 129.374L346.557 153.479L344.532 167.701L342.547 140.469L346.19 115.081L346.231 114.795L346.231 114.504L346.231 92.6288L346.934 88.5009Z" stroke="white" stroke-width="8.07394"/>
<path d="M531.985 165.254L531.247 169.189L528.372 170.384L527.453 164.137L532.319 155.131L532.659 154.503L532.761 153.79L535.437 135.089L535.454 134.969L535.464 134.847L536.163 126.355L536.183 126.104L536.173 125.852L535.43 107.75L538.42 92.8552L538.463 92.6387L538.483 92.4183L539.836 77.3142L539.869 77.0974L541.541 114.25L531.985 165.254ZM599.983 132.91L599.865 134.421L599.756 133.757L599.983 132.91ZM565.357 134.046L565.454 133.903L564.528 135.645L564.438 135.815L564.365 135.992L559.506 147.742L556.823 149.663L565.357 134.046Z" stroke="white" stroke-width="8.07394"/>
<path d="M61.6414 97.8643L61.7433 97.7227L62.0924 98.3479L66.2613 105.815L63.0228 102.148L60.6751 99.4903L57.7591 101.432L55.9585 102.631L60.9119 98.6353L61.3285 98.2992L61.6414 97.8643ZM41.3508 115.055L43.1251 128.549L39.306 137.381L38.8556 138.423L39.0175 139.553L41.4534 156.561L41.4961 156.858L41.5821 157.147L45.6439 170.779L45.6374 178.916L38.3276 195.326L38.2951 195.143L42.3148 173.102L42.4453 172.386L42.3176 171.667L39.7779 157.364L38.3369 137.661L38.3361 137.65L37.1797 122.382L36.5214 108.496L36.8328 109.516L38.3488 114.479L41.0637 112.872L41.3508 115.055ZM106.838 161.151L103.545 151.652L105.344 155.33L105.387 155.419L105.435 155.506L110.042 163.876L106.838 161.151Z" stroke="white" stroke-width="8.07394"/>
<path d="M280.813 121.11L271.863 93.5664L257.535 85.3229L243.394 89.8475L225.979 105.421L211.594 128.906L216.299 142.954L233.559 156.975L255.768 160.108L274.707 152.363L282.868 146.154L280.813 121.11Z" stroke="white" stroke-width="8.07394"/>
<mask id="path-5-inside-1_444_446" fill="white">
<path d="M182.746 121.09L180.049 111.641L183.538 113.689L181.262 105.713L166.592 97.1244L137.277 88.5973L119.269 93.9971L114.223 102.004L106.124 137.654L119.679 164.487L142.072 183.683L158.384 179.676L177.48 160.962L187.003 142.955L182.746 121.09Z"/>
</mask>
<path d="M178.763 107.132L174.791 107.808L182.628 105.973L178.763 107.132ZM180.049 111.641L183.915 110.482L186.706 120.262L177.997 115.148L180.049 111.641ZM181.469 124.375L185.441 123.7L185.508 124.126L185.484 124.557L181.469 124.375ZM180.246 146.434L184.261 146.617L184.213 147.477L183.823 148.246L180.246 146.434ZM171.685 163.335L175.262 165.147L174.749 166.16L173.792 166.764L171.685 163.335ZM154.322 174.294L156.43 177.722L155.867 178.077L155.223 178.233L154.322 174.294ZM144.528 176.67L145.429 180.61L143.91 180.978L142.552 180.221L144.528 176.67ZM111.066 137.027L107.279 138.434L106.799 137.084L107.273 135.722L111.066 137.027ZM117.454 118.684L121.445 119.132L121.392 119.571L121.246 119.989L117.454 118.684ZM119.53 101.531L115.539 101.083L115.754 99.3059L117.2 98.254L119.53 101.531ZM132.978 91.7491L130.647 88.4717L132.227 87.3226L134.09 87.8427L132.978 91.7491ZM158.137 98.7734L159.249 94.8669L159.746 95.0054L160.189 95.2661L158.137 98.7734ZM120.397 163.212L118.421 166.763L117.115 166.035L116.61 164.618L120.397 163.212ZM182.628 105.973L183.915 110.482L176.184 112.8L174.897 108.291L182.628 105.973ZM182.734 106.457L183.383 110.591L175.439 111.941L174.791 107.808L182.734 106.457ZM183.383 110.591L185.441 123.7L177.497 125.05L175.439 111.941L183.383 110.591ZM185.484 124.557L184.261 146.617L176.231 146.252L177.454 124.192L185.484 124.557ZM183.823 148.246L175.262 165.147L168.108 161.523L176.669 144.623L183.823 148.246ZM173.792 166.764L156.43 177.722L152.214 170.865L169.577 159.907L173.792 166.764ZM155.223 178.233L145.429 180.61L143.626 172.731L153.421 170.354L155.223 178.233ZM107.273 135.722L113.661 117.378L121.246 119.989L114.858 138.333L107.273 135.722ZM113.462 118.236L115.539 101.083L123.522 101.98L121.445 119.132L113.462 118.236ZM117.2 98.254L130.647 88.4717L135.308 95.0265L121.86 104.809L117.2 98.254ZM134.09 87.8427L159.249 94.8669L157.025 102.68L131.865 95.6556L134.09 87.8427ZM160.189 95.2661L181.463 107.759L177.359 114.773L156.085 102.281L160.189 95.2661ZM181.463 107.759L182.101 108.133L177.997 115.148L177.359 114.773L181.463 107.759ZM142.552 180.221L118.421 166.763L122.372 159.661L146.503 173.119L142.552 180.221ZM116.61 164.618L107.279 138.434L114.852 135.621L124.183 161.806L116.61 164.618ZM180.049 111.641L172.319 113.959L166.736 94.3979L184.154 104.626L180.049 111.641ZM182.746 121.09L190.477 118.772L190.572 119.106L190.639 119.447L182.746 121.09ZM187.003 142.955L194.895 141.312L195.447 144.143L194.091 146.707L187.003 142.955ZM177.48 160.962L184.568 164.714L183.969 165.848L183.055 166.744L177.48 160.962ZM158.384 179.676L163.959 185.457L162.364 187.02L160.209 187.549L158.384 179.676ZM142.072 183.683L143.898 191.557L139.919 192.535L136.824 189.881L142.072 183.683ZM119.679 164.487L114.431 170.684L113.224 169.65L112.504 168.226L119.679 164.487ZM106.124 137.654L98.9489 141.393L97.6344 138.791L98.2853 135.926L106.124 137.654ZM114.223 102.004L106.384 100.276L106.696 98.9029L107.448 97.7109L114.223 102.004ZM119.269 93.9971L112.494 89.7041L114.131 87.1061L117.052 86.2302L119.269 93.9971ZM137.277 88.5973L135.06 80.8304L137.326 80.1511L139.584 80.8079L137.277 88.5973ZM166.592 97.1244L168.898 89.3349L169.841 89.609L170.687 90.1046L166.592 97.1244ZM181.262 105.713L185.357 98.6935L188.11 100.306L188.992 103.395L181.262 105.713ZM183.538 113.689L191.268 111.371L196.851 130.932L179.434 120.704L183.538 113.689ZM187.78 109.323L190.477 118.772L175.016 123.408L172.319 113.959L187.78 109.323ZM190.639 119.447L194.895 141.312L179.111 144.598L174.854 122.733L190.639 119.447ZM194.091 146.707L184.568 164.714L170.392 157.21L179.915 139.202L194.091 146.707ZM183.055 166.744L163.959 185.457L152.81 173.894L171.906 155.181L183.055 166.744ZM160.209 187.549L143.898 191.557L140.247 175.81L156.559 171.802L160.209 187.549ZM136.824 189.881L114.431 170.684L124.928 158.289L147.321 177.486L136.824 189.881ZM112.504 168.226L98.9489 141.393L113.298 133.914L126.854 160.747L112.504 168.226ZM98.2853 135.926L106.384 100.276L122.061 103.732L113.962 139.382L98.2853 135.926ZM107.448 97.7109L112.494 89.7041L126.044 98.2901L120.998 106.297L107.448 97.7109ZM117.052 86.2302L135.06 80.8304L139.494 96.3642L121.485 101.764L117.052 86.2302ZM139.584 80.8079L168.898 89.3349L164.285 104.914L134.971 96.3868L139.584 80.8079ZM170.687 90.1046L185.357 98.6935L177.166 112.733L162.496 104.144L170.687 90.1046ZM188.992 103.395L191.268 111.371L175.807 116.007L173.531 108.031L188.992 103.395ZM184.154 104.626L187.642 106.675L179.434 120.704L175.945 118.655L184.154 104.626Z" fill="white" mask="url(#path-5-inside-1_444_446)"/>
<path d="M224.539 46.4464L237.517 48.3076L226.403 51.3365L207.313 49.9848L224.539 46.4464ZM174.55 56.4279L181.459 54.8267L176.707 57.1175L154.31 61.4296L152.281 61.3491L159.146 59.5935L174.453 56.4492L174.502 56.4392L174.55 56.4279ZM195.086 70.7841L193.703 58.0655L200.793 70.984L200.793 85.9592L195.275 108.453L195.144 108.987L195.161 109.54L195.819 131.107L195.835 131.609L195.972 132.094L201.205 150.628L198.948 163.458L195.007 147.213L188.539 117.184L193.324 94.3057L193.377 94.0488L193.397 93.7867L195.098 71.5342L195.127 71.1591L195.086 70.7841ZM199.563 179.885L199.535 178.275L199.842 180.488L199.563 179.885Z" stroke="white" stroke-width="8.07394"/>
<path d="M373.894 88.0266L372.362 88.4561L370.772 83.185L370.749 73.7974L372.561 59.3988L377.027 48.9252L377.231 49.786L377.339 50.2424L377.549 50.662L383.878 63.314L383.955 63.4679L384.045 63.6148L391.092 75.1386L393.749 87.0266L384.216 87.0037L384.021 87.0033L383.826 87.0217L374.603 87.8947L374.242 87.9289L373.894 88.0266ZM401.682 110.386L401.682 110.308L401.757 110.515L401.682 110.386ZM409.882 137.747L409.882 132.827L409.9 132.877L414.039 145.47L409.882 137.747ZM358.119 134.157L358.479 132.427L358.839 136.614L358.119 134.157Z" stroke="white" stroke-width="8.07394"/>
<path d="M432.345 185.067L435.612 172.896L433.975 167.218L430.572 154.804L445.149 151.918L436.022 151.315L441.952 147.763L448.722 149.524L453.436 147.207L454.487 128.873L458.96 110.765L462.217 93.8915L465.1 83.5657L465.925 69.1606L470.864 62.9141L474.812 53.9732L476.703 40.953L478.07 37.0996L479.751 47.7267L485.997 58.655L490.876 73.4366L493.624 85.4485L496.596 93.5317L500.41 106.928L501.941 120.175L504.764 130.877L507.737 138.96L515.723 139.487L527.434 141.879L515.573 142.106L505.23 142.738L524.512 140.993L523.141 152.21L516.426 160.627L518.617 176.969L514.258 160.622L518.56 152.751L521.886 141.866L495.952 144.755L489.181 142.993L477.772 142.24L470.701 145.717L461.498 146.424L456.934 146.123L433.738 157.444L436.058 166.476L435.617 174.756L432.345 185.067Z" stroke="white" stroke-width="8.07394"/>
<path d="M613.063 116.706L614.735 108.708L619.858 106.334L626.838 103.1L627.098 102.979L627.339 102.823L637.259 96.4015L635.828 98.0361L624.202 111.313L617.313 114.548L615.136 115.57L614.981 117.959L613.981 133.354L613.965 133.615L613.982 133.875L615.104 151.118L615.124 151.428L615.192 151.731L616.18 156.157L612.837 150.692L612.986 131.764L612.986 131.753L613.063 116.706ZM642.051 98.1718L639.508 94.9458L640.097 94.5646L640.557 94.267L640.922 93.8589L641.317 93.417L641.825 94.4739L646.033 103.225L642.051 98.1718ZM683.233 160.859L679.869 148.508L682.594 155.098L682.632 155.19L682.675 155.28L687.017 164.455L683.233 160.859Z" stroke="white" stroke-width="8.07394"/>
</svg>
