<svg width="57" height="301" viewBox="0 0 57 301" fill="none" xmlns="http://www.w3.org/2000/svg">
<path d="M18.8414 236.532L18.827 237.844L22.0591 237.577L37.8968 238.054L39.9103 238.479L39.9603 233.939M18.8414 236.532L20.1653 235.437L19.5189 234.572M18.8414 236.532L39.9603 233.939M20.1975 232.511L18.8725 233.707L19.5189 234.572M20.1975 232.511L18.9069 230.579M20.1975 232.511L39.9947 230.811M18.9069 230.579L20.2342 229.181L19.5878 228.316M18.9069 230.579L40.0292 227.683M20.2675 226.154L18.9414 227.451L19.5878 228.316M20.2675 226.154L19.2785 224.327M20.2675 226.154L40.0636 224.555M19.2785 224.327L23.9587 220.846L29.0358 217.976L34.2548 220.556L40.0636 224.555M19.2785 224.327L40.0636 224.555M40.0636 224.555L38.7319 226.357M38.7319 226.357L40.0292 227.683M38.7319 226.357L19.5878 228.316M40.0292 227.683L38.6986 229.384L39.9947 230.811M39.9947 230.811L39.0828 232.113M39.9603 233.939L38.662 232.714L39.0828 232.113M19.5189 234.572L39.0828 232.113" stroke="#999999" stroke-width="3"/>
<path d="M7.56908 288.075L9.02037 293.742L10.0703 299.202L8.37833 297.065L5.39468 293.096L3.33134 288.028L2.27366 283.274L2.87144 274.804L4.23088 270.479L7.31781 265.064L12.7721 255.437L14.6482 250.008L14.9931 246.178L15.6474 241.745L16.7795 239.739L18.6145 238.044L40.0017 238.582L41.1016 239.502L42.6926 241.639L42.8811 242.852L43.136 247.194L43.7003 250.934L44.574 254.071L46.9422 258.941L50.9038 265.746L53.567 271.325L54.7355 275.173L55.18 280.627L49.7571 278.246L46.014 269.93L40.4501 271.181L38.5431 270.252M7.56908 288.075L14.3904 282.6L19.2433 290.928L26.8818 284.554L29.2924 276.406L38.013 272.567L38.5431 270.252M7.56908 288.075L8.76227 280.52L11.0907 279.839L14.9548 277.157L19.2648 270.645L28.2558 269.735L33.098 260.706L35.9886 263.967L36.6304 269.827L38.5431 270.252" stroke="#999999" stroke-width="3"/>
<path d="M29.2539 217.69L29.2539 0.53302" stroke="#999999" stroke-width="3"/>
<path d="M17.9113 281.204L20.0056 271.628L29.1072 270.773L31.7167 266.021L33.4584 262.665L35.7091 264.691L35.6693 268.314L35.9286 270.567L37.6301 270.867L40.4556 272.304L42.6903 275.788L43.4565 283.618L43.386 290.016L40.4707 296.739L33.6211 299.508L24.2616 297.983L18.6697 289.744L17.9113 281.204Z" fill="#999999"/>
</svg>
