<svg width="49" height="257" viewBox="0 0 49 257" fill="none" xmlns="http://www.w3.org/2000/svg">
<path d="M15.8967 202.206L15.8844 203.327L18.6459 203.098L32.1779 203.506L33.8983 203.87L33.941 199.99M15.8967 202.206L17.0279 201.27L16.4756 200.531M15.8967 202.206L33.941 199.99M17.0554 198.77L15.9233 199.792L16.4756 200.531M17.0554 198.77L15.9527 197.12M17.0554 198.77L33.9704 197.318M15.9527 197.12L17.0867 195.925L16.5344 195.186M15.9527 197.12L33.9998 194.645M17.1152 193.339L15.9821 194.447L16.5344 195.186M17.1152 193.339L16.2702 191.777M17.1152 193.339L34.0293 191.973M16.2702 191.777L20.269 188.804L24.607 186.351L29.0661 188.556L34.0293 191.973M16.2702 191.777L34.0293 191.973M34.0293 191.973L32.8915 193.512M32.8915 193.512L33.9998 194.645M32.8915 193.512L16.5344 195.186M33.9998 194.645L32.863 196.099L33.9704 197.318M33.9704 197.318L33.1913 198.43M33.941 199.99L32.8317 198.944L33.1913 198.43M16.4756 200.531L33.1913 198.43" stroke="#999999" stroke-width="3"/>
<path d="M6.26739 246.243L7.50739 251.085L8.40445 255.75L6.95882 253.924L4.40955 250.533L2.64661 246.203L1.7429 242.141L2.25366 234.904L3.41518 231.209L6.0527 226.582L10.7129 218.357L12.3159 213.718L12.6106 210.445L13.1696 206.658L14.1369 204.944L15.7048 203.495L33.9783 203.955L34.918 204.742L36.2775 206.567L36.4385 207.604L36.6563 211.313L37.1385 214.509L37.8849 217.19L39.9084 221.351L43.2932 227.165L45.5687 231.932L46.5671 235.219L46.9469 239.879L42.3134 237.845L39.1153 230.74L34.3615 231.808L32.732 231.015M6.26739 246.243L12.0956 241.565L16.242 248.68L22.7685 243.234L24.8281 236.273L32.2791 232.993L32.732 231.015M6.26739 246.243L7.28686 239.787L9.27632 239.206L12.5779 236.914L16.2604 231.351L23.9425 230.573L28.0797 222.859L30.5494 225.645L31.0978 230.652L32.732 231.015" stroke="#999999" stroke-width="3"/>
<path d="M24.7969 186.108L24.7969 0.566223" stroke="#999999" stroke-width="3"/>
<path d="M15.1034 240.373L16.8928 232.192L24.6693 231.461L26.8989 227.401L28.3871 224.534L30.3101 226.264L30.276 229.36L30.4976 231.285L31.9514 231.541L34.3655 232.769L36.2749 235.746L36.9296 242.436L36.8694 247.903L34.3785 253.647L28.5261 256.013L20.5292 254.71L15.7513 247.671L15.1034 240.373Z" fill="#999999"/>
</svg>
