<svg width="132" height="67" viewBox="0 0 132 67" fill="none" xmlns="http://www.w3.org/2000/svg">
<path d="M128.103 35.0293L128.216 35.3254C129.356 38.3118 129.228 41.6338 127.862 44.5238L126.109 48.2336C125.445 49.6406 125.563 51.2927 126.421 52.5906C128.146 55.1968 126.717 58.7218 123.665 59.3928L104.605 63.5838C103.346 63.8604 102.062 64 100.773 64H69.9654L12.6417 56.6057C9.72973 56.2301 7.23001 54.3504 6.06078 51.6572L4.34068 47.695C2.76287 44.0606 5.4268 40 9.38889 40C12.4283 40 14.8923 37.536 14.8923 34.4966V28.264C14.8923 25.3568 12.5356 23 9.62835 23C5.6886 23 3.14513 18.8309 4.94765 15.3277L6.254 12.7887C7.31286 10.7308 9.31971 9.32862 11.6162 9.04209L48.0915 4.49109C56.0101 3.50309 64.0345 3.75797 71.8744 5.24652L93.4914 9.35086C94.0141 9.4501 94.5272 9.59457 95.0248 9.78263L108.191 14.7584C110.492 15.6278 110.687 18.8065 108.51 19.951C106.305 21.1108 106.543 24.3429 108.894 25.1672L113.336 26.7241C113.857 26.9067 114.405 27 114.957 27H116.444C121.619 27 126.258 30.1943 128.103 35.0293Z" fill="#999999" stroke="#999999" stroke-width="5.84387"/>
<path d="M102.998 18.9984V18.9984C99.3757 15.7063 94.7258 13.7692 89.8376 13.5157L87.135 13.3755" stroke="black" stroke-width="1.25716"/>
<path d="M99.627 20.6373V20.6373C96.4888 18.1167 92.5899 16.7182 88.565 16.6738V16.6738" stroke="black" stroke-width="1.25716"/>
<path d="M106.998 17.1564V17.1564C101.913 12.641 95.3682 10.1134 88.568 10.0385L85.0752 10" stroke="black" stroke-width="1.67622"/>
<path d="M8.41211 43.05V43.05C9.40715 47.7185 12.6199 51.6065 17.017 53.4638L20.3793 54.8839" stroke="black" stroke-width="1.25716"/>
<path d="M12.1602 43V43C13.9289 46.6157 16.8632 49.5392 20.4873 51.2906V51.2906" stroke="black" stroke-width="1.25716"/>
<path d="M4.00781 43.0166V43.0166C4.61 49.3919 8.90936 54.815 14.9792 56.8555L20.8077 58.815" stroke="black" stroke-width="1.67622"/>
</svg>
