<svg width="211" height="100" viewBox="0 0 211 100" fill="none" xmlns="http://www.w3.org/2000/svg">
<path d="M5.04377 50.6154L4.84538 51.1312C3.02875 55.8544 3.23209 61.1166 5.40779 65.6855L8.19797 71.5449C9.25938 73.7739 9.07075 76.3967 7.70133 78.4508C4.9611 82.5612 7.2155 88.1408 12.042 89.1938L42.5201 95.8436C44.5019 96.276 46.5244 96.494 48.5529 96.494H97.7031L187.854 84.9548C193.261 84.2627 197.907 80.7825 200.092 75.7885L200.365 75.1638C204.136 66.5453 199.102 56.6281 189.92 54.5841L188.976 54.3739C186.708 53.869 184.64 52.7032 183.034 51.0237C178.957 46.7604 178.671 40.1361 182.365 35.5371L183.916 33.606C184.961 32.3043 186.234 31.2025 187.671 30.3537L198.378 24.0326C203.641 20.9254 203.168 13.1625 197.567 10.7173C196.906 10.4287 196.206 10.2371 195.491 10.1485L156.527 5.32442C128.029 1.79613 99.1566 2.7065 70.9377 8.02309L58.9473 10.2822L40.317 12.9959C34.8271 13.7956 32.8183 20.6773 37.016 24.3047C40.7877 27.564 39.6173 33.684 34.9091 35.3217L28.927 37.4024C27.8565 37.7747 26.7312 37.9649 25.5978 37.9649H23.4633C15.2975 37.9649 7.97511 42.9939 5.04377 50.6154Z" fill="#999999" stroke="#999999" stroke-width="6.32748"/>
<path d="M20.123 75.9648V75.9648C26.8559 81.9496 35.4522 85.4202 44.4529 85.7876L49.4293 85.9907" stroke="black" stroke-width="2.31365"/>
<path d="M26.293 72.88V72.88C32.1192 77.4549 39.3225 79.9495 46.7302 79.9495V79.9495" stroke="black" stroke-width="2.31365"/>
<path d="M191.336 27.1043V27.1043C197.496 22.6351 195.868 13.0444 188.579 10.8575L187.092 10.4114" stroke="black" stroke-width="2.31365"/>
<path d="M184.968 26.2627V26.2627C189.481 22.9885 188.288 15.962 182.948 14.3598L181.858 14.033" stroke="black" stroke-width="2.31365"/>
<path d="M178.072 27.194V27.194C181.637 24.6075 180.695 19.0571 176.477 17.7915L175.616 17.5333" stroke="black" stroke-width="1.54244"/>
<path d="M12.7969 79.4353V79.4353C22.2467 87.6417 34.3416 92.1604 46.8573 92.1604H53.2858" stroke="black" stroke-width="3.08487"/>
</svg>
