<svg width="373" height="194" viewBox="0 0 373 194" fill="none" xmlns="http://www.w3.org/2000/svg">
<path d="M2 192V103.778C2 97.7027 6.92487 92.7778 13 92.7778H18.1276V17C18.1276 8.71572 24.8434 2 33.1276 2H343.098C351.382 2 358.098 8.71573 358.098 17V92.7778H366C368.761 92.7778 371 95.0164 371 97.7778V192H179.12H2Z" fill="black"/>
<path d="M18.1276 92.7778H13C6.92487 92.7778 2 97.7027 2 103.778V192H179.12H371V97.7778C371 95.0164 368.761 92.7778 366 92.7778H358.098M18.1276 92.7778H23.2552C29.3304 92.7778 34.2552 97.7026 34.2552 103.778V118.639M18.1276 92.7778V17C18.1276 8.71572 24.8434 2 33.1276 2H343.098C351.382 2 358.098 8.71573 358.098 17V92.7778M358.098 92.7778H349.325C344.907 92.7778 341.325 96.3595 341.325 100.778V118.639M341.325 118.639V144.5H187.79M341.325 118.639H187.79M34.2552 118.639V144.5H187.79M34.2552 118.639H187.79M187.79 118.639V144.5" stroke="#999999" stroke-width="3.20417"/>
</svg>
