<svg width="57" height="305" viewBox="0 0 57 305" fill="none" xmlns="http://www.w3.org/2000/svg">
<path d="M18.8414 236.532L18.827 237.844L22.0591 237.577L37.8968 238.054L39.9103 238.479L39.9603 233.939M18.8414 236.532L20.1653 235.437L19.5189 234.572M18.8414 236.532L39.9603 233.939M20.1975 232.511L18.8725 233.707L19.5189 234.572M20.1975 232.511L18.9069 230.579M20.1975 232.511L39.9947 230.811M18.9069 230.579L20.2342 229.181L19.5878 228.316M18.9069 230.579L40.0292 227.683M20.2675 226.154L18.9414 227.451L19.5878 228.316M20.2675 226.154L19.2785 224.327M20.2675 226.154L40.0636 224.555M19.2785 224.327L23.9587 220.846L29.0358 217.976L34.2548 220.556L40.0636 224.555M19.2785 224.327L40.0636 224.555M40.0636 224.555L38.7319 226.357M38.7319 226.357L40.0292 227.683M38.7319 226.357L19.5878 228.316M40.0292 227.683L38.6986 229.384L39.9947 230.811M39.9947 230.811L39.0828 232.113M39.9603 233.939L38.662 232.714L39.0828 232.113M19.5189 234.572L39.0828 232.113" stroke="#999999" stroke-width="3"/>
<path d="M16.7795 239.739L18.6145 238.044L40.0017 238.582L41.1016 239.502L42.6926 241.639L42.8811 242.852L43.136 247.194L43.7003 250.934L44.574 254.071L46.9422 258.941L50.9038 265.746L53.567 271.325L54.7355 275.173L55.1801 280.627L52.5 292L43.7003 301.5L34 303L19.5 303L14.9931 301.5L10.0703 299.202L8.37833 297.065L5.39468 293.096L3.33134 288.028L2.27366 283.274L2.87144 274.804L4.23088 270.479L7.31781 265.064L12.7721 255.437L14.6482 250.008L14.9931 246.178L15.6474 241.745L16.7795 239.739Z" stroke="#999999" stroke-width="3"/>
<path d="M29.2539 217.69L29.2539 0.53302" stroke="#999999" stroke-width="3"/>
<path d="M13.4703 266.961L15.9236 258.538L22.0712 250.666L25.0123 243.923L26.1771 238.204L34.4361 238.227L35.6937 243.953L36.8105 250.708L40.1869 256.731L41.0935 259.375L42.8603 262.278L43.7961 269.173L43.7341 274.806L40.2968 280.714L32.1769 283.129L21.0636 281.754L14.3992 274.483L13.4703 266.961Z" fill="#999999"/>
</svg>
