<svg width="390" height="292" viewBox="0 0 390 292" fill="none" xmlns="http://www.w3.org/2000/svg">
<path d="M13.6653 124.982L4 114.157H26.9153V47.1561C30.824 26.936 55.7304 19.2553 70.4579 33.6509L75.6415 51.3116L64.2375 54.4282L58.0171 43.0007L46.6131 45.0784L40.3928 54.4282V114.157H212.696H275.332H385C360.071 137.888 340.448 166.626 327.419 198.483L323.548 207.946L323.18 208.906C316.488 226.341 302.283 239.464 284.973 245V269.165L297.898 285.495L284.973 290L270.925 275.362V247.721L188.881 250.583L101.377 248.158V275.208L89.0868 289.419L74.2434 283.243L87.7301 270.291L88.6141 246.525L88.2857 246.296C78.9866 239.812 70.8092 231.853 64.0764 222.732C56.8555 212.95 51.4042 201.979 47.9696 190.315L45.6777 182.532C39.4003 161.215 28.4661 141.558 13.6653 124.982Z" fill="black"/>
<path d="M188.881 250.583L101.377 248.158M188.881 250.583L270.925 247.721M188.881 250.583L284.973 244.893V269.165L297.898 285.495L284.973 290L270.925 275.362V247.721M101.377 248.158V275.208L89.0868 289.419L74.2434 283.243L87.7301 270.291L88.6141 246.525M101.377 248.158L88.6141 246.525M270.925 247.721V247.721C294.39 245.995 314.748 230.873 323.18 208.906L323.548 207.946L327.419 198.483C340.448 166.626 360.071 137.888 385 114.157V114.157H275.333H212.696H40.3928M26.9153 114.157H4L13.6653 124.982C28.4661 141.558 39.4003 161.215 45.6777 182.532L47.9696 190.315C51.4042 201.979 56.8555 212.95 64.0764 222.732V222.732C70.8092 231.853 78.9866 239.812 88.2857 246.296L88.6141 246.525M26.9153 114.157V47.1561V47.1561C30.824 26.936 55.7304 19.2553 70.4579 33.6509V33.6509L75.6415 51.3116L64.2375 54.4282L58.0171 43.0007L46.6131 45.0784L40.3928 54.4282V114.157M26.9153 114.157H40.3928" stroke="#999999" stroke-width="3.2"/>
</svg>
