<svg width="49" height="262" viewBox="0 0 49 262" fill="none" xmlns="http://www.w3.org/2000/svg">
<path d="M15.8987 202.206L15.8863 203.327L18.6479 203.098L32.1799 203.506L33.9003 203.87L33.943 199.99M15.8987 202.206L17.0298 201.27L16.4775 200.531M15.8987 202.206L33.943 199.99M17.0573 198.77L15.9252 199.792L16.4775 200.531M17.0573 198.77L15.9547 197.12M17.0573 198.77L33.9724 197.318M15.9547 197.12L17.0887 195.925L16.5364 195.186M15.9547 197.12L34.0018 194.645M17.1171 193.339L15.9841 194.447L16.5364 195.186M17.1171 193.339L16.2721 191.777M17.1171 193.339L34.0312 191.973M16.2721 191.777L20.271 188.804L24.6089 186.351L29.0681 188.556L34.0312 191.973M16.2721 191.777L34.0312 191.973M34.0312 191.973L32.8934 193.512M32.8934 193.512L34.0018 194.645M32.8934 193.512L16.5364 195.186M34.0018 194.645L32.8649 196.099L33.9724 197.318M33.9724 197.318L33.1932 198.43M33.943 199.99L32.8336 198.944L33.1932 198.43M16.4775 200.531L33.1932 198.43" stroke="#999999" stroke-width="3"/>
<path d="M14.1388 204.944L15.7067 203.495L33.9802 203.955L34.92 204.742L36.2794 206.567L36.4404 207.604L36.6583 211.313L37.1404 214.509L37.8869 217.19L39.9104 221.351L43.2951 227.165L45.5706 231.932L46.5691 235.219L46.9489 239.879L45.002 250L38.502 257L31 260L22.002 260L15.7048 260L10.7148 258L8.4064 255.75L6.96078 253.924L4.41151 250.533L2.64856 246.203L1.74486 242.141L2.25561 234.904L3.41714 231.209L6.05466 226.582L10.7148 218.357L12.3179 213.718L12.6125 210.445L13.1715 206.658L14.1388 204.944Z" stroke="#999999" stroke-width="3"/>
<path d="M24.7969 186.108L24.7969 0.566223" stroke="#999999" stroke-width="3"/>
<path d="M14.1689 231.984L21.4985 203L23.4988 203L25.4013 200.116L26.8894 197.249L28.8125 198.979L28.7784 202.075L29 204L30.4538 204.256L33.4311 224.38L35 229.5L35.9951 234.047L35.9349 239.513L33.444 245.257L27.5916 247.623L19.5947 246.32L14.8169 239.281L14.1689 231.984Z" fill="#999999"/>
</svg>
