<svg width="53" height="50" viewBox="0 0 53 50" fill="none" xmlns="http://www.w3.org/2000/svg">
<path d="M3.27152 22.5454L18.3949 8.45885L22.6363 2.54976L41.8458 5.46582L50.5294 11.6987L45.5471 24.7504L50.2923 36.4703L38.0061 47.4771L28.4136 42.5104L10.0598 42.7667L10.2193 29.451L3.27152 22.5454Z" fill="#C1C1C1"/>
<path d="M18.3949 8.45885L3.27152 22.5454L10.2193 29.451L10.0598 42.7667L28.4136 42.5104M18.3949 8.45885L22.6363 2.54976L41.8458 5.46582M18.3949 8.45885L29.1461 16.1758L25.1832 28.6801M28.4136 42.5104L38.0061 47.4771L50.2923 36.4703L45.5471 24.7504M28.4136 42.5104L25.1832 28.6801M45.5471 24.7504L50.5294 11.6987L41.8458 5.46582M45.5471 24.7504L36.2331 26.3789M41.8458 5.46582L40.0036 15.0156L36.2331 26.3789M25.1832 28.6801L36.2331 26.3789" stroke="#4C4C4C" stroke-width="4"/>
</svg>
