<svg width="53" height="55" viewBox="0 0 53 55" fill="none" xmlns="http://www.w3.org/2000/svg">
<path d="M2 39.7656L6.31607 18.7248V11.1717L24.6594 2H35.9891L39.7656 16.0272L51.0953 23.0409L47.3188 39.7656L35.9891 41.3842L20.3433 52.7139L12.2507 41.3842L2 39.7656Z" fill="#C1C1C1"/>
<path d="M6.31607 18.7248L2 39.7656L12.2507 41.3842L20.3433 52.7139L35.9891 41.3842M6.31607 18.7248V11.1717L24.6594 2M6.31607 18.7248H20.3433L24.6594 31.673M35.9891 41.3842L47.3188 39.7656L51.0953 23.0409L39.7656 16.0272M35.9891 41.3842L24.6594 31.673M39.7656 16.0272L35.9891 2H24.6594M39.7656 16.0272L32.752 23.0409M24.6594 2L28.9755 11.1717L32.752 23.0409M24.6594 31.673L32.752 23.0409" stroke="#4C4C4C" stroke-width="3.23705"/>
</svg>
