<svg width="34" height="40" viewBox="0 0 34 40" fill="none" xmlns="http://www.w3.org/2000/svg">
<path d="M18.197 37.3824L6.55595 28.4767L1.91655 26.2314L1.73574 12.2379L5.10361 5.27884L14.8423 7.12889L22.5181 2.25466L31.6685 9.54598L29.2948 16.9862L31.603 29.9643L22.2383 31.5672L18.197 37.3824Z" fill="#C1C1C1"/>
<path d="M6.55595 28.4767L18.197 37.3824L22.2383 31.5672L31.603 29.9643L29.2948 16.9862M6.55595 28.4767L1.91655 26.2314L1.73574 12.2379M6.55595 28.4767L10.7257 19.8606L19.9619 21.0586M29.2948 16.9862L31.6685 9.54598L22.5181 2.25466L14.8423 7.12889M29.2948 16.9862L19.9619 21.0586M14.8423 7.12889L5.10361 5.27884L1.73574 12.2379M14.8423 7.12889L17.0654 13.5218M1.73574 12.2379L8.65229 12.3132L17.0654 13.5218M19.9619 21.0586L17.0654 13.5218" stroke="#4C4C4C" stroke-width="3"/>
</svg>
