<svg width="41" height="41" viewBox="0 0 41 41" fill="none" xmlns="http://www.w3.org/2000/svg">
<path d="M3 28.904L6.07475 13.9146V8.53384L19.1424 2H27.2136L29.904 11.9929L37.9752 16.9894L35.2848 28.904L27.2136 30.0571L16.0677 38.1283L10.3025 30.0571L3 28.904Z" fill="#C1C1C1"/>
<path d="M6.07475 13.9146L3 28.904L10.3025 30.0571L16.0677 38.1283L27.2136 30.0571M6.07475 13.9146V8.53384L19.1424 2M6.07475 13.9146H16.0677L19.1424 23.1389M27.2136 30.0571L35.2848 28.904L37.9752 16.9894L29.904 11.9929M27.2136 30.0571L19.1424 23.1389M29.904 11.9929L27.2136 2H19.1424M29.904 11.9929L24.9076 16.9894M19.1424 2L22.2172 8.53384L24.9076 16.9894M19.1424 23.1389L24.9076 16.9894" stroke="#4C4C4C" stroke-width="4"/>
</svg>
