<svg width="45" height="53" viewBox="0 0 45 53" fill="none" xmlns="http://www.w3.org/2000/svg">
<path d="M24.3945 49.8033L8.76316 37.845L2.53348 34.8301L2.29069 16.04L6.81299 6.69547L19.8898 9.17966L30.1968 2.63467L42.4837 12.4253L39.2963 22.4158L42.3957 39.8425L29.821 41.9948L24.3945 49.8033Z" fill="#C1C1C1"/>
<path d="M8.76316 37.845L24.3945 49.8033L29.821 41.9948L42.3957 39.8425L39.2963 22.4158M8.76316 37.845L2.53348 34.8301L2.29069 16.04M8.76316 37.845L14.3622 26.2756L26.7644 27.8841M39.2963 22.4158L42.4837 12.4253L30.1968 2.63467L19.8898 9.17967M39.2963 22.4158L26.7644 27.8841M19.8898 9.17967L6.81299 6.69547L2.29069 16.04M19.8898 9.17967L22.875 17.7639M2.29069 16.04L11.5781 16.1411L22.875 17.7639M26.7644 27.8841L22.875 17.7639" stroke="#4C4C4C" stroke-width="4"/>
</svg>
