<svg width="139" height="134" viewBox="0 0 139 134" fill="none" xmlns="http://www.w3.org/2000/svg">
<path d="M98.6535 2H65.8107H40.1774L61.8055 19.727L56.1982 39.3005L82.6326 50.8636L84.2347 85.7584L119.481 72.4917L137.104 97.3241V67.6855V43.6542V2H98.6535Z" fill="#D9D9D9" fill-opacity="0.2"/>
<path d="M137.104 67.6855V43.6542L131.496 25.2302L114.856 37.2459L117.077 19.727H98.6535V2M137.104 67.6855V97.3241L119.481 72.4917L84.2347 85.7584L82.6326 50.8636L56.1982 39.3005L61.8055 19.727L40.1774 2H98.6535M137.104 67.6855L124.287 50.8636L99.6874 61.2771V34.8427L79.4285 28.5904L84.2347 11.6125L65.8107 2H98.6535M137.104 2H0.926281M137.104 2L13.743 58.874M137.104 2L65.8107 114.947M137.104 2V133.371" stroke="black" stroke-width="3.20417"/>
</svg>
