<svg width="168" height="164" viewBox="0 0 168 164" fill="none" xmlns="http://www.w3.org/2000/svg">
<path d="M48.1529 1.99997H88.4294H119.865L93.3412 23.7393L100.218 47.7432L67.8 61.9235L65.8353 104.717L22.6118 88.447L1 118.9V82.5529V53.0823V1.99997H48.1529Z" fill="#D9D9D9" fill-opacity="0.2"/>
<path d="M1 82.5529V53.0823L7.87647 30.4882L28.2829 45.2235L25.5588 23.7393H48.1529V1.99997M1 82.5529V118.9L22.6118 88.447L65.8353 104.717L67.8 61.9235L100.218 47.7432L93.3412 23.7393L119.865 1.99997H48.1529M1 82.5529L16.7176 61.9235L46.8849 74.6941V42.2764L71.7294 34.609L65.8353 13.7882L88.4294 1.99997H48.1529M1 1.99997H168M1 1.99997L152.282 71.747M1 1.99997L88.4294 140.512M1 1.99997V163.106" stroke="black" stroke-width="3"/>
</svg>
