<svg width="83" height="253" viewBox="0 0 83 253" fill="none" xmlns="http://www.w3.org/2000/svg">
<path d="M2 107.028V251H81V107.028L48.2296 74.5758V47.4337H52.6185V21.4716H48.2296V2H33.0148V21.4716H28.3333V47.4337H33.0148V74.5758L2 107.028Z" fill="#999999" stroke="black" stroke-width="3"/>
<path d="M17.2538 186C17.5312 186 17.9068 186 18.3807 186C18.8545 186 19.2302 186 19.5076 186C19.5076 183.498 19.5076 179.741 19.5076 174.731C19.5538 174.731 19.6405 174.731 19.7676 174.731C21.6747 174.731 23.1627 174.179 24.2318 173.075C25.2952 171.972 25.8268 170.66 25.8268 169.14C25.8268 167.453 25.298 166.086 24.2405 165.04C23.183 163.988 21.6111 163.462 19.5249 163.462C19.0221 163.462 18.2651 163.462 17.2538 163.462C17.2538 167.218 17.2538 174.731 17.2538 186ZM19.5162 165.265C21.0361 165.288 22.0907 165.699 22.6802 166.496C23.2696 167.294 23.5644 168.175 23.5644 169.14C23.5644 169.961 23.2696 170.799 22.6802 171.654C22.0907 172.503 21.1257 172.928 19.7849 172.928C19.7272 172.928 19.6376 172.928 19.5162 172.928C19.5162 171.651 19.5162 169.097 19.5162 165.265ZM40.1557 184.518C42.7908 184.518 45.0273 183.561 46.865 181.648C48.7027 179.741 49.6215 177.436 49.6215 174.731C49.6215 172.027 48.7114 169.727 46.891 167.831C45.0706 165.93 42.8255 164.979 40.1557 164.979C37.4916 164.979 35.2494 165.93 33.429 167.831C31.6086 169.727 30.6984 172.027 30.6984 174.731C30.6984 177.436 31.6144 179.741 33.4463 181.648C35.284 183.561 37.5205 184.518 40.1557 184.518ZM28.4447 174.731C28.4447 171.426 29.5716 168.675 31.8253 166.479C34.0733 164.283 36.8501 163.185 40.1557 163.185C43.4612 163.185 46.2409 164.283 48.4946 166.479C50.7426 168.675 51.8666 171.426 51.8666 174.731C51.8666 178.037 50.734 180.793 48.4686 183.001C46.2033 185.214 43.4323 186.321 40.1557 186.321C36.8848 186.321 34.1138 185.214 31.8427 183.001C29.5773 180.793 28.4447 178.037 28.4447 174.731ZM54.2158 186C54.5914 182.244 55.3427 174.731 56.4696 163.462C57.1457 163.462 58.498 163.462 60.5264 163.462C60.7517 165.641 61.2025 169.998 61.8786 176.534C61.9538 176.534 62.104 176.534 62.3294 176.534C62.5548 174.355 63.0055 169.998 63.6817 163.462C64.3578 163.462 65.7101 163.462 67.7385 163.462C68.1199 167.218 68.8769 174.731 70.0096 186C69.634 186 68.8769 186 67.7385 186C67.4091 182.544 66.7532 175.633 65.7707 165.265C65.7245 165.265 65.6292 165.265 65.4847 165.265C65.3113 167.444 64.9646 171.801 64.4445 178.337C63.7337 178.337 63.3349 178.337 63.2482 178.337C63.1558 178.337 62.8495 178.337 62.3294 178.337C62.0982 178.337 61.7342 178.337 61.2372 178.337C60.746 178.337 60.2605 178.337 59.7809 178.337C59.544 175.43 59.1914 171.073 58.7233 165.265C58.6771 165.265 58.5818 165.265 58.4373 165.265C58.1137 168.721 57.4635 175.633 56.4869 186C56.1113 186 55.3542 186 54.2158 186Z" fill="black"/>
</svg>
