<svg width="395" height="199" viewBox="0 0 395 199" fill="none" xmlns="http://www.w3.org/2000/svg">
<path d="M2 196.5L12.8736 102.514C13.5156 96.9646 18.2147 92.7778 23.8007 92.7778H30.1276V17C30.1276 8.71572 36.8434 2 45.1276 2H355.098C363.382 2 370.098 8.71573 370.098 17V92.7778H378.456C381.033 92.7778 383.188 94.7361 383.433 97.3012L392.5 192H191.12L2 196.5Z" fill="black"/>
<path d="M30.1276 92.7778H23.8007C18.2147 92.7778 13.5156 96.9646 12.8736 102.514L2 196.5L191.12 192H392.5L383.433 97.3012C383.188 94.7361 381.033 92.7778 378.456 92.7778H370.098M30.1276 92.7778H35.2552C41.3304 92.7778 46.2552 97.7026 46.2552 103.778V118.639M30.1276 92.7778V17C30.1276 8.71572 36.8434 2 45.1276 2H355.098C363.382 2 370.098 8.71573 370.098 17V92.7778M370.098 92.7778H361.325C356.907 92.7778 353.325 96.3595 353.325 100.778V118.639M353.325 118.639V144.5H199.79M353.325 118.639H199.79M46.2552 118.639V144.5H199.79M46.2552 118.639H199.79M199.79 118.639V144.5" stroke="#999999" stroke-width="3.20417"/>
<path d="M262.48 41.0918L277.815 52.628L296.831 83.1999L282.665 48.6383L261 40.6075" stroke="#999999" stroke-width="3"/>
<path d="M288.131 21.9319L305.043 33.3618L322.482 64.04L308.315 29.4785L286.65 21.4477" stroke="#999999" stroke-width="3"/>
<path d="M270.615 28.3802L289.374 44.4674L315.595 84.1544L294 40.5L268.689 27.7287" stroke="#999999" stroke-width="3"/>
<path d="M102.739 46.4897L91.5131 62.0535L61.3293 81.6797L95.5993 66.8215L103.193 45" stroke="#999999" stroke-width="3"/>
<path d="M122.409 71.7501L111.321 88.889L80.9992 106.94L115.269 92.0819L122.863 70.2604" stroke="#999999" stroke-width="3"/>
<path d="M115.61 54.3678L99.9027 73.4461L60.7504 100.459L103 78.5L116.223 52.4292" stroke="#999999" stroke-width="3"/>
</svg>
