<svg width="180" height="185" viewBox="0 0 180 185" fill="none" xmlns="http://www.w3.org/2000/svg">
<path d="M89.986 13.3495H14.0156V92.2418M89.986 13.3495V171.134M89.986 13.3495H102.404H134.18H165.956V92.2418M89.986 171.134H14.0156V92.2418M89.986 171.134H165.956V92.2418M14.0156 92.2418H165.956M119.753 61.412L121.355 53.4016L116.549 49.3964L111.743 46.1922M119.753 61.412L110.141 74.3889M119.753 61.412L126.967 57.4068M134.18 53.4016L142.983 59.0089M134.18 53.4016L126.967 57.4068M134.18 53.4016L158.203 68.6214L142.983 59.0089M134.18 53.4016L135.917 61.8125M142.983 59.0089L137.655 70.2235M142.983 59.0089L139.779 51.399M136.575 43.7891L146.989 34.9776L139.379 36.1792M136.575 43.7891L149.392 46.5927M136.575 43.7891L139.779 51.399M131.769 37.3807V46.1922M131.769 37.3807L124.159 27.7682M131.769 37.3807L139.379 36.1792M131.769 46.1922L119.753 43.7891M131.769 46.1922L129.366 43.7891L114.146 36.1792L103.732 26.1661L119.753 43.7891M119.753 43.7891L111.743 46.1922M111.743 46.1922H98.9261M103.732 83.0402L110.141 74.3889M110.141 74.3889L125.361 66.2183M125.361 66.2183L126.967 57.4068M125.361 66.2183V87.0454M125.361 66.2183L135.917 61.8125M138.978 76.6318L137.655 70.2235M137.655 70.2235L135.917 61.8125M162.208 49.3964L149.392 46.5927M149.392 46.5927L139.779 51.399M116.549 18.1557L124.159 27.7682M124.159 27.7682H134.18L139.379 36.1792" stroke="#999999" stroke-width="3"/>
<path d="M175.5 180.5H4.5V4.50005H175.5V180.5Z" stroke="#999999" stroke-width="9"/>
</svg>
