<svg width="87" height="236" viewBox="0 0 87 236" fill="none" xmlns="http://www.w3.org/2000/svg">
<path d="M1.62285 95.6511L1.62285 234.2L28.6968 234.2L58.0478 234.2L84.883 234.2L76.2434 95.9868L54.8421 73.0637L54.8421 29.2472L26.8474 4.11162L26.5378 72.9364L1.62285 95.6511Z" fill="#999999" stroke="black" stroke-width="3"/>
<path d="M7.11114 173C7.25188 173 7.53336 173 7.95559 173C10.7867 173 12.6867 172.34 13.6557 171.019C14.6246 169.698 15.1091 167.974 15.1091 165.846C15.1091 164.423 14.7843 163.17 14.1347 162.087C13.4851 160.999 12.5514 160.071 11.3334 159.302C11.3334 159.297 11.3334 159.286 11.3334 159.269C11.7827 159.107 12.2428 158.696 12.7138 158.035C13.1901 157.38 13.4283 156.614 13.4283 155.737C13.4283 154.319 13.0413 153.323 12.2672 152.749C11.4931 152.176 10.4835 151.889 9.23851 151.889C8.52939 151.889 8.10445 151.889 7.96371 151.889C7.82297 151.889 7.54148 151.889 7.11926 151.889C7.11384 156.582 7.11114 163.619 7.11114 173ZM9.23039 160.333C9.23039 160.333 9.26287 160.336 9.32783 160.341C9.39279 160.347 9.44421 160.349 9.4821 160.349C10.5647 160.707 11.4227 161.4 12.0561 162.428C12.6894 163.462 13.0061 164.601 13.0061 165.846C13.0061 167.438 12.665 168.748 11.983 169.776C11.3009 170.805 10.378 171.319 9.21415 171.319C9.21957 168.878 9.22498 165.216 9.23039 160.333ZM9.23039 153.578C9.79336 153.578 10.2833 153.735 10.7001 154.048C11.1169 154.357 11.3253 154.92 11.3253 155.737C11.3253 156.533 11.1873 157.218 10.9112 157.792C10.6351 158.36 10.0748 158.644 9.23039 158.644C9.23039 157.518 9.23039 155.829 9.23039 153.578ZM31.5841 173C31.9359 173 32.6342 173 33.679 173C33.6736 169.481 33.6681 162.444 33.6627 151.889C33.3109 151.889 32.6126 151.889 31.5678 151.889C29.814 153.578 26.3008 156.955 21.0284 162.022C21.0284 160.333 21.023 156.955 21.0122 151.889C20.6603 151.889 19.9566 151.889 18.901 151.889C18.9064 155.407 18.9118 162.444 18.9173 173C19.2691 173 19.9728 173 21.0284 173C21.0284 171.587 21.0284 168.761 21.0284 164.523C22.7877 162.839 26.3008 159.472 31.5678 154.422C31.5733 157.518 31.5787 163.711 31.5841 173ZM50.6005 173C50.9524 173 51.6561 173 52.7117 173C52.7117 169.481 52.7117 162.444 52.7117 151.889C52.3598 151.889 51.6561 151.889 50.6005 151.889C50.6005 152.803 50.6005 154.633 50.6005 157.378C49.7723 157.378 48.1132 157.378 45.6231 157.378C43.1331 157.378 41.2736 157.378 40.0449 157.378C40.0449 156.16 40.0449 154.33 40.0449 151.889C39.693 151.889 38.9893 151.889 37.9337 151.889C37.9337 155.407 37.9337 162.444 37.9337 173C38.2856 173 38.9893 173 40.0449 173C40.0449 170.678 40.0449 166.033 40.0449 159.067C41.4631 159.067 43.577 159.067 46.3864 159.067C49.1958 159.067 50.6005 159.067 50.6005 159.067C50.6005 162.163 50.6005 166.807 50.6005 173ZM66.564 171.612C69.0324 171.612 71.1273 170.716 72.8487 168.924C74.5701 167.138 75.4308 164.978 75.4308 162.444C75.4308 159.911 74.5782 157.757 72.873 155.981C71.1679 154.2 69.0649 153.31 66.564 153.31C64.0685 153.31 61.9682 154.2 60.2631 155.981C58.5579 157.757 57.7053 159.911 57.7053 162.444C57.7053 164.978 58.5633 167.138 60.2793 168.924C62.0007 170.716 64.0956 171.612 66.564 171.612ZM55.5942 162.444C55.5942 159.348 56.6498 156.771 58.7609 154.714C60.8666 152.657 63.4676 151.629 66.564 151.629C69.6603 151.629 72.264 152.657 74.3752 154.714C76.4809 156.771 77.5338 159.348 77.5338 162.444C77.5338 165.541 76.4728 168.123 74.3508 170.191C72.2289 172.264 69.6332 173.3 66.564 173.3C63.5001 173.3 60.9045 172.264 58.7771 170.191C56.6552 168.123 55.5942 165.541 55.5942 162.444Z" fill="black"/>
</svg>
