<svg width="83" height="144" viewBox="0 0 83 144" fill="none" xmlns="http://www.w3.org/2000/svg">
<path d="M2 61.0521V142H81V61.0521L52.6185 42.8057V27.545V12.9479H48.2296V2H33.0148V12.9479H28.3333V27.545V42.8057L2 61.0521Z" fill="#999999" stroke="black" stroke-width="3"/>
<path d="M6.86277 105C6.98695 105 7.23532 105 7.60787 105C10.1059 105 11.7824 104.417 12.6373 103.252C13.4923 102.086 13.9198 100.565 13.9198 98.6881C13.9198 97.4319 13.6332 96.3262 13.0601 95.3709C12.4869 94.4109 11.663 93.5917 10.5883 92.9135C10.5883 92.9087 10.5883 92.8992 10.5883 92.8848C10.9847 92.7416 11.3907 92.3786 11.8063 91.7958C12.2266 91.2179 12.4367 90.5421 12.4367 89.7683C12.4367 88.5169 12.0952 87.6381 11.4122 87.1318C10.7292 86.6255 9.83842 86.3723 8.73986 86.3723C8.11416 86.3723 7.73922 86.3723 7.61504 86.3723C7.49085 86.3723 7.24249 86.3723 6.86993 86.3723C6.86516 90.5134 6.86277 96.7226 6.86277 105ZM8.7327 93.8234C8.7327 93.8234 8.76136 93.8258 8.81867 93.8306C8.87599 93.8353 8.92136 93.8377 8.9548 93.8377C9.91006 94.153 10.6671 94.7643 11.2259 95.6718C11.7848 96.5841 12.0642 97.5895 12.0642 98.6881C12.0642 100.092 11.7633 101.248 11.1615 102.156C10.5596 103.063 9.74528 103.517 8.71837 103.517C8.72315 101.363 8.72792 98.1316 8.7327 93.8234ZM8.7327 87.8625C9.22944 87.8625 9.66169 88.0011 10.0295 88.2781C10.3972 88.5503 10.5811 89.0471 10.5811 89.7683C10.5811 90.4704 10.4593 91.0746 10.2157 91.5809C9.97216 92.0824 9.47781 92.3332 8.7327 92.3332C8.7327 91.3397 8.7327 89.8495 8.7327 87.8625ZM28.4565 105C28.767 105 29.3831 105 30.305 105C30.3002 101.895 30.2954 95.6862 30.2906 86.3723C29.9802 86.3723 29.364 86.3723 28.4422 86.3723C26.8947 87.8625 23.7948 90.843 19.1427 95.3136C19.1427 93.8234 19.1379 90.843 19.1284 86.3723C18.8179 86.3723 18.197 86.3723 17.2656 86.3723C17.2704 89.4769 17.2752 95.6862 17.2799 105C17.5904 105 18.2113 105 19.1427 105C19.1427 103.753 19.1427 101.26 19.1427 97.5203C20.695 96.0348 23.7948 93.064 28.4422 88.6076C28.447 91.3397 28.4518 96.8038 28.4565 105ZM51.1895 91.9678C50.8742 91.9678 50.2485 91.9678 49.3124 91.9678C48.9876 90.9266 48.2377 89.9355 47.0627 88.9945C45.883 88.0584 44.2805 87.6022 42.2553 87.6261C40.0773 87.65 38.291 88.4357 36.8963 89.9832C35.5016 91.5308 34.8043 93.4317 34.8043 95.6862C34.8043 98.0122 35.504 99.9419 36.9035 101.475C38.3029 103.003 40.0869 103.768 42.2553 103.768C44.4238 103.768 46.0788 103.266 47.2203 102.263C48.3571 101.26 49.0592 100.312 49.3267 99.4189C49.7375 99.4189 50.3584 99.4189 51.1895 99.4189C50.9315 100.689 50.0455 101.981 48.5314 103.295C47.0173 104.604 44.9253 105.258 42.2553 105.258C39.5854 105.258 37.3668 104.355 35.5995 102.55C33.8275 100.74 32.9415 98.4517 32.9415 95.6862C32.9415 92.9207 33.8132 90.6352 35.5565 88.8297C37.2999 87.0291 39.5328 86.1311 42.2553 86.1359C44.9779 86.1407 47.0484 86.7258 48.467 87.8912C49.8855 89.0518 50.793 90.4107 51.1895 91.9678ZM53.8045 105C54.1102 105 54.7263 105 55.6529 105C55.6577 105 55.6673 105 55.6816 105C55.6816 104.685 55.6768 104.174 55.6673 103.467C55.6577 102.76 55.6529 99.918 55.6529 94.9411C55.8201 94.9411 56.0685 94.9411 56.398 94.9411C56.8948 96.6175 57.8883 99.9705 59.3785 105C59.6889 105 60.3099 105 61.2412 105C60.7111 103.214 59.6555 99.6434 58.0745 94.2891C58.0745 94.2509 58.0745 94.1745 58.0745 94.0598C58.5426 92.7798 59.474 90.2173 60.8687 86.3723C60.5535 86.3723 59.9278 86.3723 58.9916 86.3723C58.5569 87.5521 57.6924 89.9116 56.398 93.4508C56.2739 93.4508 56.0255 93.4508 55.6529 93.4508C55.6577 92.2711 55.6649 89.9116 55.6744 86.3723C55.3592 86.3723 54.7311 86.3723 53.7902 86.3723C53.7902 89.4769 53.7949 95.6862 53.8045 105ZM75.3983 105C75.7087 105 76.3249 105 77.2467 105C77.2419 101.895 77.2372 95.6862 77.2324 86.3723C76.9219 86.3723 76.3058 86.3723 75.3839 86.3723C73.8364 87.8625 70.7366 90.843 66.0844 95.3136C66.0844 93.8234 66.0797 90.843 66.0701 86.3723C65.7596 86.3723 65.1387 86.3723 64.2073 86.3723C64.2121 89.4769 64.2169 95.6862 64.2217 105C64.5321 105 65.1531 105 66.0844 105C66.0844 103.753 66.0844 101.26 66.0844 97.5203C67.6367 96.0348 70.7366 93.064 75.3839 88.6076C75.3887 91.3397 75.3935 96.8038 75.3983 105Z" fill="black"/>
</svg>
